<?xml version="1.0" encoding="utf-8"?>
<!-- Generator: Adobe Illustrator 26.5.0, SVG Export Plug-In . SVG Version: 6.00 Build 0)  -->
<svg version="1.1" id="Capa_1" xmlns="http://www.w3.org/2000/svg" xmlns:xlink="http://www.w3.org/1999/xlink" x="0px" y="0px"
	 viewBox="0 0 595.28 841.89" style="enable-background:new 0 0 595.28 841.89;" xml:space="preserve">
<style type="text/css">
	.st0{fill:#FFFFFF;}
	.st1{fill:#1E1F1D;}
	.st2{fill:#53AD32;}
</style>
<g>
	<g>
		<path class="st0" d="M412.36,550.68c-0.5,0.01-1.02,0.01-1.54,0.01l-149.42-0.6c-19.64-0.08-37.61-7.79-50.59-21.7
			c-4.03-4.32-7.2-8.8-9.7-13.26c-0.58-0.15-1.15-0.31-1.73-0.48c-9,1.9-18.2,2.88-27.43,2.88l-0.53,0
			c-22.37-0.09-44.54-5.92-64.12-16.85c-30.92-17.26-53.29-45.56-62.97-79.69c-9.68-34.13-5.5-69.97,11.77-100.91
			c23.42-41.97,67.86-68.05,115.96-68.05l0.54,0c8.21,0.03,16.43,0.85,24.5,2.41c6.89-2.05,14.13-3.14,21.55-3.14l37.05,0.32
			c7.72,0.07,15.27,1.33,22.44,3.64c7.18-2.26,14.73-3.45,22.44-3.46l36.78-0.02c7,0.03,13.88,1.04,20.45,2.94
			c3.3-0.55,6.63-0.98,9.99-1.27c3.96-0.36,7.98-0.54,11.95-0.54l0.51,0c29.51,0.12,58.52,10.27,81.71,28.6
			c23.09,18.27,39.64,44.01,46.62,72.5c1.6,6.54,2.71,13.21,3.29,19.85c1.52,16.99-0.21,33.89-5.15,50.21l-0.01,0.04
			c-0.41,1.44-1.16,4.05-2.46,7.34c-0.93,2.69-1.92,5.03-2.82,7.03l-0.04,0.09c-5.28,12.15-10.88,21.16-16.42,28.3l0.19,13.69
			l0,0.54c-0.16,39.03-30.56,69.61-69.2,69.61C415.94,550.7,412.36,550.68,412.36,550.68z"/>
	</g>
	<g>
		<path class="st0" d="M237.07,357.5c-4.54-15.35-15.03-28.08-29.53-35.85c-9.18-4.92-19.57-7.54-30.03-7.59
			c-22.67-0.09-43.62,11.64-54.65,30.6c-8.09,13.9-10.04,30.01-5.49,45.36c4.54,15.35,15.02,28.08,29.52,35.85
			c9.19,4.92,19.57,7.54,30.03,7.58c22.68,0.09,43.61-11.63,54.65-30.59C239.65,388.96,241.61,372.86,237.07,357.5"/>
		<path class="st1" d="M261.65,488.13l148.99,0.6c0.51,0,1.01,0,1.49-0.01l3.59,0.01c0,0,9.1,0.53,9.14-9.55c0.02-4.53,0,0,0,0
			l-0.52-37.67c6.68-7.02,14-10.81,21.78-28.71c0.55-1.28,1.24-2.58,1.42-3.93c0.74-1.14,1-2.43,1.42-3.78
			c2.73-8.94,3.69-18.2,2.85-27.54c-0.32-3.66-0.93-7.31-1.8-10.86c-3.81-15.54-12.84-29.57-25.44-39.54
			c-12.65-10-28.48-15.54-44.56-15.61c-2.26-0.01-4.54,0.09-6.8,0.3c-8.18,0.72-16,2.83-23.22,6.08c-2.64-4.61-7.54-7.48-12.88-7.5
			c-0.02,0-0.04,0-0.07,0l-36.4,0.02c-4.88,0.01-9.45,2.4-12.24,6.41l-10.58,15.23l-10.46-15.32c-2.76-4.03-7.31-6.46-12.19-6.5
			l-36.39-0.32c-0.03,0-0.05,0-0.07,0c-5.53-0.02-10.63,3.02-13.23,7.91c-0.15,0.26-0.28,0.55-0.4,0.82
			c-10.13-5.2-21.39-7.96-32.73-8c-26.39-0.11-50.76,14.13-63.6,37.14c-19.47,34.89-6.93,79.1,27.95,98.57
			c10.69,5.97,22.78,9.15,34.96,9.2c12.48,0.05,24.52-3.11,35.1-8.91c0.15,0.34,0.31,0.67,0.47,1c2.56,4.92,7.63,8.01,13.18,8.03
			l32.26,0.13l-0.09,23.01C252.59,478.83,251.99,488.09,261.65,488.13"/>
		<path class="st2" d="M226.74,413.64c8.3-14.88,10.32-32.1,5.67-48.49c-4.65-16.4-15.4-29.99-30.27-38.3
			c-9.41-5.25-20.06-8.06-30.78-8.1c-23.24-0.09-44.7,12.45-56.01,32.71c-17.15,30.72-6.1,69.65,24.61,86.79
			c9.41,5.26,20.06,8.06,30.78,8.1C193.96,446.44,215.43,433.91,226.74,413.64"/>
		<path class="st2" d="M340.41,330.19c1.43-2.05,1.6-4.74,0.44-6.96c-1.16-2.23-3.47-3.64-5.97-3.62l-35.76,0.02
			c-2.21,0.01-4.27,1.08-5.53,2.9l-16.96,24.41l-16.76-24.55c-1.25-1.83-3.3-2.92-5.51-2.94l-35.76-0.31c-2.52,0-4.82,1.35-6,3.57
			c-1.18,2.21-1.03,4.9,0.39,6.96l37.55,54.81l-35.73,51.43c-1.43,2.05-1.6,4.73-0.44,6.95c1.16,2.22,3.44,3.62,5.94,3.63
			l35.38,0.14c2.21,0.01,4.29-1.07,5.56-2.89L340.41,330.19z"/>
		<path class="st0" d="M264.08,477.84c0,1.04-0.24,1.82-0.7,2.33c-0.47,0.52-1.16,0.77-2.08,0.77c-0.9,0-1.58-0.27-2.05-0.8
			c-0.46-0.53-0.7-1.3-0.69-2.32l0.09-21.23c0.01-1.74,0.26-2.93,0.76-3.55c0.49-0.62,1.38-0.93,2.66-0.92l12.96,0.05
			c0.99,0,1.75,0.22,2.26,0.65c0.51,0.42,0.76,1.05,0.76,1.87c0,0.8-0.26,1.4-0.77,1.81c-0.52,0.42-1.27,0.62-2.27,0.62l-10.83-0.04
			l-0.03,6.46l9.16,0.04c1,0,1.75,0.22,2.27,0.65c0.51,0.43,0.77,1.05,0.76,1.86c0,0.81-0.26,1.43-0.78,1.84
			c-0.52,0.41-1.27,0.61-2.27,0.61l-9.16-0.04L264.08,477.84z"/>
		<path class="st0" d="M284.89,477.55c0,1.2-0.21,2.08-0.64,2.63c-0.42,0.56-1.08,0.84-1.98,0.84c-0.93,0-1.6-0.28-2.02-0.84
			c-0.42-0.54-0.62-1.43-0.62-2.66l0.09-21.27c0.01-1.73,0.26-2.91,0.76-3.53c0.49-0.62,1.38-0.93,2.67-0.92l1.96,0.01
			c1.11,0,1.92,0.22,2.42,0.67c0.5,0.45,0.98,1.64,1.44,3.58l4.41,17.85l4.38-17.45c0.5-1.98,1-3.22,1.51-3.77
			c0.5-0.55,1.24-0.82,2.23-0.81l2.24,0.01c1.29,0.01,2.17,0.32,2.66,0.95c0.49,0.64,0.73,1.81,0.73,3.53l-0.09,21.27
			c0,1.2-0.23,2.08-0.65,2.63c-0.43,0.56-1.09,0.84-1.98,0.84c-0.92,0-1.6-0.29-2.01-0.85c-0.42-0.55-0.62-1.43-0.62-2.65
			l0.08-19.85l-4.78,19.4c-0.38,1.45-0.84,2.47-1.39,3.04c-0.55,0.57-1.33,0.86-2.34,0.86c-0.98,0-1.77-0.31-2.34-0.91
			c-0.58-0.6-1.05-1.61-1.4-3.02l-4.63-19.44L284.89,477.55z"/>
		<path class="st2" d="M309.93,477.09c0.01-1.25,0.46-2.34,1.37-3.25c0.91-0.9,2-1.36,3.27-1.36c1.31,0.01,2.41,0.46,3.32,1.37
			c0.9,0.89,1.35,1.99,1.35,3.28c-0.01,1.28-0.47,2.39-1.4,3.3c-0.93,0.91-2.03,1.36-3.3,1.36c-1.25-0.01-2.33-0.47-3.24-1.4
			C310.38,479.46,309.93,478.36,309.93,477.09"/>
		<path class="st0" d="M226.75,366.75c-4.23-14.9-13.99-27.26-27.48-34.79c-8.55-4.78-18.22-7.32-27.95-7.36
			c-21.1-0.09-40.59,11.3-50.87,29.71c-7.53,13.48-9.35,29.12-5.13,44.02c4.23,14.91,13.98,27.26,27.48,34.79
			c8.55,4.78,18.21,7.32,27.95,7.36c21.1,0.09,40.59-11.29,50.87-29.7C229.15,397.29,230.97,381.65,226.75,366.75"/>
		<path class="st0" d="M255.2,387.98l-33.17,47.74c-0.67,0.97-0.75,2.22-0.21,3.27c0.55,1.05,1.62,1.7,2.8,1.71l29.92,0.12
			c1.04,0,2.02-0.51,2.61-1.36l76.02-109.06c0.68-0.97,0.75-2.23,0.21-3.27c-0.55-1.05-1.62-1.7-2.8-1.71l-0.01,0l-30.28,0.01
			c-1.03,0-2.01,0.51-2.6,1.36l-18.51,26.64c-2.78,4.52-5.05,0.15-5.05,0.15l-18.41-26.96c-0.58-0.86-1.55-1.37-2.59-1.38
			l-30.27-0.26l-0.02,0c-1.18,0-2.26,0.64-2.81,1.68c-0.55,1.03-0.48,2.3,0.18,3.27l34.82,50.83
			C255.05,380.77,258.19,383.47,255.2,387.98"/>
		<path class="st2" d="M291.79,419.59c0.01-3.07,1.14-5.73,3.37-7.97c2.24-2.24,4.91-3.36,8.03-3.35c3.21,0.01,5.92,1.13,8.14,3.35
			c2.21,2.21,3.32,4.89,3.31,8.06c-0.01,3.16-1.16,5.86-3.44,8.09c-2.28,2.24-4.98,3.35-8.1,3.34c-3.07-0.01-5.73-1.15-7.97-3.43
			C292.89,425.41,291.78,422.71,291.79,419.59"/>
		<path class="st2" d="M152.72,415.25c-1.92-0.01-3.46-0.96-3.46-2.13l0.12-28.63l0.01-2.45l0.11-28.4c0-1.17,1.56-2.11,3.48-2.1
			c1.91,0.01,3.46,0.96,3.46,2.13l-0.11,28.44l-0.01,2.46l-0.12,28.58C156.19,414.31,154.63,415.25,152.72,415.25"/>
		<path class="st2" d="M143.66,406.11c-1.7-0.01-3.09-0.82-3.08-1.8l0.08-20.07l0.01-2.07l0.08-19.79c0-0.99,1.39-1.78,3.1-1.78
			c1.71,0.01,3.09,0.81,3.08,1.8l-0.08,19.82l-0.01,2.08l-0.08,20.03C146.75,405.32,145.36,406.12,143.66,406.11"/>
		<path class="st2" d="M134.59,396.97c-1.49-0.01-2.7-0.69-2.7-1.52l0.05-11.43l0.01-1.75l0.04-11.11c0-0.83,1.22-1.5,2.71-1.5
			c1.49,0.01,2.69,0.69,2.69,1.52l-0.05,11.15l-0.01,1.75l-0.05,11.4C137.29,396.31,136.08,396.98,134.59,396.97"/>
		<path class="st2" d="M161.79,424.39c-1.85-0.01-3.34-0.99-3.34-2.2l0.15-37.65l0.01-2.34l0.15-37.55c0-1.21,1.51-2.19,3.36-2.18
			c1.85,0.01,3.35,1,3.34,2.21l-0.15,37.6l-0.01,2.33l-0.15,37.61C165.14,423.42,163.63,424.39,161.79,424.39"/>
		<path class="st2" d="M189.49,415.4c1.92,0.01,3.48-0.94,3.48-2.1l0.12-28.63l0.01-2.45l0.11-28.4c0-1.17-1.54-2.12-3.46-2.13
			c-1.92-0.01-3.47,0.93-3.48,2.1l-0.11,28.44l-0.01,2.46l-0.12,28.58C186.03,414.43,187.58,415.39,189.49,415.4"/>
		<path class="st2" d="M198.64,406.33c1.7,0.01,3.09-0.79,3.09-1.78l0.08-20.07l0.01-2.07l0.08-19.79c0-0.99-1.38-1.79-3.08-1.8
			c-1.71-0.01-3.09,0.78-3.1,1.78l-0.08,19.82l-0.01,2.08l-0.08,20.03C195.55,405.51,196.93,406.32,198.64,406.33"/>
		<path class="st2" d="M207.77,397.27c1.49,0.01,2.71-0.67,2.71-1.5l0.05-11.43l0.01-1.75l0.04-11.11c0-0.83-1.21-1.51-2.7-1.52
			c-1.49-0.01-2.7,0.67-2.7,1.5l-0.05,11.15l-0.01,1.75l-0.05,11.4C205.08,396.58,206.28,397.26,207.77,397.27"/>
		<path class="st2" d="M180.36,424.46c1.85,0.01,3.36-0.96,3.36-2.17l0.15-37.65l0.01-2.34l0.15-37.55c0-1.21-1.49-2.2-3.34-2.21
			c-1.85-0.01-3.36,0.97-3.36,2.18l-0.15,37.6l-0.01,2.33l-0.15,37.61C177.01,423.47,178.51,424.45,180.36,424.46"/>
		<path class="st2" d="M436.62,414.41c8.31-14.87,10.32-32.1,5.67-48.49c-4.64-16.4-15.4-29.99-30.28-38.3
			c-9.42-5.25-20.06-8.05-30.78-8.1c-23.24-0.09-44.7,12.44-56.01,32.71c-17.14,30.71-6.1,69.64,24.61,86.78
			c9.41,5.26,20.05,8.06,30.78,8.1l0,0C403.84,447.21,425.3,434.68,436.62,414.41"/>
		<path class="st0" d="M360.97,396.04l72.86,0.29c1.45,0.01,2.47-1.05,3.1-2.36c1.87-3.86,2.39-8.93,1.78-15.81
			c-0.27-2.94-0.75-5.87-1.45-8.71c-6.34-25.89-29.39-44.04-56.04-44.15c-1.81-0.01-3.65,0.07-5.46,0.23
			c-24.48,2.19-45,19.65-51.08,43.47c-1.62,6.36-2.14,12.92-1.56,19.48c0.34,3.81,1.06,7.61,2.15,11.28
			c7.17,24.38,29.93,41.47,55.34,41.58c1.81,0.01,3.65-0.06,5.46-0.23c9.76-0.88,19.22-4.24,27.33-9.73
			c8.09-5.47,14.72-12.96,19.16-21.66c0.51-0.99,0.46-2.17-0.11-3.12c-0.58-0.95-1.61-1.53-2.72-1.54l-28.45-0.11
			c-0.76,0-1.49,0.25-2.06,0.74c-4.35,3.62-9.64,5.81-15.32,6.31c-0.87,0.08-1.76,0.12-2.63,0.12c-8.36-0.03-16.08-3.75-21.27-10.08
			C355.29,396.23,360.97,396.04,360.97,396.04 M400.37,370.3l-38.49-0.16c-3.65,0.11-0.92-2.71-0.92-2.71
			c4.59-4.78,10.76-7.76,17.53-8.35c0.86-0.08,1.75-0.12,2.62-0.12c7.78,0.03,15.03,3.25,20.17,8.82
			C401.28,367.78,404.72,370.31,400.37,370.3"/>
		<g>
			<path class="st0" d="M321.06,465.92c0.04-9.83,7.11-15.49,15.11-15.46c3.63,0.01,6.41,1.45,8.56,3.29l-3.7,4.98
				c-1.47-1.27-2.83-1.96-4.51-1.96c-4.47-0.02-7.54,3.6-7.56,9.17c-0.02,5.52,3.01,9.11,7.27,9.13c2.1,0.01,4.11-0.98,5.74-2.34
				l3.03,5.12c-2.8,2.46-6.38,3.55-9.64,3.54C327.21,481.36,321.02,475.65,321.06,465.92z"/>
			<path class="st0" d="M344.58,466.02c0.04-9.83,6.85-15.49,14.21-15.46c7.36,0.03,14.13,5.74,14.09,15.57
				c-0.04,9.73-6.85,15.38-14.21,15.35C351.3,481.45,344.54,475.75,344.58,466.02z M364.98,466.1c0.02-5.58-2.22-9.21-6.22-9.23
				c-4-0.02-6.27,3.6-6.3,9.18c-0.02,5.52,2.23,9.11,6.22,9.12C362.69,475.19,364.96,471.62,364.98,466.1z"/>
			<path class="st0" d="M376.78,451.37l6.31,0.03l0.51,3.95l0.21,0c2.48-2.57,5.23-4.66,9.07-4.64c4.21,0.02,6.67,1.92,8.08,5.19
				c2.69-2.83,5.54-5.13,9.38-5.12c6.26,0.03,9.13,4.46,9.1,11.87l-0.07,18.36l-7.73-0.03l0.07-17.41c0.02-4.52-1.29-6.16-4.08-6.17
				c-1.68-0.01-3.58,1.09-5.69,3.29l-0.08,20.25l-7.73-0.03l0.07-17.41c0.02-4.52-1.29-6.16-4.08-6.17
				c-1.68-0.01-3.58,1.09-5.69,3.29l-0.08,20.25l-7.68-0.03L376.78,451.37z"/>
		</g>
	</g>
</g>
</svg>
