<?xml version="1.0" encoding="utf-8"?>
<!-- Generator: Adobe Illustrator 26.5.0, SVG Export Plug-In . SVG Version: 6.00 Build 0)  -->
<svg version="1.1" id="Capa_1" xmlns="http://www.w3.org/2000/svg" xmlns:xlink="http://www.w3.org/1999/xlink" x="0px" y="0px"
	 viewBox="0 0 521 281.4" style="enable-background:new 0 0 521 281.4;" xml:space="preserve">
<style type="text/css">
	.st0{fill:#232E5B;stroke:#FFFFFF;stroke-width:10;stroke-miterlimit:10;}
	.st1{fill:#E73C45;stroke:#FFFFFF;stroke-width:10;stroke-miterlimit:10;}
	.st2{fill:#232E5B;}
	.st3{fill:#E73C45;}
</style>
<g>
	<path class="st0" d="M370.2,167.2c-0.4-1.3-0.9-2.4-1.6-3.4c-0.8-1.1-1.8-1.9-3-2.6c-0.4-0.2-0.9-0.4-1.3-0.5
		c0.3-0.2,0.7-0.4,1-0.7c2.3-1.8,3.6-4.3,3.8-7.1c0.1-1.9-0.3-3.9-1.2-5.9c-0.6-1.3-1.3-2.6-2.2-3.8l-25.3-35.4L365.6,72
		c1.4-1.8,2.2-3.7,2.4-5.7c0.2-2.2-0.4-4.3-1.5-6.1c-1-1.5-2.4-2.7-4.1-3.5c-1.5-0.7-3.1-1.1-4.7-1.1h-23c-2.6,0-5,0.8-6.9,2.4
		c-1.3,1-2.6,2.5-3.8,4.4l0,0.1l0,0.1c-0.9,1.5-2,3.3-3.2,5.3c-1.2,2-2.4,4.1-3.7,6.2c-0.3,0.4-0.5,0.9-0.8,1.3l-7.9-12.8l-0.1-0.2
		c-0.9-1.3-1.8-2.4-2.5-3.3c-2-2.3-4.6-3.5-7.5-3.5h-22.8c-1.2,0-2.4,0.1-3.4,0.4c-0.4-1.1-0.8-2.1-1.3-3.1
		c-2.8-6.4-6.5-12.3-11-17.7c-4.8-5.8-10.4-10.7-16.6-14.7c-5-3.2-10.3-5.8-15.9-7.6c-5.5-1.8-11.1-2.9-16.8-3.3
		c-1.7-0.1-3.4-0.2-5-0.2c-1.1,0-2.1,0-3.2,0.1c-4.6,0.2-9.1,0.9-13.4,1.9c-5.9,1.4-11.6,3.7-17,6.7c-5.9,3.2-11.3,7.3-16.1,12.1
		c-5.3,5.3-9.8,11.3-13.3,17.9c-3.1,5.9-5.5,12.2-7,18.7c-0.8,3.5-1.4,7.1-1.7,10.6c-1.9,0.9-3.5,2.2-4.8,4c-0.4,0.5-0.7,1.1-1,1.6
		c-2.4-4.8-5.4-9.1-8.9-12.9c-4.7-5-10.3-8.9-16.8-11.7c-6.5-2.8-13.6-4.3-21.2-4.3c-4.6,0-8.7,0.6-12.1,1.9
		c-3.3,1.2-6.2,2.8-8.7,4.7c-0.7,0.6-1.4,1.1-2,1.7c-0.5-1-1-2-1.7-2.8c-1.1-1.4-2.4-2.5-4.1-3.3c-1.6-0.8-3.4-1.1-5.4-1.1H36
		c-1.1,0-2.3,0.1-3.5,0.4c-1.8,0.4-3.5,1.3-5.1,2.5l-0.2,0.2L27,58.6c-1,1-1.8,2.1-2.5,3.2c-1,1.7-1.5,3.7-1.5,6v110.4
		c0,2.1,0.5,4.1,1.6,5.9c0.9,1.5,2,2.7,3.3,3.7c1.2,0.9,2.4,1.5,3.8,2c1.4,0.5,2.9,0.8,4.3,0.8h16.6c5,0,7.9-2.2,9.5-4
		c2-2.3,3-5.2,3-8.4v-18.1c1.7,0.9,3.5,1.7,5.4,2.3c3,1,6.5,1.5,10.4,1.5c7.6,0,14.8-1.5,21.2-4.3c6.4-2.8,12.1-6.8,16.8-11.8
		c4.5-4.8,8.1-10.4,10.7-16.8c0.4,0.9,0.8,1.9,1.2,2.8c0.4,0.9,1.1,2.3,2.3,3.8c2.4,3,5.8,4.7,9.5,4.7c0.4,0,0.8,0,1.1,0
		c0.7-0.1,1.3-0.1,2-0.2l3.2-0.3c1.4-0.1,2.7-0.3,4.1-0.4c0.5-0.1,1-0.1,1.5-0.2c0.6-0.1,1.2-0.1,1.9-0.2c0.7-0.1,1.3-0.2,1.9-0.4
		c0.3,0,0.6,0.1,1,0.1c0.2,0,0.5,0,0.7,0l0.1,0c1.8,2.6,3.9,5.1,6.1,7.3c3.3,3.3,7,6.2,11.1,8.5c4.1,2.4,8.5,4.2,13.2,5.5
		c4.7,1.3,9.6,1.9,14.7,1.9c5,0,9.9-0.6,14.6-1.9c4.6-1.3,9-3.1,13.1-5.5c4.1-2.4,7.8-5.2,11.1-8.5c2-2,3.8-4.2,5.5-6.4
		c0.4,0,0.7,0.1,1,0.1c0.1,0,0.1,0,0.2,0l7.6,0.8c2.3,0.3,4.7,0.5,7,0.8l0.2,0c0.4,0,0.9,0.1,1.3,0.1l-0.9,1.2l-0.1,0.1
		c-0.4,0.6-0.8,1.2-1.2,2c-1.3,2.2-1.7,4.6-1.2,7.1l0.3,1.4l0.3,0.7c0.7,1.7,1.8,3.1,3.1,4.1c-0.1,0.2-0.3,0.4-0.4,0.7
		c-0.3,0.6-0.5,1.3-0.7,1.9c-0.3,0.2-0.5,0.3-0.8,0.5c-1,0.9-1.6,2.2-1.6,3.6v2.2c0,1.4,0.5,2.7,1.5,3.6c0.2,0.2,0.4,0.4,0.7,0.5
		v5.5c0,1.2,0.5,2.4,1.3,3.3c0.9,0.9,2.1,1.5,3.5,1.5h2.6c1.1,0,2.1-0.4,3-1c0.1,0,0.1-0.1,0.2-0.1c0.9,0.8,2,1.2,3.2,1.2h2.7
		c0.4,0,0.9-0.1,1.3-0.2c0.5-0.1,0.9-0.3,1.3-0.6l0.1-0.1l0.1-0.1c0.1-0.1,0.2-0.2,0.4-0.3c0.9,0.8,1.9,1.1,3.2,1.1h2.8
		c1.2,0,2.2-0.4,3.1-1.1c0.8,0.7,1.9,1.1,3.2,1.1h2.8c0.8,0,1.6-0.2,2.3-0.6c0.6,0.4,1.4,0.6,2.2,0.6h3.2c1.3,0,2.6-0.6,3.4-1.6
		c0.1-0.2,0.3-0.3,0.4-0.5c0.4,0.3,0.8,0.5,1.1,0.8c0.9,0.5,1.8,0.9,2.8,1.2c1,0.3,2,0.4,3.1,0.4c1.3,0,2.6-0.2,3.8-0.6
		c1.1-0.4,2.1-0.9,3-1.5c0.2-0.1,0.4-0.3,0.6-0.5c0.5,0.4,1,0.8,1.5,1.1c0.9,0.5,1.8,0.9,2.8,1.2c1,0.3,2.1,0.4,3.1,0.4
		c1.1,0,2.1-0.1,3.1-0.4c1-0.3,1.9-0.7,2.8-1.2c0.4-0.3,0.9-0.5,1.3-0.8c0.1,0.2,0.3,0.4,0.5,0.6c0.9,1,2.2,1.5,3.6,1.5h2.7
		c0.4,0,0.9-0.1,1.3-0.2c0.5-0.1,0.9-0.3,1.3-0.6l0.1-0.1l0.1-0.1c0.1-0.1,0.2-0.2,0.4-0.3c0.9,0.8,1.9,1.1,3.2,1.1h2.8
		c1.2,0,2.2-0.4,3.1-1.1c0.8,0.7,1.9,1.1,3.2,1.1h2.8c1.4,0,2.7-0.6,3.6-1.6c0.5-0.6,1.1-1.6,1.1-3.2v-7.9
		C370.7,169.5,370.5,168.3,370.2,167.2z M91.7,115.6c-0.7,2-1.7,3.6-2.9,5c-1.2,1.4-2.6,2.4-4.3,3.2c-1.6,0.8-3.4,1.1-5.5,1.1
		c-2.2,0-4.2-0.4-6.1-1.2c-2-0.9-3.7-2-5.1-3.4c-1.4-1.4-2.6-3.1-3.4-5c-0.8-1.9-1.2-3.9-1.2-6.2v-0.9c0.1-2,0.6-3.8,1.4-5.6
		c0.9-1.9,2.1-3.5,3.5-4.9c1.4-1.4,3.1-2.4,5-3.2c1.9-0.8,3.8-1.2,5.9-1.2c2.1,0,3.8,0.4,5.5,1.1c1.7,0.8,3.1,1.9,4.3,3.2
		c1.3,1.4,2.2,3.1,2.9,5c0.7,2,1.1,4.1,1.1,6.4C92.8,111.4,92.4,113.6,91.7,115.6z M341,162.7c-0.2-0.1-0.4-0.3-0.6-0.4h0.8
		C341.2,162.4,341.1,162.5,341,162.7z M217.2,115.7c-0.6,1.9-1.5,3.5-2.7,4.8c-1.1,1.3-2.5,2.3-4.1,3c-1.6,0.7-3.4,1.1-5.5,1.1
		c-2.2,0-4.1-0.4-5.8-1.1c-1.7-0.8-3.1-1.8-4.3-3.1c-1.2-1.4-2.1-2.9-2.8-4.9c-0.7-2-1.1-4.2-1.1-6.6c0-2.3,0.4-4.4,1.1-6.5
		c0.7-2,1.7-3.7,2.9-5.2c1.2-1.4,2.6-2.4,4.2-3.2c1.6-0.8,3.5-1.2,5.7-1.2c2.1,0,3.8,0.4,5.4,1.1c1.6,0.8,3,1.8,4.1,3.2
		c1.2,1.5,2.1,3.1,2.8,5.1c0.7,2.1,1,4.3,1,6.6C218.3,111.4,217.9,113.7,217.2,115.7z M226.5,58.5c-6.6-2.8-13.8-4.2-21.3-4.2
		c-5.1,0-10,0.6-14.7,1.9c-4.7,1.3-9.1,3.1-13.1,5.4c-4.1,2.3-7.8,5.2-11.1,8.5c-1.7,1.7-3.3,3.6-4.8,5.5c-0.9-0.4-1.8-0.7-2.8-0.9
		c0.5-2.6,1.1-5.1,2-7.6c2-5.6,4.8-10.8,8.5-15.3c3.1-3.9,6.8-7.2,11-10c4.6-3,9.7-5.2,15.1-6.4c3-0.7,6-1.1,9.1-1.1
		c0.3,0,0.6,0,1,0c3,0,6.1,0.3,9.2,0.9c3.8,0.8,7.4,2,10.9,3.8c4.1,2,7.9,4.6,11.2,7.7c3.1,2.9,5.9,6.2,8.2,9.9
		c2.8,4.4,4.9,9.3,6.3,14.6c0.4,1.5,0.7,3.1,1,4.6c-0.9,0.2-1.8,0.5-2.6,0.8c-1.7-2.3-3.5-4.5-5.6-6.5
		C238.9,65.2,233.1,61.3,226.5,58.5z M286,99.6l5.8,8.3l-6.6,9.3c0.6-3.5,1-7.1,1-10.9C286.3,103.9,286.1,101.6,286,99.6z
		 M315.7,160.6c-1,0.3-1.9,0.7-2.8,1.2c-0.9,0.5-1.6,1.1-2.4,1.8c-0.7,0.7-1.3,1.5-1.8,2.4c-0.5,0.9-0.9,1.8-1.2,2.8
		c-0.3,0.9-0.4,1.9-0.4,2.9h-2.1v-1c0-1.3-0.2-2.5-0.5-3.6c-0.4-1.3-0.9-2.4-1.6-3.4c-0.5-0.7-1.1-1.3-1.8-1.8
		c1.3-0.3,2.7-0.9,4.2-2.1c1.6-1.3,3-2.9,4-4.9l6.8-12.2l6.5,11.7c1.4,3.2,3.6,5.5,6.4,6.7c-0.4,0.2-0.8,0.4-1.2,0.6
		c-0.5,0.3-1.1,0.7-1.6,1.1c-0.3-0.3-0.6-0.6-1-0.8l0,0c-0.9-0.6-1.8-1-2.9-1.4c-1.1-0.3-2.3-0.5-3.6-0.5
		C317.8,160.2,316.7,160.4,315.7,160.6z"/>
	<g>
		<path class="st1" d="M113.6,75.1c-4-4.3-8.9-7.7-14.5-10.1c-5.6-2.4-11.7-3.7-18.3-3.7c-3.8,0-7,0.5-9.6,1.5
			c-2.6,1-4.9,2.2-6.8,3.7c-1.9,1.5-3.5,3.1-4.9,4.9c-1.4,1.8-2.8,3.6-4.1,5.3L52.4,68c-0.2-0.8-0.5-1.5-0.8-2.1
			c-0.3-0.7-0.6-1.2-1-1.7c-0.4-0.5-0.9-0.9-1.5-1.2c-0.6-0.3-1.4-0.4-2.3-0.4h-11c-0.6,0-1.3,0.1-2,0.2c-0.7,0.1-1.3,0.5-2,1
			c-0.5,0.5-1,1.1-1.3,1.7c-0.4,0.6-0.5,1.4-0.5,2.4v110.4c0,0.8,0.2,1.6,0.6,2.2c0.4,0.7,0.9,1.2,1.5,1.6c0.6,0.4,1.2,0.8,1.9,1
			c0.7,0.2,1.3,0.4,1.9,0.4h16.6c1.8,0,3.2-0.5,4.1-1.5c0.9-1,1.3-2.3,1.3-3.7v-33.9c1.3,1.5,2.6,2.9,4,4.4c1.4,1.5,2.9,2.8,4.7,4
			c1.8,1.2,3.8,2.2,6.1,2.9c2.3,0.7,5,1.1,8.1,1.1c6.6,0,12.8-1.2,18.3-3.7c5.6-2.5,10.4-5.8,14.5-10.1c4-4.3,7.2-9.3,9.5-15.2
			c2.3-5.8,3.4-12.1,3.4-18.7c0-6.7-1.1-13-3.4-18.8C120.8,84.5,117.7,79.4,113.6,75.1z M98.3,118c-1,2.8-2.4,5.2-4.3,7.3
			c-1.8,2.1-4,3.7-6.6,4.9c-2.6,1.2-5.4,1.8-8.5,1.8c-3.1,0-6.1-0.6-8.9-1.8c-2.8-1.2-5.3-2.8-7.3-4.9c-2.1-2.1-3.7-4.5-4.9-7.3
			c-1.2-2.8-1.8-5.8-1.8-9v-1.1c0.1-3,0.9-5.8,2.1-8.5c1.3-2.7,3-5,5-6.9c2.1-2,4.5-3.5,7.2-4.7c2.7-1.1,5.6-1.7,8.7-1.7
			c3.1,0,5.9,0.6,8.5,1.8c2.6,1.2,4.8,2.9,6.6,4.9c1.8,2.1,3.3,4.5,4.3,7.3c1,2.8,1.5,5.7,1.5,8.8C99.8,112.2,99.3,115.2,98.3,118z"
			/>
		<path class="st1" d="M272.6,132.7c0.2-0.8,0.5-1.4,0.8-2.1c0.2-0.4,0.4-0.9,0.6-1.3c1.7-3.8,2.9-7.8,3.8-11.9
			c0.8-3.7,1.1-7.4,1.2-11.2c0-2.1-0.1-4.1-0.2-6.2c-0.2-2.7-0.6-5.3-1.2-8c-0.2-1-0.5-2-0.5-3c-0.1-2.1-2-4.2-4.4-4.4
			c-0.6,0-1.1-0.1-1.7-0.2c-0.3,0-0.7,0-1-0.2c0-0.3,0-0.5,0-0.8c0-4.1-0.4-8.1-1.2-12.1c-1-5.4-2.6-10.6-4.8-15.6
			c-2.6-5.8-5.9-11.1-10-16c-4.3-5.2-9.3-9.6-15-13.3c-4.5-2.9-9.2-5.2-14.3-6.8c-4.9-1.6-9.9-2.6-15.1-3c-2.4-0.2-4.9-0.2-7.3-0.1
			c-4.1,0.2-8.1,0.8-12.1,1.7c-5.4,1.3-10.4,3.3-15.3,6c-5.4,3-10.2,6.6-14.5,10.9c-4.8,4.8-8.8,10.2-12,16.2
			c-2.8,5.4-4.9,11-6.3,16.9c-1,4.5-1.6,9.1-1.7,13.7c0,0.4,0,0.7-0.1,1.2c-0.3,0-0.6,0.1-1,0.1c-0.5,0.1-0.9,0.1-1.4,0.2
			c-1.4,0.2-2.5,0.9-3.3,2c-0.6,0.9-0.9,1.8-0.9,2.9c0,0.3,0,0.7-0.2,1c-1.6,3.9-2.3,7.9-2.5,12.1c-0.3,5.5,0.3,10.9,1.6,16.3
			c1.1,4.5,2.7,8.9,4.6,13.1c0.4,0.8,0.8,1.6,1.3,2.3c1.2,1.5,2.6,2.2,4.5,2c0.6-0.1,1.3-0.1,1.9-0.2c2.4-0.3,4.8-0.5,7.2-0.8
			c1.1-0.1,2.3-0.2,3.4-0.3c0.4,0,0.5-0.1,0.4-0.5c-0.2-1.5-0.3-3-0.5-4.6c-0.2-1.6-0.4-3.2-0.5-4.9c-0.3-2.4-0.5-4.8-0.7-7.2
			c-0.2-2.2-0.5-4.4-0.7-6.6c-0.2-1.7-0.3-3.4-0.5-5.1c-0.2-2.3-0.5-4.6-0.7-6.9c-0.1-1.3-0.3-2.6-0.4-3.9c-0.2-1.6-0.3-3.2-0.5-4.9
			c-0.2-1.9-0.4-3.8-0.6-5.7c-0.1-0.7-0.2-1.4-0.2-2c0.1-1.8,0.2-3.6,0.5-5.4c0.5-4,1.4-7.9,2.8-11.7c2.2-6.4,5.5-12.2,9.7-17.4
			c3.6-4.5,7.8-8.3,12.6-11.4c5.3-3.5,11.2-6,17.4-7.4c3.5-0.8,7-1.2,10.5-1.3c3.9-0.1,7.8,0.3,11.7,1.1c4.4,0.9,8.6,2.4,12.7,4.4
			c4.7,2.3,9,5.3,12.9,8.9c3.6,3.4,6.7,7.1,9.4,11.3c3.3,5.2,5.7,10.7,7.2,16.6c1.1,4.3,1.7,8.7,1.9,13.1c0,0.3,0,0.6,0,0.9
			c-0.1,1.1-0.2,2.3-0.3,3.4c-0.2,1.9-0.4,3.7-0.6,5.6c-0.2,2.5-0.5,5-0.7,7.5c-0.2,1.8-0.4,3.6-0.5,5.4c-0.2,1.9-0.3,3.7-0.5,5.6
			c-0.3,2.9-0.6,5.8-0.9,8.7c-0.2,2.5-0.5,4.9-0.7,7.4c-0.2,2.3-0.5,4.7-0.7,7c0,0.3,0,0.6,0,1c0.6,0.1,1.2,0.1,1.7,0.2
			c3.1,0.3,6.2,0.7,9.3,1c0.6,0.1,1.2,0.1,1.8,0.2C270.3,136.5,272.2,134.5,272.6,132.7z"/>
		<path class="st1" d="M256.6,82.9c-0.7-0.1-1.3-0.2-1.9-0.2c-3.1-0.2-5,2.2-5.2,4.3c-0.1,0.6-0.1,1.2-0.2,1.7
			c-0.1,0.7-0.1,1.4-0.2,2.1c-0.1-0.2-0.1-0.4-0.2-0.5c-2.5-5.8-5.9-10.8-10.2-15.1c-4.3-4.3-9.3-7.7-15.1-10.1
			c-5.8-2.4-12-3.7-18.6-3.7c-4.5,0-8.7,0.6-12.8,1.7c-4.1,1.1-7.9,2.7-11.4,4.7c-3.5,2-6.7,4.5-9.6,7.4c-2.9,2.9-5.4,6.1-7.4,9.6
			c-0.8,1.4-1.6,2.9-2.2,4.4c0-0.4-0.1-0.8-0.1-1.2c-0.1-0.7-0.1-1.5-0.3-2.2c-0.4-2.2-2.4-4-4.6-4c-1.1,0-2.1,0.2-3.3,0.3
			c0,0.3,0,0.5,0,0.7c0.1,0.9,0.2,1.7,0.3,2.6c0.2,2.1,0.5,4.2,0.7,6.4c0.2,2.2,0.5,4.4,0.7,6.6c0.2,1.7,0.4,3.4,0.6,5.1
			c0.2,1.6,0.4,3.1,0.5,4.7c0.2,1.8,0.4,3.6,0.6,5.4c0.3,2.6,0.6,5.3,0.9,7.9c0.1,1.2,0.3,2.5,0.4,3.7c0.2,1.7,0.4,3.4,0.5,5.1
			c0.1,1,0.2,2,0.3,3c0,0.3,0.1,0.4,0.5,0.4c0.7-0.1,1.4-0.1,2-0.2c0.7-0.1,1.4-0.4,2-0.9c0.2,0.3,0.3,0.6,0.5,0.9
			c2.1,3.5,4.5,6.7,7.4,9.6c2.9,2.9,6.1,5.4,9.6,7.4c3.5,2.1,7.4,3.6,11.4,4.8c4.1,1.1,8.4,1.7,12.8,1.7c4.4,0,8.6-0.6,12.7-1.7
			c4-1.1,7.8-2.7,11.4-4.8c3.5-2.1,6.7-4.5,9.6-7.4c2.9-2.9,5.4-6.1,7.4-9.6c0.1-0.2,0.2-0.4,0.3-0.6c0.6,0.7,1.4,1.2,2.3,1.5
			c0.8,0.2,1.7,0.2,2.5,0.3c0-0.1,0.1-0.2,0.1-0.2c1.8-17,3.5-34,5.3-51.1C256.7,83.2,256.6,83.1,256.6,82.9z M223.9,118
			c-0.9,2.8-2.3,5.2-4.1,7.2c-1.8,2-3.9,3.6-6.5,4.8c-2.5,1.2-5.4,1.8-8.5,1.8c-3.2,0-6.2-0.6-8.8-1.8c-2.6-1.2-4.8-2.8-6.6-4.8
			c-1.8-2-3.2-4.4-4.2-7.2c-1-2.8-1.5-5.8-1.5-9c0-3.1,0.5-6.1,1.5-8.9c1-2.8,2.4-5.3,4.2-7.4c1.8-2.1,4-3.8,6.6-5.1
			c2.6-1.2,5.5-1.9,8.8-1.9c3.1,0,6,0.6,8.5,1.9c2.5,1.2,4.7,2.9,6.5,5.1c1.8,2.1,3.1,4.6,4.1,7.4c0.9,2.8,1.4,5.8,1.4,8.9
			C225.3,112.2,224.8,115.2,223.9,118z"/>
		<path class="st1" d="M329,151.3c1.1,2.5,2.7,3.8,4.9,3.8h23.5c1.5,0,2.7-0.3,3.3-0.8c0.7-0.5,1-1.1,1.1-1.9c0-0.8-0.1-1.6-0.5-2.5
			c-0.4-0.9-0.9-1.8-1.5-2.6l-28.3-39.5l28.4-40.1c0.6-0.7,0.9-1.3,0.9-1.9c0-0.6-0.1-1.1-0.4-1.5c-0.3-0.4-0.7-0.8-1.2-1
			c-0.5-0.2-1.1-0.4-1.6-0.4h-23c-1,0-1.8,0.3-2.5,0.8c-0.7,0.6-1.5,1.5-2.3,2.7c-0.9,1.4-1.9,3.1-3.1,5.2c-1.2,2-2.4,4.1-3.7,6.3
			c-1.3,2.2-2.5,4.2-3.7,6.2c-1.2,2-2.3,3.7-3.2,5l-13.9-22.5c-0.8-1.1-1.5-2-2.1-2.7c-0.6-0.7-1.3-1.1-2.1-1.1h-22.8
			c-1.3,0-2.2,0.2-2.8,0.6c-0.6,0.4-0.9,0.9-0.9,1.5c-0.1,0.6,0.1,1.3,0.4,2c0.3,0.7,0.8,1.4,1.2,2l27.4,38.9l-28.9,40.8
			c-0.3,0.4-0.6,1-1,1.6c-0.4,0.7-0.5,1.3-0.4,2l0.1,0.7c0.3,0.8,0.8,1.3,1.2,1.6c0.5,0.3,1.1,0.4,1.7,0.4h25.3
			c0.8,0,1.6-0.3,2.4-0.9c0.8-0.6,1.5-1.5,2-2.5l13.1-23.5L329,151.3z"/>
		<path class="st1" d="M275.8,165.4h-1.3v-0.8c0-0.1,0-0.2,0-0.2c0-0.1,0.1-0.1,0.2-0.2c0.1-0.1,0.2-0.1,0.3-0.2
			c0.1,0,0.2-0.1,0.3-0.1h0.2c0.4,0,0.8-0.2,1.1-0.5c0.2-0.3,0.4-0.7,0.4-1.1V160c0-0.4-0.1-0.8-0.4-1c-0.2-0.2-0.5-0.4-1-0.4h-0.2
			c-0.8,0-1.6,0.2-2.4,0.5c-0.8,0.3-1.4,0.7-2,1.3c-0.6,0.5-1.1,1.2-1.4,1.9c-0.4,0.7-0.5,1.5-0.5,2.3v0.8h-0.7
			c-0.4,0-0.8,0.1-1,0.4c-0.3,0.3-0.4,0.6-0.4,1.1v2.2c0,0.5,0.1,0.9,0.4,1.2c0.3,0.3,0.6,0.4,1.1,0.4h0.7v8.1c0,0.4,0.1,0.8,0.4,1
			c0.3,0.3,0.7,0.4,1.1,0.4h2.6c0.4,0,0.7-0.1,1-0.3c0.2-0.2,0.5-0.5,0.5-1.1v-8.1h1.3c0.5,0,0.9-0.2,1-0.4c0.2-0.3,0.4-0.6,0.4-1.1
			v-2.2c0-0.5-0.1-0.8-0.4-1.1C276.6,165.5,276.2,165.4,275.8,165.4z"/>
		<path class="st1" d="M300.2,165.7c-0.5-0.7-1.1-1.2-1.9-1.6c-0.8-0.4-1.6-0.6-2.6-0.6c-0.6,0-1.2,0.1-1.8,0.2
			c-0.6,0.2-1.1,0.4-1.5,0.6c-0.5,0.2-0.9,0.5-1.2,0.8c-0.1,0.1-0.2,0.2-0.3,0.3c-0.1-0.2-0.3-0.3-0.4-0.5c-0.3-0.3-0.7-0.6-1-0.8
			c-0.4-0.2-0.8-0.4-1.3-0.5c-0.5-0.1-1-0.2-1.5-0.2c-0.7,0-1.3,0.1-1.8,0.2c-0.5,0.2-1,0.4-1.4,0.6c-0.3,0.2-0.6,0.4-0.8,0.7
			c0-0.1-0.1-0.2-0.1-0.3c-0.1-0.2-0.2-0.3-0.3-0.4c-0.1-0.1-0.3-0.3-0.4-0.4c-0.2-0.1-0.4-0.1-0.6-0.1h-1.8c-0.1,0-0.3,0-0.4,0
			c-0.2,0-0.4,0.1-0.6,0.3l0,0c-0.1,0.1-0.3,0.3-0.3,0.4c-0.1,0.2-0.2,0.4-0.2,0.7v13.5c0,0.4,0.1,0.8,0.4,1
			c0.3,0.3,0.6,0.4,1.2,0.4h2.7c0.2,0,0.3,0,0.5-0.1c0.1,0,0.3-0.1,0.5-0.2c0.2-0.1,0.3-0.3,0.4-0.6c0.1-0.2,0.1-0.4,0.1-0.6v-7.9
			c0-0.3,0.1-0.5,0.2-0.8c0.1-0.2,0.3-0.4,0.4-0.6c0.2-0.2,0.4-0.3,0.6-0.4c0.2-0.1,0.4-0.1,0.6-0.1c0.3,0,0.5,0,0.7,0.1
			c0.2,0.1,0.4,0.2,0.5,0.4c0.1,0.2,0.3,0.4,0.3,0.6c0.1,0.2,0.1,0.5,0.1,0.8v8c0,0.5,0.1,0.9,0.4,1.1c0.2,0.2,0.6,0.3,1.1,0.3h2.8
			c0.6,0,0.9-0.2,1.1-0.4c0.2-0.3,0.3-0.6,0.3-1v-7.9c0-0.3,0-0.6,0.1-0.8c0.1-0.2,0.2-0.4,0.4-0.6c0.2-0.2,0.3-0.3,0.6-0.4
			c0.2-0.1,0.4-0.1,0.6-0.1c0.3,0,0.5,0,0.7,0.1c0.2,0.1,0.4,0.2,0.5,0.4c0.1,0.2,0.3,0.4,0.3,0.6c0.1,0.2,0.1,0.5,0.1,0.8v8
			c0,0.5,0.1,0.9,0.4,1.1c0.2,0.2,0.6,0.3,1.1,0.3h2.8c0.6,0,0.9-0.2,1.1-0.4c0.2-0.3,0.3-0.6,0.3-1v-7.9c0-1-0.1-1.9-0.4-2.8
			C301.1,167.2,300.7,166.4,300.2,165.7z"/>
		<path class="st1" d="M307.9,175.1h-3.2c-0.4,0-0.7,0.2-0.8,0.3c-0.1,0.1-0.3,0.4-0.3,0.8v2.9c0,0.7,0.4,1.1,1.1,1.1h3.2
			c0.4,0,0.7-0.2,0.8-0.4c0.2-0.2,0.3-0.5,0.3-0.7v-2.9c0-0.3-0.1-0.6-0.4-0.8C308.4,175.1,308.2,175.1,307.9,175.1z"/>
		<path class="st1" d="M324.2,176.9l-1.3-2c-0.2-0.3-0.4-0.5-0.6-0.6c-0.2-0.1-0.4-0.1-0.6-0.1c-0.1,0-0.2,0-0.3,0
			c-0.2,0-0.4,0.1-0.5,0.2c-0.3,0.2-0.7,0.4-1,0.6c-0.3,0.1-0.7,0.2-1.1,0.2c-0.4,0-0.8-0.1-1.2-0.2c-0.4-0.2-0.7-0.4-0.9-0.7
			c-0.3-0.3-0.5-0.6-0.6-1c-0.1-0.4-0.2-0.8-0.2-1.3c0-0.4,0.1-0.9,0.2-1.3c0.1-0.4,0.3-0.8,0.6-1.1c0.2-0.3,0.6-0.5,0.9-0.7
			c0.3-0.2,0.7-0.3,1.2-0.3c0.4,0,0.8,0.1,1.1,0.2c0.4,0.1,0.7,0.3,1,0.5c0.2,0.1,0.3,0.2,0.5,0.3c0.2,0.1,0.3,0.1,0.4,0.1
			c0.4,0,0.9-0.2,1.3-0.9l1.1-1.8c0.2-0.2,0.2-0.5,0.2-0.7c0-0.3-0.1-0.6-0.3-0.9c-0.1-0.2-0.3-0.4-0.6-0.5l0,0
			c-0.7-0.5-1.4-0.8-2.2-1.1c-0.8-0.2-1.7-0.4-2.6-0.4c-0.8,0-1.5,0.1-2.2,0.3c-0.7,0.2-1.4,0.5-2,0.8c-0.6,0.4-1.2,0.8-1.7,1.3
			c-0.5,0.5-1,1.1-1.3,1.7c-0.4,0.6-0.6,1.3-0.8,2c-0.2,0.7-0.3,1.5-0.3,2.3c0,0.8,0.1,1.6,0.3,2.3c0.2,0.7,0.5,1.4,0.8,2
			c0.4,0.6,0.8,1.2,1.3,1.7c0.5,0.5,1.1,0.9,1.7,1.3c0.6,0.4,1.3,0.6,2,0.8c0.7,0.2,1.5,0.3,2.2,0.3c0.9,0,1.8-0.2,2.7-0.4
			c0.8-0.3,1.6-0.7,2.3-1.2c0.2-0.1,0.3-0.2,0.5-0.4c0.2-0.2,0.3-0.5,0.3-0.8c0-0.1,0-0.3-0.1-0.4
			C324.3,177.1,324.3,177,324.2,176.9z"/>
		<path class="st1" d="M339.7,166c-0.8-0.8-1.7-1.4-2.7-1.8c-1-0.4-2.1-0.7-3.3-0.7c-0.8,0-1.5,0.1-2.3,0.3c-0.7,0.2-1.4,0.5-2,0.8
			c-0.6,0.4-1.2,0.8-1.7,1.3c-0.5,0.5-0.9,1.1-1.3,1.7c-0.4,0.6-0.6,1.3-0.9,2c-0.2,0.7-0.3,1.5-0.3,2.3c0,0.8,0.1,1.5,0.3,2.3
			c0.2,0.7,0.5,1.4,0.8,2c0.4,0.6,0.8,1.2,1.3,1.7c0.5,0.5,1.1,1,1.7,1.3c0.6,0.4,1.3,0.6,2,0.8c0.7,0.2,1.5,0.3,2.3,0.3
			c0.8,0,1.5-0.1,2.2-0.3c0.7-0.2,1.4-0.5,2-0.8c0.6-0.4,1.2-0.8,1.7-1.3c0.5-0.5,1-1.1,1.3-1.7c0.4-0.6,0.6-1.3,0.8-2
			c0.2-0.7,0.3-1.5,0.3-2.3c0-1.2-0.2-2.3-0.7-3.3C341,167.6,340.4,166.7,339.7,166z M336.3,173.3c-0.1,0.4-0.3,0.7-0.6,1
			c-0.2,0.3-0.5,0.5-0.9,0.7c-0.3,0.2-0.7,0.2-1.2,0.2c-0.5,0-0.9-0.1-1.2-0.2c-0.4-0.2-0.7-0.4-0.9-0.7c-0.3-0.3-0.5-0.6-0.6-1
			c-0.1-0.4-0.2-0.8-0.2-1.3c0-0.4,0.1-0.9,0.2-1.3c0.1-0.4,0.3-0.8,0.6-1.1c0.2-0.3,0.6-0.5,0.9-0.7c0.4-0.2,0.8-0.3,1.2-0.3
			c0.4,0,0.8,0.1,1.2,0.3c0.4,0.2,0.6,0.4,0.9,0.7c0.2,0.3,0.4,0.7,0.6,1.1c0.1,0.4,0.2,0.8,0.2,1.3
			C336.5,172.4,336.4,172.9,336.3,173.3z"/>
		<path class="st1" d="M366.9,168c-0.2-0.9-0.6-1.7-1.1-2.3c-0.5-0.7-1.1-1.2-1.9-1.6c-0.8-0.4-1.6-0.6-2.6-0.6
			c-0.6,0-1.2,0.1-1.8,0.2c-0.5,0.2-1.1,0.4-1.5,0.6c-0.5,0.2-0.9,0.5-1.2,0.8c-0.1,0.1-0.2,0.2-0.3,0.3c-0.1-0.2-0.3-0.3-0.4-0.5
			c-0.3-0.3-0.7-0.6-1-0.8c-0.4-0.2-0.8-0.4-1.3-0.5c-0.5-0.1-1-0.2-1.5-0.2c-0.7,0-1.3,0.1-1.8,0.2c-0.5,0.2-1,0.4-1.4,0.6
			c-0.3,0.2-0.6,0.4-0.8,0.7c0-0.1-0.1-0.2-0.1-0.3c-0.1-0.2-0.2-0.3-0.3-0.4c-0.1-0.1-0.3-0.3-0.4-0.4c-0.2-0.1-0.4-0.1-0.6-0.1
			h-1.8c-0.1,0-0.3,0-0.4,0c-0.2,0-0.4,0.1-0.6,0.3l0,0c-0.1,0.1-0.3,0.3-0.3,0.4c-0.1,0.2-0.2,0.4-0.2,0.7v13.5
			c0,0.4,0.1,0.8,0.4,1c0.3,0.3,0.6,0.4,1.2,0.4h2.7c0.2,0,0.3,0,0.5-0.1c0.1,0,0.3-0.1,0.5-0.2c0.2-0.1,0.3-0.3,0.4-0.6
			c0.1-0.2,0.1-0.4,0.1-0.6v-7.9c0-0.3,0.1-0.5,0.2-0.8c0.1-0.2,0.3-0.4,0.4-0.6c0.2-0.2,0.4-0.3,0.6-0.4c0.2-0.1,0.4-0.1,0.6-0.1
			c0.3,0,0.5,0,0.7,0.1c0.2,0.1,0.4,0.2,0.5,0.4c0.1,0.2,0.3,0.4,0.3,0.6c0.1,0.2,0.1,0.5,0.1,0.8v8c0,0.5,0.1,0.9,0.4,1.1
			c0.2,0.2,0.6,0.3,1.1,0.3h2.8c0.6,0,0.9-0.2,1.1-0.4c0.2-0.3,0.3-0.6,0.3-1v-7.9c0-0.3,0-0.5,0.1-0.8c0.1-0.2,0.2-0.4,0.4-0.6
			c0.2-0.2,0.3-0.3,0.6-0.4c0.2-0.1,0.4-0.1,0.6-0.1c0.3,0,0.5,0,0.7,0.1c0.2,0.1,0.4,0.2,0.5,0.4c0.1,0.2,0.3,0.4,0.3,0.6
			c0.1,0.2,0.1,0.5,0.1,0.8v8c0,0.5,0.1,0.9,0.4,1.1c0.2,0.2,0.6,0.3,1.1,0.3h2.8c0.6,0,0.9-0.2,1.1-0.4c0.2-0.3,0.3-0.6,0.3-1v-7.9
			C367.3,169.8,367.1,168.9,366.9,168z"/>
	</g>
	<g>
		<path class="st2" d="M370.2,168.7c-0.4-1.3-0.9-2.4-1.6-3.4c-0.8-1.1-1.8-1.9-3-2.6c-0.4-0.2-0.9-0.4-1.3-0.5
			c0.3-0.2,0.7-0.4,1-0.7c2.3-1.8,3.6-4.3,3.8-7.1c0.1-1.9-0.3-3.9-1.2-5.9c-0.6-1.3-1.3-2.6-2.2-3.8l-25.3-35.4l25.3-35.7
			c1.4-1.8,2.2-3.7,2.4-5.7c0.2-2.2-0.4-4.3-1.5-6.1c-1-1.5-2.4-2.7-4.1-3.5c-1.5-0.7-3.1-1.1-4.7-1.1h-23c-2.6,0-5,0.8-6.9,2.4
			c-1.3,1-2.6,2.5-3.8,4.4l0,0.1l0,0.1c-0.9,1.5-2,3.3-3.2,5.3c-1.2,2-2.4,4.1-3.7,6.2c-0.3,0.4-0.5,0.9-0.8,1.3l-7.9-12.8l-0.1-0.2
			c-0.9-1.3-1.8-2.4-2.5-3.3c-2-2.3-4.6-3.5-7.5-3.5h-22.8c-1.2,0-2.4,0.1-3.4,0.4c-0.4-1.1-0.8-2.1-1.3-3.1
			c-2.8-6.4-6.5-12.3-11-17.7c-4.8-5.8-10.4-10.7-16.6-14.7c-5-3.2-10.3-5.8-15.9-7.6c-5.5-1.8-11.1-2.9-16.8-3.3
			c-1.7-0.1-3.4-0.2-5-0.2c-1.1,0-2.1,0-3.2,0.1c-4.6,0.2-9.1,0.9-13.4,1.9c-5.9,1.4-11.6,3.7-17,6.7c-5.9,3.2-11.3,7.3-16.1,12.1
			c-5.3,5.3-9.8,11.3-13.3,17.9c-3.1,5.9-5.5,12.2-7,18.7c-0.8,3.5-1.4,7.1-1.7,10.6c-1.9,0.9-3.5,2.2-4.8,4c-0.4,0.5-0.7,1.1-1,1.6
			c-2.4-4.8-5.4-9.1-8.9-12.9c-4.7-5-10.3-8.9-16.8-11.7c-6.5-2.8-13.6-4.3-21.2-4.3c-4.6,0-8.7,0.6-12.1,1.9
			c-3.3,1.2-6.2,2.8-8.7,4.7c-0.7,0.6-1.4,1.1-2,1.7c-0.5-1-1-2-1.7-2.8c-1.1-1.4-2.4-2.5-4.1-3.3c-1.6-0.8-3.4-1.1-5.4-1.1H36
			c-1.1,0-2.3,0.1-3.5,0.4c-1.8,0.4-3.5,1.3-5.1,2.5L27.2,60L27,60.2c-1,1-1.8,2.1-2.5,3.2c-1,1.7-1.5,3.7-1.5,6v110.4
			c0,2.1,0.5,4.1,1.6,5.9c0.9,1.5,2,2.7,3.3,3.7c1.2,0.9,2.4,1.5,3.8,2c1.4,0.5,2.9,0.8,4.3,0.8h16.6c5,0,7.9-2.2,9.5-4
			c2-2.3,3-5.2,3-8.4v-18.1c1.7,0.9,3.5,1.7,5.4,2.3c3,1,6.5,1.5,10.4,1.5c7.6,0,14.8-1.5,21.2-4.3c6.4-2.8,12.1-6.8,16.8-11.8
			c4.5-4.8,8.1-10.4,10.7-16.8c0.4,0.9,0.8,1.9,1.2,2.8c0.4,0.9,1.1,2.3,2.3,3.8c2.4,3,5.8,4.7,9.5,4.7c0.4,0,0.8,0,1.1-0.1
			c0.7-0.1,1.3-0.1,2-0.2l3.2-0.3c1.4-0.1,2.7-0.3,4.1-0.4c0.5-0.1,1-0.1,1.5-0.2c0.6-0.1,1.2-0.1,1.9-0.2c0.7-0.1,1.3-0.2,1.9-0.4
			c0.3,0,0.6,0.1,1,0.1c0.2,0,0.5,0,0.7,0l0.1,0c1.8,2.6,3.9,5.1,6.1,7.3c3.3,3.3,7,6.2,11.1,8.5c4.1,2.4,8.5,4.2,13.2,5.5
			c4.7,1.3,9.6,1.9,14.7,1.9c5,0,9.9-0.6,14.6-1.9c4.6-1.3,9-3.1,13.1-5.5c4.1-2.4,7.8-5.2,11.1-8.5c2-2,3.8-4.2,5.5-6.4
			c0.4,0,0.7,0.1,1,0.1c0.1,0,0.1,0,0.2,0l7.6,0.8c2.3,0.3,4.7,0.5,7,0.8l0.2,0c0.4,0,0.9,0.1,1.3,0.1l-0.9,1.2l-0.1,0.1
			c-0.4,0.6-0.8,1.2-1.2,2c-1.3,2.2-1.7,4.6-1.2,7.1l0.3,1.4l0.3,0.7c0.7,1.7,1.8,3.1,3.1,4.1c-0.1,0.2-0.3,0.4-0.4,0.7
			c-0.3,0.6-0.5,1.3-0.7,1.9c-0.3,0.2-0.5,0.3-0.8,0.5c-1,0.9-1.6,2.2-1.6,3.6v2.2c0,1.4,0.5,2.7,1.5,3.6c0.2,0.2,0.4,0.4,0.7,0.5
			v5.5c0,1.2,0.5,2.4,1.3,3.3c0.9,0.9,2.1,1.5,3.5,1.5h2.6c1.1,0,2.1-0.4,3-1c0.1,0,0.1-0.1,0.2-0.1c0.9,0.8,2,1.2,3.2,1.2h2.7
			c0.4,0,0.9-0.1,1.3-0.2c0.5-0.1,0.9-0.3,1.3-0.6l0.1-0.1l0.1-0.1c0.1-0.1,0.2-0.2,0.4-0.3c0.9,0.8,1.9,1.1,3.2,1.1h2.8
			c1.2,0,2.2-0.4,3.1-1.1c0.8,0.7,1.9,1.1,3.2,1.1h2.8c0.8,0,1.6-0.2,2.3-0.6c0.6,0.4,1.4,0.6,2.2,0.6h3.2c1.3,0,2.6-0.6,3.4-1.6
			c0.1-0.2,0.3-0.3,0.4-0.5c0.4,0.3,0.8,0.5,1.1,0.8c0.9,0.5,1.8,0.9,2.8,1.2c1,0.3,2,0.4,3.1,0.4c1.3,0,2.6-0.2,3.8-0.6
			c1.1-0.4,2.1-0.9,3-1.5c0.2-0.1,0.4-0.3,0.6-0.5c0.5,0.4,1,0.8,1.5,1.1c0.9,0.5,1.8,0.9,2.8,1.2c1,0.3,2.1,0.4,3.1,0.4
			c1.1,0,2.1-0.1,3.1-0.4c1-0.3,1.9-0.7,2.8-1.2c0.4-0.3,0.9-0.5,1.3-0.8c0.1,0.2,0.3,0.4,0.5,0.6c0.9,1,2.2,1.5,3.6,1.5h2.7
			c0.4,0,0.9-0.1,1.3-0.2c0.5-0.1,0.9-0.3,1.3-0.6l0.1-0.1l0.1-0.1c0.1-0.1,0.2-0.2,0.4-0.3c0.9,0.8,1.9,1.1,3.2,1.1h2.8
			c1.2,0,2.2-0.4,3.1-1.1c0.8,0.7,1.9,1.1,3.2,1.1h2.8c1.4,0,2.7-0.6,3.6-1.6c0.5-0.6,1.1-1.6,1.1-3.2v-7.9
			C370.7,171.1,370.5,169.9,370.2,168.7z M91.7,117.2c-0.7,2-1.7,3.6-2.9,5c-1.2,1.4-2.6,2.4-4.3,3.2c-1.6,0.8-3.4,1.1-5.5,1.1
			c-2.2,0-4.2-0.4-6.1-1.2c-2-0.9-3.7-2-5.1-3.4c-1.4-1.4-2.6-3.1-3.4-5c-0.8-1.9-1.2-3.9-1.2-6.2v-0.9c0.1-2,0.6-3.8,1.4-5.6
			c0.9-1.9,2.1-3.5,3.5-4.9c1.4-1.4,3.1-2.4,5-3.2c1.9-0.8,3.8-1.2,5.9-1.2c2.1,0,3.8,0.4,5.5,1.1c1.7,0.8,3.1,1.9,4.3,3.2
			c1.3,1.4,2.2,3.1,2.9,5c0.7,2,1.1,4.1,1.1,6.4C92.8,113,92.4,115.2,91.7,117.2z M341,164.2c-0.2-0.1-0.4-0.3-0.6-0.4h0.8
			C341.2,164,341.1,164.1,341,164.2z M217.2,117.3c-0.6,1.9-1.5,3.5-2.7,4.8c-1.1,1.3-2.5,2.3-4.1,3c-1.6,0.7-3.4,1.1-5.5,1.1
			c-2.2,0-4.1-0.4-5.8-1.1c-1.7-0.8-3.1-1.8-4.3-3.1c-1.2-1.4-2.1-2.9-2.8-4.9c-0.7-2-1.1-4.2-1.1-6.6c0-2.3,0.4-4.4,1.1-6.5
			c0.7-2,1.7-3.7,2.9-5.2c1.2-1.4,2.6-2.4,4.2-3.2c1.6-0.8,3.5-1.2,5.7-1.2c2.1,0,3.8,0.4,5.4,1.1c1.6,0.8,3,1.8,4.1,3.2
			c1.2,1.5,2.1,3.1,2.8,5.1c0.7,2.1,1,4.3,1,6.6C218.3,113,217.9,115.3,217.2,117.3z M226.5,60c-6.6-2.8-13.8-4.2-21.3-4.2
			c-5.1,0-10,0.6-14.7,1.9c-4.7,1.3-9.1,3.1-13.1,5.4c-4.1,2.3-7.8,5.2-11.1,8.5c-1.7,1.7-3.3,3.6-4.8,5.5c-0.9-0.4-1.8-0.7-2.8-0.9
			c0.5-2.6,1.1-5.1,2-7.6c2-5.6,4.8-10.8,8.5-15.3c3.1-3.9,6.8-7.2,11-10c4.6-3,9.7-5.2,15.1-6.4c3-0.7,6-1.1,9.1-1.1
			c0.3,0,0.6,0,1,0c3,0,6.1,0.3,9.2,0.9c3.8,0.8,7.4,2,10.9,3.8c4.1,2,7.9,4.6,11.2,7.7c3.1,2.9,5.9,6.2,8.2,9.9
			c2.8,4.4,4.9,9.3,6.3,14.6c0.4,1.5,0.7,3.1,1,4.6c-0.9,0.2-1.8,0.5-2.6,0.8c-1.7-2.3-3.5-4.5-5.6-6.5
			C238.9,66.7,233.1,62.8,226.5,60z M286,101.2l5.8,8.3l-6.6,9.3c0.6-3.5,1-7.1,1-10.9C286.3,105.5,286.1,103.2,286,101.2z
			 M315.7,162.2c-1,0.3-1.9,0.7-2.8,1.2c-0.9,0.5-1.6,1.1-2.4,1.8c-0.7,0.7-1.3,1.5-1.8,2.4c-0.5,0.9-0.9,1.8-1.2,2.8
			c-0.3,0.9-0.4,1.9-0.4,2.9h-2.1v-1c0-1.3-0.2-2.5-0.5-3.6c-0.4-1.3-0.9-2.4-1.6-3.4c-0.5-0.7-1.1-1.3-1.8-1.8
			c1.3-0.3,2.7-0.9,4.2-2.1c1.6-1.3,3-2.9,4-4.9l6.8-12.2l6.5,11.7c1.4,3.2,3.6,5.5,6.4,6.7c-0.4,0.2-0.8,0.4-1.2,0.6
			c-0.5,0.3-1.1,0.7-1.6,1.1c-0.3-0.3-0.6-0.6-1-0.8l0,0c-0.9-0.6-1.8-1-2.9-1.4c-1.1-0.3-2.3-0.5-3.6-0.5
			C317.8,161.8,316.7,161.9,315.7,162.2z"/>
		<g>
			<path class="st3" d="M113.6,76.7c-4-4.3-8.9-7.7-14.5-10.1C93.6,64.2,87.4,63,80.8,63c-3.8,0-7,0.5-9.6,1.5
				c-2.6,1-4.9,2.2-6.8,3.7c-1.9,1.5-3.5,3.1-4.9,4.9c-1.4,1.8-2.8,3.6-4.1,5.3l-3.1-8.8c-0.2-0.8-0.5-1.5-0.8-2.1
				c-0.3-0.7-0.6-1.2-1-1.7c-0.4-0.5-0.9-0.9-1.5-1.2c-0.6-0.3-1.4-0.4-2.3-0.4h-11c-0.6,0-1.3,0.1-2,0.2c-0.7,0.1-1.3,0.5-2,1
				c-0.5,0.5-1,1.1-1.3,1.7c-0.4,0.6-0.5,1.4-0.5,2.4v110.4c0,0.8,0.2,1.6,0.6,2.2c0.4,0.7,0.9,1.2,1.5,1.6c0.6,0.4,1.2,0.8,1.9,1
				c0.7,0.2,1.3,0.4,1.9,0.4h16.6c1.8,0,3.2-0.5,4.1-1.5c0.9-1,1.3-2.3,1.3-3.7v-33.9c1.3,1.5,2.6,2.9,4,4.4c1.4,1.5,2.9,2.8,4.7,4
				c1.8,1.2,3.8,2.2,6.1,2.9c2.3,0.7,5,1.1,8.1,1.1c6.6,0,12.8-1.2,18.3-3.7c5.6-2.5,10.4-5.8,14.5-10.1c4-4.3,7.2-9.3,9.5-15.2
				c2.3-5.8,3.4-12.1,3.4-18.7c0-6.7-1.1-13-3.4-18.8C120.8,86,117.7,81,113.6,76.7z M98.3,119.6c-1,2.8-2.4,5.2-4.3,7.3
				c-1.8,2.1-4,3.7-6.6,4.9c-2.6,1.2-5.4,1.8-8.5,1.8c-3.1,0-6.1-0.6-8.9-1.8c-2.8-1.2-5.3-2.8-7.3-4.9c-2.1-2.1-3.7-4.5-4.9-7.3
				c-1.2-2.8-1.8-5.8-1.8-9v-1.1c0.1-3,0.9-5.8,2.1-8.5c1.3-2.7,3-5,5-6.9c2.1-2,4.5-3.5,7.2-4.7c2.7-1.1,5.6-1.7,8.7-1.7
				c3.1,0,5.9,0.6,8.5,1.8c2.6,1.2,4.8,2.9,6.6,4.9c1.8,2.1,3.3,4.5,4.3,7.3c1,2.8,1.5,5.7,1.5,8.8
				C99.8,113.8,99.3,116.8,98.3,119.6z"/>
			<path class="st3" d="M272.6,134.2c0.2-0.8,0.5-1.4,0.8-2.1c0.2-0.4,0.4-0.9,0.6-1.3c1.7-3.8,2.9-7.8,3.8-11.9
				c0.8-3.7,1.1-7.4,1.2-11.2c0-2.1-0.1-4.1-0.2-6.2c-0.2-2.7-0.6-5.3-1.2-8c-0.2-1-0.5-2-0.5-3c-0.1-2.1-2-4.2-4.4-4.4
				c-0.6,0-1.1-0.1-1.7-0.2c-0.3,0-0.7,0-1-0.2c0-0.3,0-0.5,0-0.8c0-4.1-0.4-8.1-1.2-12.1c-1-5.4-2.6-10.6-4.8-15.6
				c-2.6-5.8-5.9-11.1-10-16c-4.3-5.2-9.3-9.6-15-13.3c-4.5-2.9-9.2-5.2-14.3-6.8c-4.9-1.6-9.9-2.6-15.1-3c-2.4-0.2-4.9-0.2-7.3-0.1
				c-4.1,0.2-8.1,0.8-12.1,1.7c-5.4,1.3-10.4,3.3-15.3,6c-5.4,3-10.2,6.6-14.5,10.9c-4.8,4.8-8.8,10.2-12,16.2
				c-2.8,5.4-4.9,11-6.3,16.9c-1,4.5-1.6,9.1-1.7,13.7c0,0.4,0,0.7-0.1,1.2c-0.3,0-0.6,0.1-1,0.1c-0.5,0.1-0.9,0.1-1.4,0.2
				c-1.4,0.2-2.5,0.9-3.3,2c-0.6,0.9-0.9,1.8-0.9,2.9c0,0.3,0,0.7-0.2,1c-1.6,3.9-2.3,7.9-2.5,12.1c-0.3,5.5,0.3,10.9,1.6,16.3
				c1.1,4.5,2.7,8.9,4.6,13.1c0.4,0.8,0.8,1.6,1.3,2.3c1.2,1.5,2.6,2.2,4.5,2c0.6-0.1,1.3-0.1,1.9-0.2c2.4-0.3,4.8-0.5,7.2-0.8
				c1.1-0.1,2.3-0.2,3.4-0.3c0.4,0,0.5-0.1,0.4-0.5c-0.2-1.5-0.3-3-0.5-4.6c-0.2-1.6-0.4-3.2-0.5-4.9c-0.3-2.4-0.5-4.8-0.7-7.2
				c-0.2-2.2-0.5-4.4-0.7-6.6c-0.2-1.7-0.3-3.4-0.5-5.1c-0.2-2.3-0.5-4.6-0.7-6.9c-0.1-1.3-0.3-2.6-0.4-3.9
				c-0.2-1.6-0.3-3.2-0.5-4.9c-0.2-1.9-0.4-3.8-0.6-5.7c-0.1-0.7-0.2-1.4-0.2-2c0.1-1.8,0.2-3.6,0.5-5.4c0.5-4,1.4-7.9,2.8-11.7
				c2.2-6.4,5.5-12.2,9.7-17.4c3.6-4.5,7.8-8.3,12.6-11.4c5.3-3.5,11.2-6,17.4-7.4c3.5-0.8,7-1.2,10.5-1.3c3.9-0.1,7.8,0.3,11.7,1.1
				c4.4,0.9,8.6,2.4,12.7,4.4c4.7,2.3,9,5.3,12.9,8.9c3.6,3.4,6.7,7.1,9.4,11.3c3.3,5.2,5.7,10.7,7.2,16.6c1.1,4.3,1.7,8.7,1.9,13.1
				c0,0.3,0,0.6,0,0.9c-0.1,1.1-0.2,2.3-0.3,3.4c-0.2,1.9-0.4,3.7-0.6,5.6c-0.2,2.5-0.5,5-0.7,7.5c-0.2,1.8-0.4,3.6-0.5,5.4
				c-0.2,1.9-0.3,3.7-0.5,5.6c-0.3,2.9-0.6,5.8-0.9,8.7c-0.2,2.5-0.5,4.9-0.7,7.4c-0.2,2.3-0.5,4.7-0.7,7c0,0.3,0,0.6,0,1
				c0.6,0.1,1.2,0.1,1.7,0.2c3.1,0.3,6.2,0.7,9.3,1c0.6,0.1,1.2,0.1,1.8,0.2C270.3,138.1,272.2,136,272.6,134.2z"/>
			<path class="st3" d="M256.6,84.5c-0.7-0.1-1.3-0.2-1.9-0.2c-3.1-0.2-5,2.2-5.2,4.3c-0.1,0.6-0.1,1.2-0.2,1.7
				c-0.1,0.7-0.1,1.4-0.2,2.1c-0.1-0.2-0.1-0.4-0.2-0.5C246.4,86,243,81,238.7,76.7c-4.3-4.3-9.3-7.7-15.1-10.1
				c-5.8-2.4-12-3.7-18.6-3.7c-4.5,0-8.7,0.6-12.8,1.7c-4.1,1.1-7.9,2.7-11.4,4.7c-3.5,2-6.7,4.5-9.6,7.4c-2.9,2.9-5.4,6.1-7.4,9.6
				c-0.8,1.4-1.6,2.9-2.2,4.4c0-0.4-0.1-0.8-0.1-1.2c-0.1-0.7-0.1-1.5-0.3-2.2c-0.4-2.2-2.4-4-4.6-4c-1.1,0-2.1,0.2-3.3,0.3
				c0,0.3,0,0.5,0,0.7c0.1,0.9,0.2,1.7,0.3,2.6c0.2,2.1,0.5,4.2,0.7,6.4c0.2,2.2,0.5,4.4,0.7,6.6c0.2,1.7,0.4,3.4,0.6,5.1
				c0.2,1.6,0.4,3.1,0.5,4.7c0.2,1.8,0.4,3.6,0.6,5.4c0.3,2.6,0.6,5.3,0.9,7.9c0.1,1.2,0.3,2.5,0.4,3.7c0.2,1.7,0.4,3.4,0.5,5.1
				c0.1,1,0.2,2,0.3,3c0,0.3,0.1,0.4,0.5,0.4c0.7-0.1,1.4-0.1,2-0.2c0.7-0.1,1.4-0.4,2-0.9c0.2,0.3,0.3,0.6,0.5,0.9
				c2.1,3.5,4.5,6.7,7.4,9.6c2.9,2.9,6.1,5.4,9.6,7.4c3.5,2.1,7.4,3.6,11.4,4.8c4.1,1.1,8.4,1.7,12.8,1.7c4.4,0,8.6-0.6,12.7-1.7
				c4-1.1,7.8-2.7,11.4-4.8c3.5-2.1,6.7-4.5,9.6-7.4c2.9-2.9,5.4-6.1,7.4-9.6c0.1-0.2,0.2-0.4,0.3-0.6c0.6,0.7,1.4,1.2,2.3,1.5
				c0.8,0.2,1.7,0.2,2.5,0.3c0-0.1,0.1-0.2,0.1-0.2c1.8-17,3.5-34,5.3-51.1C256.7,84.7,256.6,84.7,256.6,84.5z M223.9,119.6
				c-0.9,2.8-2.3,5.2-4.1,7.2c-1.8,2-3.9,3.6-6.5,4.8c-2.5,1.2-5.4,1.8-8.5,1.8c-3.2,0-6.2-0.6-8.8-1.8c-2.6-1.2-4.8-2.8-6.6-4.8
				c-1.8-2-3.2-4.4-4.2-7.2c-1-2.8-1.5-5.8-1.5-9c0-3.1,0.5-6.1,1.5-8.9c1-2.8,2.4-5.3,4.2-7.4c1.8-2.1,4-3.8,6.6-5.1
				c2.6-1.2,5.5-1.9,8.8-1.9c3.1,0,6,0.6,8.5,1.9c2.5,1.2,4.7,2.9,6.5,5.1c1.8,2.1,3.1,4.6,4.1,7.4c0.9,2.8,1.4,5.8,1.4,8.9
				C225.3,113.8,224.8,116.8,223.9,119.6z"/>
			<path class="st3" d="M329,152.9c1.1,2.5,2.7,3.8,4.9,3.8h23.5c1.5,0,2.7-0.3,3.3-0.8c0.7-0.5,1-1.1,1.1-1.9
				c0-0.8-0.1-1.6-0.5-2.5c-0.4-0.9-0.9-1.8-1.5-2.6l-28.3-39.5l28.4-40.1c0.6-0.7,0.9-1.3,0.9-1.9c0-0.6-0.1-1.1-0.4-1.5
				c-0.3-0.4-0.7-0.8-1.2-1c-0.5-0.2-1.1-0.4-1.6-0.4h-23c-1,0-1.8,0.3-2.5,0.8c-0.7,0.6-1.5,1.5-2.3,2.7c-0.9,1.4-1.9,3.1-3.1,5.2
				c-1.2,2-2.4,4.1-3.7,6.3c-1.3,2.2-2.5,4.2-3.7,6.2c-1.2,2-2.3,3.7-3.2,5l-13.9-22.5c-0.8-1.1-1.5-2-2.1-2.7
				c-0.6-0.7-1.3-1.1-2.1-1.1h-22.8c-1.3,0-2.2,0.2-2.8,0.6c-0.6,0.4-0.9,0.9-0.9,1.5c-0.1,0.6,0.1,1.3,0.4,2c0.3,0.7,0.8,1.4,1.2,2
				l27.4,38.9l-28.9,40.8c-0.3,0.4-0.6,1-1,1.6c-0.4,0.7-0.5,1.3-0.4,2l0.1,0.7c0.3,0.8,0.8,1.3,1.2,1.6c0.5,0.3,1.1,0.4,1.7,0.4
				h25.3c0.8,0,1.6-0.3,2.4-0.9c0.8-0.6,1.5-1.5,2-2.5l13.1-23.5L329,152.9z"/>
			<path class="st3" d="M275.8,166.9h-1.3v-0.8c0-0.1,0-0.2,0-0.2c0-0.1,0.1-0.1,0.2-0.2c0.1-0.1,0.2-0.1,0.3-0.2
				c0.1,0,0.2-0.1,0.3-0.1h0.2c0.4,0,0.8-0.2,1.1-0.5c0.2-0.3,0.4-0.7,0.4-1.1v-2.3c0-0.4-0.1-0.8-0.4-1c-0.2-0.2-0.5-0.4-1-0.4
				h-0.2c-0.8,0-1.6,0.2-2.4,0.5c-0.8,0.3-1.4,0.7-2,1.3c-0.6,0.5-1.1,1.2-1.4,1.9c-0.4,0.7-0.5,1.5-0.5,2.3v0.8h-0.7
				c-0.4,0-0.8,0.1-1,0.4c-0.3,0.3-0.4,0.6-0.4,1.1v2.2c0,0.5,0.1,0.9,0.4,1.2c0.3,0.3,0.6,0.4,1.1,0.4h0.7v8.1c0,0.4,0.1,0.8,0.4,1
				c0.3,0.3,0.7,0.4,1.1,0.4h2.6c0.4,0,0.7-0.1,1-0.3c0.2-0.2,0.5-0.5,0.5-1.1v-8.1h1.3c0.5,0,0.9-0.2,1-0.4
				c0.2-0.3,0.4-0.6,0.4-1.1v-2.2c0-0.5-0.1-0.8-0.4-1.1C276.6,167.1,276.2,166.9,275.8,166.9z"/>
			<path class="st3" d="M300.2,167.3c-0.5-0.7-1.1-1.2-1.9-1.6c-0.8-0.4-1.6-0.6-2.6-0.6c-0.6,0-1.2,0.1-1.8,0.2
				c-0.6,0.2-1.1,0.4-1.5,0.6c-0.5,0.2-0.9,0.5-1.2,0.8c-0.1,0.1-0.2,0.2-0.3,0.3c-0.1-0.2-0.3-0.3-0.4-0.5c-0.3-0.3-0.7-0.6-1-0.8
				c-0.4-0.2-0.8-0.4-1.3-0.5c-0.5-0.1-1-0.2-1.5-0.2c-0.7,0-1.3,0.1-1.8,0.2c-0.5,0.2-1,0.4-1.4,0.6c-0.3,0.2-0.6,0.4-0.8,0.7
				c0-0.1-0.1-0.2-0.1-0.3c-0.1-0.2-0.2-0.3-0.3-0.4c-0.1-0.1-0.3-0.3-0.4-0.4c-0.2-0.1-0.4-0.1-0.6-0.1h-1.8c-0.1,0-0.3,0-0.4,0
				c-0.2,0-0.4,0.1-0.6,0.3l0,0c-0.1,0.1-0.3,0.3-0.3,0.4c-0.1,0.2-0.2,0.4-0.2,0.7v13.5c0,0.4,0.1,0.8,0.4,1
				c0.3,0.3,0.6,0.4,1.2,0.4h2.7c0.2,0,0.3,0,0.5-0.1c0.1,0,0.3-0.1,0.5-0.2c0.2-0.1,0.3-0.3,0.4-0.6c0.1-0.2,0.1-0.4,0.1-0.6v-7.9
				c0-0.3,0.1-0.5,0.2-0.8c0.1-0.2,0.3-0.4,0.4-0.6c0.2-0.2,0.4-0.3,0.6-0.4c0.2-0.1,0.4-0.1,0.6-0.1c0.3,0,0.5,0,0.7,0.1
				c0.2,0.1,0.4,0.2,0.5,0.4c0.1,0.2,0.3,0.4,0.3,0.6c0.1,0.2,0.1,0.5,0.1,0.8v8c0,0.5,0.1,0.9,0.4,1.1c0.2,0.2,0.6,0.3,1.1,0.3h2.8
				c0.6,0,0.9-0.2,1.1-0.4c0.2-0.3,0.3-0.6,0.3-1v-7.9c0-0.3,0-0.6,0.1-0.8c0.1-0.2,0.2-0.4,0.4-0.6c0.2-0.2,0.3-0.3,0.6-0.4
				c0.2-0.1,0.4-0.1,0.6-0.1c0.3,0,0.5,0,0.7,0.1c0.2,0.1,0.4,0.2,0.5,0.4c0.1,0.2,0.3,0.4,0.3,0.6c0.1,0.2,0.1,0.5,0.1,0.8v8
				c0,0.5,0.1,0.9,0.4,1.1c0.2,0.2,0.6,0.3,1.1,0.3h2.8c0.6,0,0.9-0.2,1.1-0.4c0.2-0.3,0.3-0.6,0.3-1v-7.9c0-1-0.1-1.9-0.4-2.8
				C301.1,168.7,300.7,168,300.2,167.3z"/>
			<path class="st3" d="M307.9,176.6h-3.2c-0.4,0-0.7,0.2-0.8,0.3c-0.1,0.1-0.3,0.4-0.3,0.8v2.9c0,0.7,0.4,1.1,1.1,1.1h3.2
				c0.4,0,0.7-0.2,0.8-0.4c0.2-0.2,0.3-0.5,0.3-0.7v-2.9c0-0.3-0.1-0.6-0.4-0.8C308.4,176.7,308.2,176.6,307.9,176.6z"/>
			<path class="st3" d="M324.2,178.5l-1.3-2c-0.2-0.3-0.4-0.5-0.6-0.6c-0.2-0.1-0.4-0.1-0.6-0.1c-0.1,0-0.2,0-0.3,0
				c-0.2,0-0.4,0.1-0.5,0.2c-0.3,0.2-0.7,0.4-1,0.6c-0.3,0.1-0.7,0.2-1.1,0.2c-0.4,0-0.8-0.1-1.2-0.2c-0.4-0.2-0.7-0.4-0.9-0.7
				c-0.3-0.3-0.5-0.6-0.6-1c-0.1-0.4-0.2-0.8-0.2-1.3c0-0.4,0.1-0.9,0.2-1.3c0.1-0.4,0.3-0.8,0.6-1.1c0.2-0.3,0.6-0.5,0.9-0.7
				c0.3-0.2,0.7-0.3,1.2-0.3c0.4,0,0.8,0.1,1.1,0.2c0.4,0.1,0.7,0.3,1,0.5c0.2,0.1,0.3,0.2,0.5,0.3c0.2,0.1,0.3,0.1,0.4,0.1
				c0.4,0,0.9-0.2,1.3-0.9l1.1-1.8c0.2-0.2,0.2-0.5,0.2-0.7c0-0.3-0.1-0.6-0.3-0.9c-0.1-0.2-0.3-0.4-0.6-0.5l0,0
				c-0.7-0.5-1.4-0.8-2.2-1.1c-0.8-0.2-1.7-0.4-2.6-0.4c-0.8,0-1.5,0.1-2.2,0.3c-0.7,0.2-1.4,0.5-2,0.8c-0.6,0.4-1.2,0.8-1.7,1.3
				c-0.5,0.5-1,1.1-1.3,1.7c-0.4,0.6-0.6,1.3-0.8,2c-0.2,0.7-0.3,1.5-0.3,2.3c0,0.8,0.1,1.6,0.3,2.3c0.2,0.7,0.5,1.4,0.8,2
				c0.4,0.6,0.8,1.2,1.3,1.7c0.5,0.5,1.1,0.9,1.7,1.3c0.6,0.4,1.3,0.6,2,0.8c0.7,0.2,1.5,0.3,2.2,0.3c0.9,0,1.8-0.2,2.7-0.4
				c0.8-0.3,1.6-0.7,2.3-1.2c0.2-0.1,0.3-0.2,0.5-0.4c0.2-0.2,0.3-0.5,0.3-0.8c0-0.1,0-0.3-0.1-0.4
				C324.3,178.7,324.3,178.6,324.2,178.5z"/>
			<path class="st3" d="M339.7,167.5c-0.8-0.8-1.7-1.4-2.7-1.8c-1-0.4-2.1-0.7-3.3-0.7c-0.8,0-1.5,0.1-2.3,0.3
				c-0.7,0.2-1.4,0.5-2,0.8c-0.6,0.4-1.2,0.8-1.7,1.3c-0.5,0.5-0.9,1.1-1.3,1.7c-0.4,0.6-0.6,1.3-0.9,2c-0.2,0.7-0.3,1.5-0.3,2.3
				c0,0.8,0.1,1.5,0.3,2.3c0.2,0.7,0.5,1.4,0.8,2c0.4,0.6,0.8,1.2,1.3,1.7c0.5,0.5,1.1,1,1.7,1.3c0.6,0.4,1.3,0.6,2,0.8
				c0.7,0.2,1.5,0.3,2.3,0.3c0.8,0,1.5-0.1,2.2-0.3c0.7-0.2,1.4-0.5,2-0.8c0.6-0.4,1.2-0.8,1.7-1.3c0.5-0.5,1-1.1,1.3-1.7
				c0.4-0.6,0.6-1.3,0.8-2c0.2-0.7,0.3-1.5,0.3-2.3c0-1.2-0.2-2.3-0.7-3.3C341,169.2,340.4,168.3,339.7,167.5z M336.3,174.9
				c-0.1,0.4-0.3,0.7-0.6,1c-0.2,0.3-0.5,0.5-0.9,0.7c-0.3,0.2-0.7,0.2-1.2,0.2c-0.5,0-0.9-0.1-1.2-0.2c-0.4-0.2-0.7-0.4-0.9-0.7
				c-0.3-0.3-0.5-0.6-0.6-1c-0.1-0.4-0.2-0.8-0.2-1.3c0-0.4,0.1-0.9,0.2-1.3c0.1-0.4,0.3-0.8,0.6-1.1c0.2-0.3,0.6-0.5,0.9-0.7
				c0.4-0.2,0.8-0.3,1.2-0.3c0.4,0,0.8,0.1,1.2,0.3c0.4,0.2,0.6,0.4,0.9,0.7c0.2,0.3,0.4,0.7,0.6,1.1c0.1,0.4,0.2,0.8,0.2,1.3
				C336.5,174,336.4,174.5,336.3,174.9z"/>
			<path class="st3" d="M366.9,169.6c-0.2-0.9-0.6-1.7-1.1-2.3c-0.5-0.7-1.1-1.2-1.9-1.6c-0.8-0.4-1.6-0.6-2.6-0.6
				c-0.6,0-1.2,0.1-1.8,0.2c-0.5,0.2-1.1,0.4-1.5,0.6c-0.5,0.2-0.9,0.5-1.2,0.8c-0.1,0.1-0.2,0.2-0.3,0.3c-0.1-0.2-0.3-0.3-0.4-0.5
				c-0.3-0.3-0.7-0.6-1-0.8c-0.4-0.2-0.8-0.4-1.3-0.5c-0.5-0.1-1-0.2-1.5-0.2c-0.7,0-1.3,0.1-1.8,0.2c-0.5,0.2-1,0.4-1.4,0.6
				c-0.3,0.2-0.6,0.4-0.8,0.7c0-0.1-0.1-0.2-0.1-0.3c-0.1-0.2-0.2-0.3-0.3-0.4c-0.1-0.1-0.3-0.3-0.4-0.4c-0.2-0.1-0.4-0.1-0.6-0.1
				h-1.8c-0.1,0-0.3,0-0.4,0c-0.2,0-0.4,0.1-0.6,0.3l0,0c-0.1,0.1-0.3,0.3-0.3,0.4c-0.1,0.2-0.2,0.4-0.2,0.7v13.5
				c0,0.4,0.1,0.8,0.4,1c0.3,0.3,0.6,0.4,1.2,0.4h2.7c0.2,0,0.3,0,0.5-0.1c0.1,0,0.3-0.1,0.5-0.2c0.2-0.1,0.3-0.3,0.4-0.6
				c0.1-0.2,0.1-0.4,0.1-0.6v-7.9c0-0.3,0.1-0.5,0.2-0.8c0.1-0.2,0.3-0.4,0.4-0.6c0.2-0.2,0.4-0.3,0.6-0.4c0.2-0.1,0.4-0.1,0.6-0.1
				c0.3,0,0.5,0,0.7,0.1c0.2,0.1,0.4,0.2,0.5,0.4c0.1,0.2,0.3,0.4,0.3,0.6c0.1,0.2,0.1,0.5,0.1,0.8v8c0,0.5,0.1,0.9,0.4,1.1
				c0.2,0.2,0.6,0.3,1.1,0.3h2.8c0.6,0,0.9-0.2,1.1-0.4c0.2-0.3,0.3-0.6,0.3-1v-7.9c0-0.3,0-0.5,0.1-0.8c0.1-0.2,0.2-0.4,0.4-0.6
				c0.2-0.2,0.3-0.3,0.6-0.4c0.2-0.1,0.4-0.1,0.6-0.1c0.3,0,0.5,0,0.7,0.1c0.2,0.1,0.4,0.2,0.5,0.4c0.1,0.2,0.3,0.4,0.3,0.6
				c0.1,0.2,0.1,0.5,0.1,0.8v8c0,0.5,0.1,0.9,0.4,1.1c0.2,0.2,0.6,0.3,1.1,0.3h2.8c0.6,0,0.9-0.2,1.1-0.4c0.2-0.3,0.3-0.6,0.3-1
				v-7.9C367.3,171.4,367.1,170.5,366.9,169.6z"/>
		</g>
	</g>
</g>
</svg>
