<?xml version="1.0" encoding="utf-8"?>
<!-- Generator: Adobe Illustrator 26.5.0, SVG Export Plug-In . SVG Version: 6.00 Build 0)  -->
<svg version="1.1" id="Capa_1" xmlns="http://www.w3.org/2000/svg" xmlns:xlink="http://www.w3.org/1999/xlink" x="0px" y="0px"
	 viewBox="0 0 521 281.44" style="enable-background:new 0 0 521 281.44;" xml:space="preserve">
<style type="text/css">
	.st0{fill:#086735;stroke:#FFFFFF;stroke-width:15;stroke-miterlimit:10;}
	.st1{fill:#FBBF07;stroke:#FFFFFF;stroke-width:15;stroke-miterlimit:10;}
	.st2{fill:#FFFFFF;stroke:#FFFFFF;stroke-width:15;stroke-miterlimit:10;}
	.st3{fill:#086735;}
	.st4{fill:#FBBF07;}
	.st5{fill:#FFFFFF;}
</style>
<g>
	<g>
		<path class="st0" d="M354.14,211.88c-0.26-0.77-2.69-7.74-9.16-9.73c-1.46-0.45-2.76-0.53-3.67-0.52
			c-1.6-1.05-3.38-1.79-5.27-2.19c-0.14-0.23-0.28-0.46-0.43-0.69c-2.49-3.82-6.3-6.5-10.71-7.53c-0.31-0.07-0.63-0.14-0.95-0.19
			c-0.55-0.72-1.18-1.41-1.87-2.05c-1.7-1.57-3.76-2.9-6.13-3.93c-0.07-0.03-0.13-0.06-0.2-0.08l0,0c0.2-0.86,0.35-1.7,0.47-2.54
			l0.02-0.18c0.47-3.88,0.1-7.43-1.1-10.56c-1.37-3.55-3.69-6.53-6.75-8.62c-2.55-1.75-5.47-2.87-8.68-3.33
			c-1.75-0.25-3.54-0.32-5.34-0.2c-0.79,0.05-1.59,0.14-2.38,0.26l-0.13,0.02c-0.69,0.11-1.38,0.25-2.05,0.41
			c6.67-3.57,12.36-7.76,16.93-12.45c4.61-4.74,8.22-9.78,10.73-14.99l0.05-0.1c1.98-4.22,3.38-8.5,4.15-12.75
			c0.8-4.42,0.94-8.73,0.43-12.82l0-0.03c-1.23-9.62-5.58-17.6-12.59-23.08c-4.74-3.7-10.29-5.82-16.49-6.3
			c-1.44-0.11-2.92-0.12-4.39-0.02c-3.33,0.22-6.76,0.98-10.24,2.26c-0.37-0.92-0.81-1.82-1.33-2.72c-2.13-3.68-5.22-6.77-9.19-9.19
			c-3.7-2.25-7.8-3.65-12.19-4.17c-1.58-0.19-3.18-0.23-4.75-0.12c-3.32,0.22-6.57,1.08-9.66,2.56c-4.75,2.28-8.66,6.12-11.61,11.42
			c-0.68-4.76-2.35-9.11-4.97-12.95c-3.17-4.63-7.82-8.03-13.46-9.84l-0.27-0.09l-0.27-0.07c-2.95-0.8-5.89-1.12-8.73-0.93
			c-2.9,0.19-5.7,0.9-8.33,2.1c-0.73,0.33-1.44,0.69-2.13,1.08c0.97-5.31,0.2-10.61-2.24-15.39c-2.4-4.7-5.98-8.44-10.64-11.12
			c-4.66-2.68-9.8-3.85-15.27-3.49c-0.09,0.01-0.18,0.01-0.27,0.02c-5.94,0.45-11.43,3-16.32,7.57c-3.69,3.45-6.62,8.07-8.9,14.06
			c-1.03-1.7-2.2-3.3-3.52-4.81c-4.81-5.48-11.08-9.07-18.63-10.66c-3.27-0.69-6.74-0.92-10.31-0.68
			c-4.11,0.27-8.47,1.17-12.95,2.68l-0.12,0.04c-11.41,3.95-21.58,9.95-30.24,17.83c-8.48,7.72-15.52,16.87-20.92,27.19
			c-5.33,10.17-9.04,21.2-11.05,32.79c-0.51,2.89-0.8,5.9-0.88,8.94c-0.2,4.77,0.03,9.73,0.68,14.75
			c0.68,5.19,1.88,10.27,3.59,15.11c1.85,5.26,4.42,10.07,7.63,14.27c3.57,4.68,8.08,8.42,13.39,11.1
			c5.46,2.77,11.81,4.09,18.85,3.94l0.18-0.01c0.4-0.02,0.8-0.04,1.2-0.06c4.88-0.32,9.78-1.56,14.55-3.68
			c4.72-2.1,9.27-4.94,13.54-8.45c5.55-4.52,10.5-9.37,14.72-14.43c1.17-1.4,2.29-2.82,3.37-4.26c0.34,4.23,0.97,8.06,1.9,11.56
			l0.05,0.18l0.05,0.17c0.93,3.11,3.25,7.47,9.04,10.54c2.76,1.46,5.93,2.52,9.44,3.13c2.73,0.48,5.48,0.62,8.2,0.45
			c0.71-0.05,1.44-0.12,2.15-0.21c4.24-0.56,8.05-2.04,11.32-4.4c3.6-2.6,6.08-6.19,7.28-10.49c3,4.68,7.26,8.11,12.31,9.93
			c3.68,1.33,7.52,1.87,11.4,1.62c0.8-0.05,1.62-0.14,2.41-0.26c3.4-0.51,6.52-1.57,9.34-3.16c-1.35,10.6-2.12,20.67-2.29,29.97
			c-0.19,11.02,0.74,20.12,2.85,27.81l0.1,0.38l0.13,0.38c1.53,4.43,4.86,7.92,9.89,10.39c3.08,1.51,6.65,2.59,10.63,3.22
			c3.43,0.54,6.9,0.7,10.31,0.48c0.31-0.02,0.62-0.04,0.93-0.07c4.65-0.4,8.81-1.72,12.37-3.91c5.07-3.13,8.3-8.14,9.09-14.11
			l0.04-0.26l0.01-0.08c-0.01,0.42-0.01,0.84,0,1.26c0.03,4.44,0.49,8.22,1.41,11.57l0.09,0.32l0.11,0.32
			c0.82,2.46,2.7,5.9,7.03,8.34c1.9,1.07,4.04,1.83,6.36,2.27c1.8,0.34,3.63,0.45,5.44,0.33c0.45-0.03,0.91-0.08,1.37-0.13
			c3.12-0.41,6.04-1.61,8.46-3.48c2.69-2.08,4.58-4.95,5.46-8.24c0.43,0.2,0.88,0.38,1.35,0.55c2.62,0.97,5.66,1.39,9.58,1.3
			l0.27-0.01l0.76-0.05c0.28-0.01,0.55-0.02,0.81-0.04c0.85-0.06,1.62-0.16,2.34-0.31c2.17-0.46,4.17-1.42,5.87-2.81
			c2.11,1.05,4.38,1.68,6.76,1.87c0.86,0.07,1.71,0.08,2.54,0.02c2.62-0.17,5.04-0.95,7.19-2.31l0.54-0.35l0.51-0.4
			c0.33-0.26,0.66-0.54,0.98-0.84c1.2,0.15,2.4,0.19,3.6,0.11c1.83-0.12,3.64-0.51,5.38-1.16c3.19-1.19,5.9-3.13,8.06-5.74
			l0.15-0.18l0.14-0.19C352.98,224.66,356.42,218.76,354.14,211.88z M217.34,111.74c-0.03-0.05-0.07-0.1-0.1-0.15
			c0.06-0.05,0.12-0.09,0.18-0.14C217.4,111.55,217.37,111.64,217.34,111.74z"/>
		<g>
			<path class="st1" d="M73.17,169.67c-5,0.11-9.33-0.76-12.97-2.6c-3.64-1.84-6.68-4.36-9.11-7.55c-2.44-3.19-4.36-6.81-5.78-10.85
				c-1.42-4.04-2.42-8.24-2.99-12.6c-0.57-4.35-0.77-8.59-0.59-12.71c0.06-2.48,0.3-4.89,0.7-7.23c1.79-10.37,5.06-20.08,9.81-29.15
				C57,77.91,63.09,69.99,70.52,63.22c7.43-6.77,16.08-11.86,25.93-15.27c6.28-2.1,11.86-2.64,16.74-1.61
				c4.88,1.03,8.83,3.26,11.84,6.69c3.01,3.43,4.83,7.7,5.45,12.81c0.62,5.11-0.19,10.73-2.43,16.84c-1.25,3.29-2.78,5.69-4.59,7.19
				c-1.82,1.5-3.68,2.3-5.58,2.4c-1.91,0.1-3.64-0.28-5.18-1.14c-1.55-0.85-2.71-2-3.48-3.44c-0.77-1.44-0.93-2.94-0.47-4.49
				c1.86-5.87,3.02-10.69,3.48-14.46c0.45-3.77,0.14-6.2-0.95-7.29c-1.08-1.08-2.98-0.55-5.68,1.6c-2.7,2.15-6.25,6.21-10.64,12.19
				c-2.69,3.67-5.53,8.26-8.55,13.78c-3.01,5.52-5.87,11.52-8.56,18.01c-2.7,6.48-4.92,12.92-6.66,19.32
				c-1.75,6.39-2.67,12.27-2.76,17.62c0.03,4.73,1.02,7.97,2.97,9.73c1.94,1.76,4.38,2.24,7.32,1.46c2.93-0.78,5.88-2.65,8.83-5.61
				c3.85-3.86,7.66-7.84,11.41-11.95c3.75-4.1,6.62-7.35,8.6-9.73c1.51-1.79,2.97-2.7,4.38-2.74c1.4-0.04,2.63,0.43,3.68,1.4
				c1.05,0.97,1.79,2.12,2.21,3.44c0.43,1.32,0.39,2.48-0.11,3.47c-2.72,4.91-5.94,9.6-9.67,14.07c-3.73,4.47-8.08,8.73-13.05,12.77
				c-3.42,2.82-6.99,5.05-10.7,6.7C80.59,168.65,76.88,169.54,73.17,169.67z"/>
			<path class="st1" d="M158.69,157.6c-0.31,2.16-1.25,3.81-2.84,4.96c-1.59,1.15-3.47,1.86-5.64,2.15
				c-2.18,0.28-4.38,0.23-6.6-0.15c-2.22-0.39-4.13-1.01-5.74-1.86c-1.61-0.85-2.59-1.88-2.95-3.1c-1.43-5.37-2-12.11-1.72-20.24
				c0.28-8.13,1.14-16.95,2.6-26.48c1.45-9.53,3.3-19.11,5.53-28.74c2.23-9.63,4.62-18.65,7.16-27.04
				c1.76-5.69,4.04-9.84,6.82-12.44c2.78-2.6,5.7-4.02,8.76-4.25c3.05-0.23,5.85,0.39,8.4,1.85c2.55,1.47,4.47,3.46,5.76,6
				c1.29,2.53,1.61,5.23,0.96,8.09c-4.11,16.21-8.15,33.91-12.11,53.12C163.11,128.66,160.31,144.71,158.69,157.6z"/>
			<path class="st1" d="M185.12,118.02c0.87-1.24,2.21-2.13,4-2.67c1.79-0.54,3.79-0.76,6-0.65c2.2,0.11,4.31,0.5,6.33,1.19
				c2.02,0.68,3.64,1.63,4.88,2.84c1.23,1.21,1.79,2.61,1.67,4.2c-0.53,4.71-0.89,7.86-1.06,9.44c-0.15,1.14-0.27,2.14-0.35,3.02
				c-0.08,0.88-0.21,2.11-0.39,3.7c-0.18,1.59-0.43,4.08-0.77,7.48c-0.17,1.65-0.38,3.6-0.63,5.87c-0.29,2.38-1.39,4.33-3.29,5.83
				c-1.9,1.51-4.17,2.46-6.82,2.86c-2.65,0.4-5.23,0.15-7.74-0.76c-2.51-0.9-4.53-2.56-6.07-4.96c-1.54-2.4-2.16-5.67-1.87-9.8
				c0.21-2.77,0.51-5.85,0.91-9.22c0.4-3.38,1.01-6.68,1.84-9.92C182.58,123.24,183.7,120.42,185.12,118.02z M207.47,67.72
				c3.05,0.98,5.38,2.66,7,5.03c1.62,2.37,2.62,5.09,2.99,8.16c0.37,3.07,0.2,6.18-0.52,9.32c-0.72,3.14-1.93,5.97-3.62,8.47
				c-1.69,2.51-3.79,4.39-6.3,5.65c-2.51,1.26-5.33,1.52-8.48,0.77c-3.49-0.89-6.14-2.52-7.92-4.88c-1.79-2.36-2.87-5.12-3.25-8.27
				c-0.38-3.16-0.14-6.34,0.72-9.55c0.86-3.21,2.22-6.09,4.07-8.63c1.86-2.54,4.09-4.41,6.68-5.59
				C201.44,67.02,204.32,66.86,207.47,67.72z"/>
			<path class="st1" d="M247.56,223.17c-0.3,2.27-1.4,3.99-3.29,5.16c-1.89,1.17-4.2,1.87-6.91,2.1c-2.72,0.24-5.45,0.13-8.21-0.3
				c-2.76-0.44-5.13-1.14-7.11-2.11c-1.98-0.97-3.18-2.06-3.59-3.27c-1.78-6.47-2.58-14.57-2.41-24.29
				c0.17-9.72,1.03-20.21,2.56-31.46c1.54-11.25,3.52-22.36,5.95-33.33c2.43-10.97,5.02-20.91,7.78-29.82
				c2.76-8.91,5.47-15.87,8.12-20.89c1.7-3.15,3.79-5.32,6.24-6.49c2.46-1.18,4.99-1.61,7.6-1.3c2.61,0.31,5,1.12,7.17,2.44
				c2.17,1.32,3.8,2.92,4.88,4.79c1.08,1.87,1.35,3.78,0.8,5.73c-0.75,2.36-1.49,5.19-2.22,8.51c-0.75,3.09-1.18,5.19-1.27,6.29
				c-0.1,1.1,0.11,1.5,0.63,1.18c0.51-0.32,1.27-1.01,2.27-2.09c0.78-0.95,1.76-1.95,2.93-2.98c3.12-3.02,6.59-5.45,10.41-7.28
				c4.42-2.09,8.5-3,12.24-2.71c3.74,0.29,7,1.52,9.79,3.7c4.45,3.48,7.09,8.43,7.91,14.85c0.36,2.85,0.25,5.87-0.33,9.06
				c-0.58,3.19-1.63,6.41-3.16,9.67c-1.93,4.01-4.74,7.91-8.43,11.71c-3.69,3.79-8.32,7.18-13.9,10.17
				c-5.57,2.99-12.22,5.33-19.93,7.02c-2.34,0.44-4.2,0.97-5.6,1.59c-1.39,0.63-2.46,1.58-3.19,2.87c-0.73,1.29-1.24,3.18-1.52,5.68
				C250.99,189.39,248.92,207.99,247.56,223.17z M259.57,139.19c-0.93,2.15-1.48,3.77-1.66,4.88c-0.18,1.11,0.2,1.76,1.14,1.95
				c0.94,0.19,2.6-0.02,4.98-0.63c5.64-1.5,10.52-3.38,14.62-5.65c4.1-2.27,7.5-4.79,10.18-7.56c2.69-2.77,4.75-5.61,6.19-8.52
				c2.12-4.59,2.93-8.84,2.45-12.75c-0.44-3.29-1.62-5.72-3.52-7.28c-0.89-0.67-2.05-1.02-3.49-1.04c-1.44-0.02-3.11,0.43-5.02,1.35
				c-3.87,1.94-7.4,4.77-10.59,8.47c-3.19,3.7-6.05,7.89-8.59,12.56C263.74,129.65,261.51,134.39,259.57,139.19z"/>
		</g>
		<g>
			<path class="st2" d="M273.29,237.56c-0.69-2.53-1.05-5.64-1.07-9.33c-0.02-3.69,0.2-7.72,0.67-12.08
				c0.47-4.36,1.13-8.81,1.96-13.35c0.02-0.17,0.05-0.34,0.09-0.5c0.12-0.64,0.17-1.11,0.14-1.4c-0.03-0.29-0.26-0.47-0.68-0.54
				c-0.42-0.07-1.13-0.1-2.12-0.09c-0.78,0-1.31-0.31-1.6-0.91c-0.29-0.6-0.4-1.31-0.35-2.11c0.06-0.81,0.23-1.51,0.5-2.11
				c0.28-0.6,0.6-0.91,0.96-0.93c1.38,0.02,2.43-0.04,3.14-0.19c0.71-0.14,1.24-0.51,1.59-1.1c0.35-0.59,0.67-1.55,0.97-2.87
				c0.54-2.3,1.36-4.59,2.45-6.85c1.1-2.26,2.45-4.35,4.05-6.27c1.6-1.92,3.43-3.53,5.49-4.85c2.06-1.31,4.33-2.18,6.82-2.59
				c1.56-0.24,3.07-0.26,4.52-0.05c1.45,0.21,2.72,0.69,3.81,1.43c1.09,0.74,1.89,1.79,2.41,3.14c0.52,1.35,0.65,3.06,0.4,5.12
				c-0.17,1.23-0.48,2.51-0.95,3.84c-0.19,0.51-0.64,0.85-1.34,1.02c-0.71,0.17-1.46,0.17-2.24,0c-0.79-0.17-1.4-0.52-1.86-1.06
				c-0.45-0.54-0.51-1.27-0.19-2.21c0.65-1.9,0.81-3.3,0.49-4.2c-0.32-0.91-0.88-1.26-1.67-1.05c-0.79,0.2-1.59,1-2.42,2.38
				c-1.09,1.98-2.09,4.33-3.02,7.05c-0.93,2.72-1.53,5.08-1.81,7.09c-0.03,0.36,0.06,0.63,0.28,0.81c0.22,0.18,0.62,0.26,1.2,0.25
				c0.91-0.03,1.78-0.05,2.61-0.05l0.04,0c0.89,0.05,1.49,0.38,1.81,0.98c0.32,0.6,0.43,1.3,0.35,2.09
				c-0.09,0.79-0.29,1.49-0.61,2.1c-0.32,0.6-0.67,0.92-1.06,0.94c-1.36-0.02-2.84,0.01-4.44,0.09c-0.66,0.02-1.14,0.14-1.43,0.39
				c-0.29,0.24-0.49,0.68-0.62,1.33c-1.28,6.59-2.43,13.04-3.45,19.35c-1.02,6.31-1.76,11.75-2.2,16.32
				c-0.12,1.11-0.56,1.97-1.33,2.56c-0.76,0.59-1.68,0.96-2.75,1.1c-1.07,0.14-2.15,0.11-3.24-0.1c-1.09-0.2-2.03-0.53-2.83-0.98
				C273.99,238.72,273.49,238.18,273.29,237.56z"/>
			<path class="st2" d="M305.07,199.9c0.53-1.58,1.35-2.69,2.46-3.32c1.11-0.63,2.33-0.9,3.68-0.82c1.35,0.08,2.63,0.38,3.84,0.91
				c1.21,0.53,2.19,1.14,2.94,1.84c0.75,0.7,1.08,1.37,0.98,2.01c-0.08,0.53-0.42,2.06-1.02,4.59c-0.02,0.11-0.04,0.22-0.06,0.34
				c-0.18,0.68-0.29,1.24-0.34,1.7c-0.05,0.46,0.05,0.71,0.32,0.75c0.27,0.04,0.78-0.24,1.54-0.85c0.89-0.72,1.82-1.32,2.79-1.8
				c2.01-0.94,3.76-1.23,5.23-0.89c1.48,0.35,2.64,1.17,3.48,2.47c0.26,0.4,1.21,1.87,1.54,4.84c0.15,1.36,0.23,3.47-0.35,6.02
				c1.27-1.88,2.68-2.92,3.55-3.45c1.11-0.68,2.06-1.27,3.36-1.23c2.04,0.06,3.45,1.61,3.96,2.17c0.57,0.63,1.03,1.58,1.95,3.49
				c0.66,1.38,1.08,2.25,1.5,3.49c0.79,2.32,1.29,3.78,0.57,4.64c-0.51,0.6-1.52,0.79-2.32,0.6c-0.53-0.13-1.49-0.55-3.89-5.02
				c-1.1-2.05-1.43-2.86-2.06-2.87c-0.57-0.01-1.13,0.78-2.26,2.37c-0.53,0.75-0.5,0.8-1.26,1.89c-0.53,0.76-0.95,1.32-1.53,2.01
				c-0.51,0.62-0.98,1.09-1.4,1.42c-0.58,0.37-1.34,0.52-2.27,0.44c-0.69-0.06-1.78-0.01-2.58-0.72c-0.27-0.24-0.61-0.65-0.94-1.99
				c-0.37-1.53-0.34-2.71-0.28-4.91c0.05-1.99,0.08-2.99,0.07-3.43c-0.06-2.91-0.11-4.37-0.84-4.69c-0.76-0.33-1.91,0.7-2.9,1.59
				c-1.17,1.06-1.85,2.04-2.92,3.67c-1.19,1.82-2.01,3.08-3.47,5.54c-1.06,1.79-1.84,3.11-2.33,3.97c-0.17,0.29-0.29,0.49-0.33,0.6
				c-0.32,0.58-0.59,0.98-0.81,1.22c-0.22,0.24-0.47,0.38-0.76,0.44c-0.29,0.06-0.72,0.1-1.3,0.11c-0.25,0.02-0.52,0.03-0.83,0.05
				c-2.51,0.06-4.37-0.14-5.56-0.59c-0.77-0.28-1.33-0.59-1.7-0.93c-0.37-0.33-0.6-0.74-0.7-1.22c-0.1-0.48-0.16-1.08-0.18-1.79
				c-0.1-3.23,0.18-7.29,0.86-12.18C303.16,207.52,304.02,203.35,305.07,199.9z"/>
		</g>
	</g>
	<g>
		<path class="st3" d="M355.57,211.74c-0.26-0.77-2.69-7.74-9.16-9.73c-1.46-0.45-2.76-0.53-3.67-0.52
			c-1.6-1.05-3.38-1.79-5.27-2.19c-0.14-0.23-0.28-0.46-0.43-0.69c-2.49-3.82-6.3-6.5-10.71-7.53c-0.31-0.07-0.63-0.14-0.95-0.19
			c-0.55-0.72-1.18-1.41-1.87-2.05c-1.7-1.57-3.76-2.9-6.13-3.93c-0.07-0.03-0.13-0.06-0.2-0.08l0,0c0.2-0.86,0.35-1.7,0.47-2.54
			l0.02-0.18c0.47-3.88,0.1-7.43-1.1-10.56c-1.37-3.55-3.69-6.53-6.75-8.62c-2.55-1.75-5.47-2.87-8.68-3.33
			c-1.75-0.25-3.54-0.32-5.34-0.2c-0.79,0.05-1.59,0.14-2.38,0.26l-0.13,0.02c-0.69,0.11-1.38,0.25-2.05,0.41
			c6.67-3.57,12.36-7.76,16.93-12.45c4.61-4.74,8.22-9.78,10.73-14.99l0.05-0.1c1.98-4.22,3.38-8.5,4.15-12.75
			c0.8-4.42,0.94-8.73,0.43-12.82l0-0.03c-1.23-9.62-5.58-17.6-12.59-23.08c-4.74-3.7-10.29-5.82-16.49-6.3
			c-1.44-0.11-2.92-0.12-4.39-0.02c-3.33,0.22-6.76,0.98-10.24,2.26c-0.37-0.92-0.81-1.82-1.33-2.72c-2.13-3.68-5.22-6.77-9.19-9.19
			c-3.7-2.25-7.8-3.65-12.19-4.17c-1.58-0.19-3.18-0.23-4.75-0.12c-3.32,0.22-6.57,1.08-9.66,2.56c-4.75,2.28-8.66,6.12-11.61,11.42
			c-0.68-4.76-2.35-9.11-4.97-12.95c-3.17-4.63-7.82-8.03-13.46-9.84l-0.27-0.09l-0.27-0.07c-2.95-0.8-5.89-1.12-8.73-0.93
			c-2.9,0.19-5.7,0.9-8.33,2.1c-0.73,0.33-1.44,0.69-2.13,1.08c0.97-5.31,0.2-10.61-2.24-15.39c-2.4-4.7-5.98-8.44-10.64-11.12
			c-4.66-2.68-9.8-3.85-15.27-3.49c-0.09,0.01-0.18,0.01-0.27,0.02c-5.94,0.45-11.43,3-16.32,7.57c-3.69,3.45-6.62,8.07-8.9,14.06
			c-1.03-1.7-2.2-3.3-3.52-4.81c-4.81-5.48-11.08-9.07-18.63-10.66c-3.27-0.69-6.74-0.92-10.31-0.68
			c-4.11,0.27-8.47,1.17-12.95,2.68l-0.12,0.04c-11.41,3.95-21.58,9.95-30.24,17.83c-8.48,7.72-15.52,16.87-20.92,27.19
			c-5.33,10.17-9.04,21.2-11.05,32.79c-0.51,2.89-0.8,5.9-0.88,8.94c-0.2,4.77,0.03,9.73,0.68,14.75
			c0.68,5.19,1.88,10.27,3.59,15.11c1.85,5.26,4.42,10.07,7.63,14.27c3.57,4.68,8.08,8.42,13.39,11.1
			c5.46,2.77,11.81,4.09,18.85,3.94l0.18-0.01c0.4-0.02,0.8-0.04,1.2-0.06c4.88-0.32,9.78-1.56,14.55-3.68
			c4.72-2.1,9.27-4.94,13.54-8.45c5.55-4.52,10.5-9.37,14.72-14.43c1.17-1.4,2.29-2.82,3.37-4.26c0.34,4.23,0.97,8.06,1.9,11.56
			l0.05,0.18l0.05,0.17c0.93,3.11,3.25,7.47,9.04,10.54c2.76,1.46,5.93,2.52,9.44,3.13c2.73,0.48,5.48,0.62,8.2,0.45
			c0.71-0.05,1.44-0.12,2.15-0.21c4.24-0.56,8.05-2.04,11.32-4.4c3.6-2.6,6.08-6.19,7.28-10.49c3,4.68,7.26,8.11,12.31,9.93
			c3.68,1.33,7.52,1.87,11.4,1.62c0.8-0.05,1.62-0.14,2.41-0.26c3.4-0.51,6.52-1.57,9.34-3.16c-1.35,10.6-2.12,20.67-2.29,29.97
			c-0.19,11.02,0.74,20.12,2.85,27.81l0.1,0.38l0.13,0.38c1.53,4.43,4.86,7.92,9.89,10.39c3.08,1.51,6.65,2.59,10.63,3.22
			c3.43,0.54,6.9,0.7,10.31,0.48c0.31-0.02,0.62-0.04,0.93-0.07c4.65-0.4,8.81-1.72,12.37-3.91c5.07-3.13,8.3-8.14,9.09-14.11
			l0.04-0.26l0.01-0.08c-0.01,0.42-0.01,0.84,0,1.26c0.03,4.44,0.49,8.22,1.41,11.57l0.09,0.32l0.11,0.32
			c0.82,2.46,2.7,5.9,7.03,8.34c1.9,1.07,4.04,1.83,6.36,2.27c1.8,0.34,3.63,0.45,5.44,0.33c0.45-0.03,0.91-0.08,1.37-0.13
			c3.12-0.41,6.04-1.61,8.46-3.48c2.69-2.08,4.58-4.95,5.46-8.24c0.43,0.2,0.88,0.38,1.35,0.55c2.62,0.97,5.66,1.39,9.58,1.3
			l0.27-0.01l0.76-0.05c0.28-0.01,0.55-0.02,0.81-0.04c0.85-0.06,1.62-0.16,2.34-0.31c2.17-0.46,4.17-1.42,5.87-2.81
			c2.11,1.05,4.38,1.68,6.76,1.87c0.86,0.07,1.71,0.08,2.54,0.02c2.62-0.17,5.04-0.95,7.19-2.31l0.54-0.35l0.51-0.4
			c0.33-0.26,0.66-0.54,0.98-0.84c1.2,0.15,2.4,0.19,3.6,0.11c1.83-0.12,3.64-0.51,5.38-1.16c3.19-1.19,5.9-3.13,8.06-5.74
			l0.15-0.18l0.14-0.19C354.42,224.52,357.85,218.62,355.57,211.74z M218.78,111.6c-0.03-0.05-0.07-0.1-0.1-0.15
			c0.06-0.05,0.12-0.09,0.18-0.14C218.83,111.41,218.8,111.5,218.78,111.6z"/>
		<g>
			<path class="st4" d="M74.6,169.53c-5,0.11-9.33-0.76-12.97-2.6c-3.64-1.84-6.68-4.36-9.11-7.55c-2.44-3.19-4.36-6.81-5.78-10.85
				c-1.42-4.04-2.42-8.24-2.99-12.6c-0.57-4.35-0.77-8.59-0.59-12.71c0.06-2.48,0.3-4.89,0.7-7.23c1.79-10.37,5.06-20.08,9.81-29.15
				c4.75-9.07,10.84-16.99,18.28-23.76c7.43-6.77,16.08-11.86,25.93-15.27c6.28-2.1,11.86-2.64,16.74-1.61
				c4.88,1.03,8.83,3.26,11.84,6.69c3.01,3.43,4.83,7.7,5.45,12.81c0.62,5.11-0.19,10.73-2.43,16.84c-1.25,3.29-2.78,5.69-4.59,7.19
				c-1.82,1.5-3.68,2.3-5.58,2.4c-1.91,0.1-3.64-0.28-5.18-1.14c-1.55-0.85-2.71-2-3.48-3.44c-0.77-1.44-0.93-2.94-0.47-4.49
				c1.86-5.87,3.02-10.69,3.48-14.46c0.45-3.77,0.14-6.2-0.95-7.29c-1.08-1.08-2.98-0.55-5.68,1.6c-2.7,2.15-6.25,6.21-10.64,12.19
				c-2.69,3.67-5.53,8.26-8.55,13.78c-3.01,5.52-5.87,11.52-8.56,18.01c-2.7,6.48-4.92,12.92-6.66,19.32
				c-1.75,6.39-2.67,12.27-2.76,17.62c0.03,4.73,1.02,7.97,2.97,9.73c1.94,1.76,4.38,2.24,7.32,1.46c2.93-0.78,5.88-2.65,8.83-5.61
				c3.85-3.86,7.66-7.84,11.41-11.95c3.75-4.1,6.62-7.35,8.6-9.73c1.51-1.79,2.97-2.7,4.38-2.74c1.4-0.04,2.63,0.43,3.68,1.4
				c1.05,0.97,1.79,2.12,2.21,3.44c0.43,1.32,0.39,2.48-0.11,3.47c-2.72,4.91-5.94,9.6-9.67,14.07c-3.73,4.47-8.08,8.73-13.05,12.77
				c-3.42,2.82-6.99,5.05-10.7,6.7C82.02,168.51,78.31,169.4,74.6,169.53z"/>
			<path class="st4" d="M160.12,157.46c-0.31,2.16-1.25,3.81-2.84,4.96c-1.59,1.15-3.47,1.86-5.64,2.15
				c-2.18,0.28-4.38,0.23-6.6-0.15c-2.22-0.39-4.13-1.01-5.74-1.86c-1.61-0.85-2.59-1.88-2.95-3.1c-1.43-5.37-2-12.11-1.72-20.24
				c0.28-8.13,1.14-16.95,2.6-26.48c1.45-9.53,3.3-19.11,5.53-28.74c2.23-9.63,4.62-18.65,7.16-27.04
				c1.76-5.69,4.04-9.84,6.82-12.44c2.78-2.6,5.7-4.02,8.76-4.25c3.05-0.23,5.85,0.39,8.4,1.85c2.55,1.47,4.47,3.46,5.76,6
				c1.29,2.53,1.61,5.23,0.96,8.09c-4.11,16.21-8.15,33.91-12.11,53.12C164.54,128.52,161.74,144.57,160.12,157.46z"/>
			<path class="st4" d="M186.55,117.87c0.87-1.24,2.21-2.13,4-2.67c1.79-0.54,3.79-0.76,6-0.65c2.2,0.11,4.31,0.5,6.33,1.19
				c2.02,0.68,3.64,1.63,4.88,2.84c1.23,1.21,1.79,2.61,1.67,4.2c-0.53,4.71-0.89,7.86-1.06,9.44c-0.15,1.14-0.27,2.14-0.35,3.02
				c-0.08,0.88-0.21,2.11-0.39,3.7c-0.18,1.59-0.43,4.08-0.77,7.48c-0.17,1.65-0.38,3.6-0.63,5.87c-0.29,2.38-1.39,4.33-3.29,5.83
				c-1.9,1.51-4.17,2.46-6.82,2.86c-2.65,0.4-5.23,0.15-7.74-0.76c-2.51-0.9-4.53-2.56-6.07-4.96c-1.54-2.4-2.16-5.67-1.87-9.8
				c0.21-2.77,0.51-5.85,0.91-9.22c0.4-3.38,1.01-6.68,1.84-9.92C184.01,123.1,185.13,120.28,186.55,117.87z M208.9,67.58
				c3.05,0.98,5.38,2.66,7,5.03c1.62,2.37,2.62,5.09,2.99,8.16c0.37,3.07,0.2,6.18-0.52,9.32c-0.72,3.14-1.93,5.97-3.62,8.47
				c-1.69,2.51-3.79,4.39-6.3,5.65c-2.51,1.26-5.33,1.52-8.48,0.77c-3.49-0.89-6.14-2.52-7.92-4.88c-1.79-2.36-2.87-5.12-3.25-8.27
				c-0.38-3.16-0.14-6.34,0.72-9.55c0.86-3.21,2.22-6.09,4.07-8.63c1.86-2.54,4.09-4.41,6.68-5.59
				C202.87,66.88,205.75,66.72,208.9,67.58z"/>
			<path class="st4" d="M248.99,223.03c-0.3,2.27-1.4,3.99-3.29,5.16c-1.89,1.17-4.2,1.87-6.91,2.1c-2.72,0.24-5.45,0.13-8.21-0.3
				c-2.76-0.44-5.13-1.14-7.11-2.11c-1.98-0.97-3.18-2.06-3.59-3.27c-1.78-6.47-2.58-14.57-2.41-24.29
				c0.17-9.72,1.03-20.21,2.56-31.46c1.54-11.25,3.52-22.36,5.95-33.33c2.43-10.97,5.02-20.91,7.78-29.82
				c2.76-8.91,5.47-15.87,8.12-20.89c1.7-3.15,3.79-5.32,6.24-6.49c2.46-1.18,4.99-1.61,7.6-1.3c2.61,0.31,5,1.12,7.17,2.44
				c2.17,1.32,3.8,2.92,4.88,4.79c1.08,1.87,1.35,3.78,0.8,5.73c-0.75,2.36-1.49,5.19-2.22,8.51c-0.75,3.09-1.18,5.19-1.27,6.29
				c-0.1,1.1,0.11,1.5,0.63,1.18c0.51-0.32,1.27-1.01,2.27-2.09c0.78-0.95,1.76-1.95,2.93-2.98c3.12-3.02,6.59-5.45,10.41-7.28
				c4.42-2.09,8.5-3,12.24-2.71c3.73,0.29,7,1.52,9.79,3.7c4.45,3.48,7.09,8.43,7.91,14.85c0.36,2.85,0.25,5.87-0.33,9.06
				c-0.58,3.19-1.63,6.41-3.16,9.67c-1.93,4.01-4.74,7.91-8.43,11.71c-3.69,3.79-8.32,7.18-13.9,10.17
				c-5.57,2.99-12.22,5.33-19.93,7.02c-2.34,0.44-4.2,0.97-5.6,1.59c-1.39,0.63-2.46,1.58-3.19,2.87c-0.73,1.29-1.24,3.18-1.52,5.68
				C252.42,189.25,250.36,207.85,248.99,223.03z M261.01,139.05c-0.93,2.15-1.48,3.77-1.66,4.88c-0.18,1.11,0.2,1.76,1.14,1.95
				c0.94,0.19,2.6-0.02,4.98-0.63c5.64-1.5,10.52-3.38,14.62-5.65c4.1-2.27,7.5-4.79,10.18-7.56c2.69-2.77,4.75-5.61,6.19-8.52
				c2.12-4.59,2.93-8.84,2.45-12.75c-0.44-3.29-1.62-5.72-3.52-7.28c-0.89-0.67-2.05-1.02-3.49-1.04c-1.44-0.02-3.11,0.43-5.02,1.35
				c-3.87,1.94-7.4,4.77-10.59,8.47c-3.19,3.7-6.05,7.89-8.59,12.56C265.18,129.51,262.94,134.25,261.01,139.05z"/>
		</g>
		<g>
			<path class="st5" d="M274.72,237.42c-0.69-2.53-1.05-5.64-1.07-9.33c-0.02-3.69,0.2-7.72,0.67-12.08
				c0.47-4.36,1.13-8.81,1.96-13.35c0.02-0.17,0.05-0.34,0.09-0.5c0.12-0.64,0.17-1.11,0.14-1.4c-0.03-0.29-0.26-0.47-0.68-0.54
				c-0.42-0.07-1.13-0.1-2.12-0.09c-0.78,0-1.31-0.31-1.6-0.91c-0.29-0.6-0.4-1.31-0.35-2.11c0.06-0.81,0.23-1.51,0.5-2.11
				c0.28-0.6,0.6-0.91,0.96-0.93c1.38,0.02,2.43-0.04,3.14-0.19c0.71-0.14,1.24-0.51,1.59-1.1c0.35-0.59,0.67-1.55,0.97-2.87
				c0.54-2.3,1.36-4.59,2.45-6.85c1.1-2.26,2.45-4.35,4.05-6.27c1.6-1.92,3.43-3.53,5.49-4.85c2.06-1.31,4.33-2.18,6.82-2.59
				c1.56-0.24,3.07-0.26,4.52-0.05c1.45,0.21,2.72,0.69,3.81,1.43c1.09,0.74,1.89,1.79,2.41,3.14c0.52,1.35,0.65,3.06,0.4,5.12
				c-0.17,1.23-0.48,2.51-0.95,3.84c-0.19,0.51-0.64,0.85-1.34,1.02c-0.71,0.17-1.46,0.17-2.24,0c-0.79-0.17-1.4-0.52-1.86-1.06
				c-0.45-0.54-0.51-1.27-0.19-2.21c0.65-1.9,0.81-3.3,0.49-4.2c-0.32-0.91-0.88-1.26-1.67-1.05c-0.79,0.2-1.59,1-2.42,2.38
				c-1.09,1.98-2.09,4.33-3.02,7.05c-0.93,2.72-1.53,5.08-1.81,7.09c-0.03,0.36,0.06,0.63,0.28,0.81c0.22,0.18,0.62,0.26,1.2,0.25
				c0.91-0.03,1.78-0.05,2.61-0.05l0.04,0c0.89,0.05,1.49,0.38,1.81,0.98c0.32,0.6,0.43,1.3,0.35,2.09
				c-0.09,0.79-0.29,1.49-0.61,2.1c-0.32,0.6-0.67,0.92-1.06,0.94c-1.36-0.02-2.84,0.01-4.44,0.09c-0.66,0.02-1.14,0.14-1.43,0.39
				c-0.29,0.24-0.49,0.68-0.62,1.33c-1.28,6.59-2.43,13.04-3.45,19.35c-1.02,6.31-1.76,11.75-2.2,16.32
				c-0.12,1.11-0.56,1.97-1.33,2.56c-0.76,0.59-1.68,0.96-2.75,1.1c-1.07,0.14-2.15,0.11-3.24-0.1c-1.09-0.2-2.03-0.53-2.83-0.98
				C275.42,238.58,274.93,238.04,274.72,237.42z"/>
			<path class="st5" d="M306.5,199.76c0.53-1.58,1.35-2.69,2.46-3.32c1.11-0.63,2.33-0.9,3.68-0.82c1.35,0.08,2.63,0.38,3.84,0.91
				c1.21,0.53,2.19,1.14,2.94,1.84c0.75,0.7,1.08,1.37,0.98,2.01c-0.08,0.53-0.42,2.06-1.02,4.59c-0.02,0.11-0.04,0.22-0.06,0.34
				c-0.18,0.68-0.29,1.24-0.34,1.7c-0.05,0.46,0.05,0.71,0.32,0.75c0.27,0.04,0.78-0.24,1.54-0.85c0.89-0.72,1.82-1.32,2.79-1.8
				c2.01-0.94,3.76-1.23,5.23-0.89c1.48,0.35,2.64,1.17,3.48,2.47c0.26,0.4,1.21,1.87,1.54,4.84c0.15,1.36,0.23,3.47-0.35,6.02
				c1.27-1.88,2.68-2.92,3.55-3.45c1.11-0.68,2.06-1.27,3.36-1.23c2.04,0.06,3.45,1.61,3.96,2.17c0.57,0.63,1.03,1.58,1.95,3.49
				c0.66,1.38,1.08,2.25,1.5,3.49c0.79,2.32,1.29,3.78,0.57,4.64c-0.51,0.6-1.52,0.79-2.32,0.6c-0.53-0.13-1.49-0.55-3.89-5.02
				c-1.1-2.05-1.43-2.86-2.06-2.87c-0.57-0.01-1.13,0.78-2.26,2.37c-0.53,0.75-0.5,0.8-1.26,1.89c-0.53,0.76-0.95,1.32-1.53,2.01
				c-0.51,0.62-0.98,1.09-1.4,1.42c-0.58,0.37-1.34,0.52-2.27,0.44c-0.69-0.06-1.78-0.01-2.58-0.72c-0.27-0.24-0.61-0.65-0.94-1.99
				c-0.37-1.53-0.34-2.71-0.28-4.91c0.05-1.99,0.08-2.99,0.07-3.43c-0.06-2.91-0.11-4.37-0.84-4.69c-0.76-0.33-1.91,0.7-2.9,1.59
				c-1.17,1.06-1.85,2.04-2.92,3.67c-1.19,1.82-2.01,3.08-3.47,5.54c-1.06,1.79-1.84,3.11-2.33,3.97c-0.17,0.29-0.29,0.49-0.33,0.6
				c-0.32,0.58-0.59,0.98-0.81,1.22c-0.22,0.24-0.47,0.38-0.76,0.44c-0.29,0.06-0.72,0.1-1.3,0.11c-0.25,0.02-0.52,0.03-0.83,0.05
				c-2.51,0.06-4.37-0.14-5.56-0.59c-0.77-0.28-1.33-0.59-1.7-0.93c-0.37-0.33-0.6-0.74-0.7-1.22c-0.1-0.48-0.16-1.08-0.18-1.79
				c-0.1-3.23,0.18-7.29,0.86-12.18C304.6,207.37,305.45,203.21,306.5,199.76z"/>
		</g>
	</g>
</g>
</svg>
