<?xml version="1.0" encoding="utf-8"?>
<!-- Generator: Adobe Illustrator 26.5.0, SVG Export Plug-In . SVG Version: 6.00 Build 0)  -->
<svg version="1.1" id="Capa_1" xmlns="http://www.w3.org/2000/svg" xmlns:xlink="http://www.w3.org/1999/xlink" x="0px" y="0px"
	 viewBox="0 0 521 281.44" style="enable-background:new 0 0 521 281.44;" xml:space="preserve">
<style type="text/css">
	.st0{fill:#FFFFFF;stroke:#FFFFFF;stroke-width:18;stroke-miterlimit:10;}
	.st1{fill:#1E1F1D;stroke:#FFFFFF;stroke-width:18;stroke-miterlimit:10;}
	.st2{fill:#53AD32;stroke:#FFFFFF;stroke-width:18;stroke-miterlimit:10;}
	.st3{fill:#FFFFFF;}
	.st4{fill:#1E1F1D;}
	.st5{fill:#53AD32;}
</style>
<g>
	<g>
		<path class="st0" d="M149.48,68.1c-4.3-14.51-14.21-26.55-27.92-33.89c-8.68-4.65-18.5-7.13-28.39-7.17
			c-21.43-0.09-41.24,11-51.67,28.93c-7.65,13.14-9.49,28.37-5.19,42.89c4.29,14.51,14.2,26.55,27.91,33.89
			c8.69,4.65,18.5,7.13,28.39,7.16c21.44,0.09,41.23-11,51.67-28.92C151.92,97.84,153.77,82.62,149.48,68.1"/>
		<path class="st1" d="M172.72,191.6l140.85,0.57c0.49,0,0.96,0,1.41-0.01l3.39,0.01c0,0,8.6,0.5,8.64-9.03c0.02-4.28,0,0,0,0
			l-0.49-35.62c6.32-6.64,13.24-10.22,20.59-27.15c0.52-1.21,1.17-2.44,1.35-3.71c0.7-1.07,0.95-2.3,1.34-3.58
			c2.58-8.46,3.49-17.21,2.7-26.04c-0.3-3.46-0.88-6.92-1.7-10.27c-3.6-14.69-12.14-27.96-24.05-37.38
			c-11.96-9.45-26.92-14.69-42.12-14.76c-2.13-0.01-4.29,0.09-6.42,0.28c-7.74,0.68-15.13,2.67-21.95,5.75
			c-2.5-4.36-7.13-7.07-12.17-7.09c-0.02,0-0.04,0-0.06,0L209.6,23.6c-4.61,0.01-8.94,2.27-11.58,6.06l-10,14.4l-9.89-14.48
			c-2.61-3.81-6.91-6.11-11.53-6.15l-34.4-0.3c-0.02,0-0.04,0-0.07,0c-5.23-0.02-10.04,2.86-12.5,7.48
			c-0.14,0.25-0.26,0.52-0.38,0.78c-9.58-4.91-20.22-7.52-30.94-7.56c-24.95-0.1-47.99,13.36-60.13,35.11
			c-18.41,32.98-6.55,74.78,26.42,93.18c10.1,5.64,21.54,8.65,33.05,8.7c11.8,0.05,23.18-2.94,33.18-8.42
			c0.14,0.32,0.29,0.63,0.45,0.94c2.42,4.65,7.22,7.57,12.46,7.59l30.5,0.12l-0.09,21.76C164.15,182.8,163.58,191.56,172.72,191.6"
			/>
		<path class="st2" d="M139.71,121.17c7.85-14.07,9.75-30.35,5.36-45.84c-4.39-15.5-14.56-28.36-28.62-36.21
			c-8.9-4.97-18.97-7.62-29.1-7.66C65.38,31.37,45.09,43.23,34.4,62.39c-16.21,29.04-5.77,65.85,23.26,82.05
			c8.9,4.97,18.96,7.62,29.1,7.66C108.72,152.19,129.02,140.34,139.71,121.17"/>
		<path class="st2" d="M247.18,42.28c1.36-1.94,1.52-4.48,0.42-6.58c-1.1-2.11-3.28-3.44-5.64-3.42l-33.81,0.02
			c-2.08,0.01-4.04,1.02-5.23,2.74l-16.03,23.08l-15.84-23.21c-1.18-1.73-3.12-2.76-5.21-2.78l-33.81-0.29
			c-2.38,0-4.55,1.28-5.67,3.38c-1.11,2.09-0.97,4.63,0.37,6.58l35.5,51.82l-33.78,48.62c-1.36,1.94-1.51,4.47-0.42,6.57
			s3.26,3.42,5.62,3.43l33.44,0.14c2.09,0.01,4.05-1.01,5.25-2.73L247.18,42.28z"/>
		<path class="st0" d="M175.02,181.87c0,0.99-0.23,1.72-0.66,2.21c-0.44,0.49-1.1,0.73-1.97,0.73c-0.85,0-1.5-0.26-1.94-0.76
			c-0.44-0.5-0.66-1.23-0.66-2.2l0.08-20.07c0.01-1.64,0.25-2.77,0.72-3.36c0.46-0.59,1.31-0.88,2.52-0.87l12.25,0.05
			c0.94,0,1.65,0.21,2.14,0.62c0.48,0.4,0.72,0.99,0.72,1.77c0,0.76-0.25,1.33-0.73,1.71c-0.49,0.39-1.2,0.59-2.14,0.58l-10.24-0.04
			l-0.02,6.1l8.66,0.03c0.95,0,1.66,0.21,2.14,0.62c0.48,0.41,0.72,0.99,0.72,1.76c0,0.77-0.25,1.35-0.74,1.74s-1.2,0.58-2.15,0.57
			l-8.66-0.03L175.02,181.87z"/>
		<path class="st0" d="M194.69,181.6c0,1.13-0.2,1.97-0.6,2.49c-0.4,0.53-1.02,0.8-1.87,0.79c-0.88,0-1.51-0.27-1.91-0.79
			c-0.39-0.51-0.59-1.35-0.58-2.51l0.08-20.11c0.01-1.63,0.24-2.75,0.71-3.34c0.47-0.59,1.31-0.88,2.52-0.87l1.85,0.01
			c1.05,0,1.81,0.21,2.28,0.63c0.47,0.42,0.92,1.55,1.36,3.38l4.17,16.88l4.15-16.5c0.47-1.87,0.94-3.05,1.42-3.56
			c0.47-0.52,1.18-0.77,2.11-0.77l2.12,0.01c1.22,0,2.05,0.3,2.52,0.9c0.46,0.6,0.69,1.71,0.69,3.34l-0.08,20.11
			c0,1.13-0.21,1.97-0.61,2.49c-0.41,0.53-1.03,0.8-1.87,0.79c-0.87,0-1.51-0.27-1.9-0.8c-0.39-0.52-0.59-1.35-0.59-2.5l0.08-18.76
			l-4.52,18.34c-0.36,1.37-0.79,2.34-1.32,2.88c-0.52,0.54-1.26,0.81-2.22,0.81c-0.93,0-1.67-0.29-2.21-0.86
			c-0.55-0.57-0.99-1.53-1.32-2.85l-4.37-18.38L194.69,181.6z"/>
		<path class="st2" d="M218.36,181.16c0-1.18,0.44-2.21,1.3-3.07c0.86-0.85,1.89-1.29,3.09-1.28c1.24,0,2.28,0.43,3.14,1.29
			c0.85,0.85,1.28,1.88,1.27,3.1c0,1.21-0.45,2.26-1.32,3.12c-0.88,0.86-1.92,1.29-3.12,1.28c-1.18,0-2.2-0.45-3.07-1.32
			C218.79,183.4,218.36,182.36,218.36,181.16"/>
		<path class="st0" d="M139.72,76.85c-4-14.08-13.22-25.77-25.98-32.89c-8.08-4.52-17.22-6.92-26.42-6.95
			c-19.95-0.08-38.38,10.68-48.09,28.09c-7.12,12.74-8.84,27.53-4.85,41.62c4,14.09,13.22,25.77,25.98,32.89
			c8.08,4.52,17.22,6.92,26.42,6.95c19.95,0.08,38.38-10.67,48.09-28.08C141.99,105.72,143.71,90.93,139.72,76.85"/>
		<path class="st0" d="M166.62,96.92l-31.36,45.14c-0.63,0.91-0.7,2.1-0.19,3.09c0.52,0.99,1.54,1.61,2.65,1.61l28.29,0.11
			c0.98,0,1.91-0.48,2.47-1.28l71.87-103.11c0.64-0.91,0.71-2.11,0.2-3.09c-0.52-0.99-1.53-1.61-2.65-1.61l-0.01,0l-28.63,0.01
			c-0.98,0-1.9,0.48-2.45,1.28l-17.5,25.18c-2.63,4.27-4.77,0.14-4.77,0.14l-17.4-25.49c-0.55-0.81-1.46-1.29-2.45-1.3l-28.62-0.24
			l-0.02,0c-1.11,0-2.14,0.61-2.66,1.59c-0.52,0.98-0.45,2.18,0.17,3.09l32.92,48.05C166.48,90.1,169.45,92.65,166.62,96.92"/>
		<path class="st2" d="M201.21,126.8c0.01-2.91,1.07-5.42,3.19-7.53c2.11-2.12,4.64-3.18,7.59-3.17c3.03,0.01,5.6,1.07,7.69,3.16
			c2.09,2.09,3.14,4.63,3.13,7.62c-0.01,2.99-1.1,5.54-3.25,7.65c-2.15,2.12-4.71,3.17-7.65,3.16c-2.91-0.01-5.42-1.09-7.53-3.24
			C202.25,132.3,201.2,129.75,201.21,126.8"/>
		<path class="st2" d="M69.74,122.69c-1.81-0.01-3.27-0.91-3.27-2.01l0.11-27.07l0.01-2.31l0.11-26.85c0-1.11,1.47-1.99,3.29-1.99
			c1.81,0.01,3.27,0.9,3.27,2.01l-0.11,26.89l-0.01,2.32l-0.11,27.02C73.02,121.81,71.55,122.7,69.74,122.69"/>
		<path class="st2" d="M61.17,114.06c-1.61-0.01-2.92-0.77-2.92-1.7l0.08-18.97l0.01-1.96l0.08-18.71c0-0.94,1.32-1.69,2.93-1.68
			c1.61,0.01,2.92,0.76,2.91,1.7l-0.08,18.74l-0.01,1.97l-0.08,18.93C64.09,113.31,62.78,114.06,61.17,114.06"/>
		<path class="st2" d="M52.6,105.42c-1.41-0.01-2.55-0.65-2.55-1.43l0.04-10.81l0.01-1.65l0.04-10.51c0-0.79,1.15-1.42,2.56-1.41
			c1.41,0.01,2.55,0.65,2.54,1.44L55.2,91.58l-0.01,1.65L55.15,104C55.15,104.79,54.01,105.42,52.6,105.42"/>
		<path class="st2" d="M78.31,131.33c-1.75-0.01-3.16-0.94-3.16-2.08l0.14-35.6l0.01-2.21l0.14-35.5c0-1.14,1.42-2.07,3.17-2.06
			c1.75,0.01,3.16,0.94,3.16,2.08l-0.14,35.55l-0.01,2.2l-0.14,35.56C81.48,130.42,80.06,131.34,78.31,131.33"/>
		<path class="st2" d="M104.5,122.83c1.81,0.01,3.29-0.89,3.29-1.99l0.11-27.07l0.01-2.31l0.11-26.85c0-1.11-1.46-2.01-3.27-2.01
			c-1.81-0.01-3.28,0.88-3.29,1.99l-0.11,26.89l-0.01,2.32l-0.11,27.02C101.23,121.92,102.69,122.83,104.5,122.83"/>
		<path class="st2" d="M113.15,114.27c1.61,0.01,2.92-0.75,2.92-1.68l0.08-18.97l0.01-1.96l0.08-18.71c0-0.94-1.3-1.7-2.91-1.7
			c-1.61-0.01-2.93,0.74-2.93,1.68l-0.08,18.74l-0.01,1.97l-0.08,18.93C110.23,113.49,111.53,114.26,113.15,114.27"/>
		<path class="st2" d="M121.78,105.7c1.41,0.01,2.56-0.63,2.56-1.41l0.04-10.81l0.01-1.65l0.04-10.51c0-0.79-1.14-1.43-2.55-1.44
			c-1.41-0.01-2.55,0.63-2.56,1.41l-0.04,10.54l-0.01,1.65l-0.04,10.77C119.23,105.05,120.37,105.69,121.78,105.7"/>
		<path class="st2" d="M95.86,131.4c1.75,0.01,3.17-0.91,3.18-2.05l0.14-35.6l0.01-2.21l0.14-35.5c0-1.14-1.41-2.08-3.16-2.08
			C94.43,53.95,93,54.88,93,56.02l-0.14,35.55l-0.01,2.2l-0.14,35.56C92.7,130.47,94.12,131.4,95.86,131.4"/>
		<path class="st2" d="M338.13,121.9c7.85-14.06,9.75-30.35,5.36-45.84c-4.39-15.5-14.56-28.36-28.63-36.21
			c-8.9-4.97-18.96-7.61-29.1-7.65c-21.97-0.09-42.26,11.76-52.95,30.92c-16.21,29.03-5.77,65.84,23.27,82.04
			c8.9,4.97,18.96,7.62,29.1,7.66l0,0C307.14,152.91,327.44,141.07,338.13,121.9"/>
		<path class="st0" d="M266.62,104.53l68.88,0.28c1.37,0.01,2.34-0.99,2.93-2.23c1.76-3.65,2.26-8.44,1.68-14.94
			c-0.25-2.78-0.71-5.55-1.37-8.24c-6-24.48-27.78-41.64-52.98-41.74c-1.71-0.01-3.45,0.07-5.16,0.21
			c-23.15,2.07-42.55,18.57-48.29,41.09c-1.53,6.02-2.03,12.21-1.48,18.42c0.33,3.6,1,7.19,2.03,10.67
			c6.78,23.05,28.3,39.21,52.32,39.31c1.71,0.01,3.45-0.06,5.16-0.21c9.23-0.83,18.17-4.01,25.84-9.2
			c7.65-5.17,13.92-12.25,18.12-20.48c0.48-0.94,0.44-2.05-0.11-2.95c-0.55-0.9-1.52-1.45-2.57-1.45l-26.9-0.11
			c-0.72,0-1.41,0.24-1.95,0.7c-4.11,3.42-9.11,5.49-14.48,5.96c-0.83,0.08-1.66,0.11-2.49,0.11c-7.9-0.03-15.2-3.54-20.1-9.53
			C261.24,104.71,266.62,104.53,266.62,104.53 M303.86,80.2l-36.39-0.15c-3.45,0.1-0.87-2.56-0.87-2.56
			c4.34-4.52,10.17-7.33,16.58-7.9c0.82-0.08,1.66-0.12,2.48-0.11c7.35,0.03,14.21,3.08,19.07,8.34
			C304.73,77.82,307.98,80.21,303.86,80.2"/>
		<g>
			<path class="st0" d="M228.89,170.6c0.04-9.3,6.72-14.64,14.28-14.61c3.43,0.01,6.06,1.37,8.09,3.11l-3.5,4.71
				c-1.39-1.2-2.68-1.85-4.27-1.86c-4.23-0.02-7.12,3.4-7.15,8.67c-0.02,5.22,2.85,8.61,6.88,8.63c1.99,0.01,3.88-0.93,5.43-2.22
				l2.86,4.84c-2.64,2.33-6.03,3.36-9.11,3.34C234.7,185.19,228.85,179.8,228.89,170.6z"/>
			<path class="st0" d="M251.12,170.69c0.04-9.3,6.47-14.64,13.43-14.61c6.96,0.03,13.35,5.42,13.32,14.72
				c-0.04,9.2-6.47,14.54-13.43,14.51C257.47,185.29,251.08,179.89,251.12,170.69z M270.41,170.77c0.02-5.27-2.1-8.71-5.88-8.73
				c-3.78-0.01-5.93,3.41-5.95,8.68c-0.02,5.22,2.1,8.61,5.88,8.62C268.24,179.36,270.39,175.99,270.41,170.77z"/>
			<path class="st0" d="M281.56,156.84l5.97,0.02l0.48,3.73l0.2,0c2.35-2.43,4.94-4.4,8.57-4.39c3.98,0.02,6.31,1.82,7.64,4.9
				c2.55-2.67,5.24-4.85,8.87-4.84c5.92,0.02,8.64,4.21,8.61,11.22l-0.07,17.35l-7.31-0.03l0.07-16.46
				c0.02-4.28-1.22-5.82-3.86-5.83c-1.59-0.01-3.39,1.03-5.38,3.11l-0.08,19.14l-7.31-0.03l0.07-16.46
				c0.02-4.28-1.22-5.82-3.85-5.83c-1.59-0.01-3.39,1.03-5.38,3.11l-0.08,19.14l-7.26-0.03L281.56,156.84z"/>
		</g>
	</g>
	<g>
		<path class="st3" d="M150.31,68.1c-4.3-14.51-14.21-26.55-27.92-33.89c-8.68-4.65-18.5-7.13-28.39-7.17
			c-21.43-0.09-41.24,11-51.67,28.93c-7.65,13.14-9.49,28.37-5.19,42.89c4.29,14.51,14.2,26.55,27.91,33.89
			c8.69,4.65,18.5,7.13,28.39,7.16c21.44,0.09,41.23-11,51.67-28.92C152.75,97.84,154.6,82.62,150.31,68.1"/>
		<path class="st4" d="M173.55,191.6l140.85,0.57c0.49,0,0.96,0,1.41-0.01l3.39,0.01c0,0,8.6,0.5,8.64-9.03c0.02-4.28,0,0,0,0
			l-0.49-35.62c6.32-6.64,13.24-10.22,20.59-27.15c0.52-1.21,1.17-2.44,1.35-3.71c0.7-1.07,0.95-2.3,1.34-3.58
			c2.58-8.46,3.49-17.21,2.7-26.04c-0.3-3.46-0.88-6.92-1.7-10.27c-3.6-14.69-12.14-27.96-24.05-37.38
			c-11.96-9.45-26.92-14.69-42.12-14.76c-2.13-0.01-4.29,0.09-6.42,0.28c-7.74,0.68-15.13,2.67-21.95,5.75
			c-2.5-4.36-7.13-7.07-12.17-7.09c-0.02,0-0.04,0-0.06,0l-34.41,0.02c-4.61,0.01-8.94,2.27-11.58,6.06l-10,14.4l-9.89-14.48
			c-2.61-3.81-6.91-6.11-11.53-6.15l-34.4-0.3c-0.02,0-0.04,0-0.07,0c-5.23-0.02-10.04,2.86-12.5,7.48
			c-0.14,0.25-0.26,0.52-0.38,0.78c-9.58-4.91-20.22-7.52-30.94-7.56c-24.95-0.1-47.99,13.36-60.13,35.11
			c-18.41,32.98-6.55,74.78,26.42,93.18c10.1,5.64,21.54,8.65,33.05,8.7c11.8,0.05,23.18-2.94,33.18-8.42
			c0.14,0.32,0.29,0.63,0.45,0.94c2.42,4.65,7.22,7.57,12.46,7.59l30.5,0.12l-0.09,21.76C164.98,182.8,164.41,191.56,173.55,191.6"
			/>
		<path class="st5" d="M140.54,121.17c7.85-14.07,9.75-30.35,5.36-45.84c-4.39-15.5-14.56-28.36-28.62-36.21
			c-8.9-4.97-18.97-7.62-29.1-7.66c-21.97-0.09-42.25,11.77-52.95,30.92c-16.21,29.04-5.77,65.85,23.26,82.05
			c8.9,4.97,18.96,7.62,29.1,7.66C109.55,152.19,129.85,140.34,140.54,121.17"/>
		<path class="st5" d="M248.01,42.28c1.36-1.94,1.52-4.48,0.42-6.58c-1.1-2.11-3.28-3.44-5.64-3.42l-33.81,0.02
			c-2.08,0.01-4.04,1.02-5.23,2.74l-16.03,23.08l-15.84-23.21c-1.18-1.73-3.12-2.76-5.21-2.78l-33.81-0.29
			c-2.38,0-4.55,1.28-5.67,3.38c-1.11,2.09-0.97,4.63,0.37,6.58l35.5,51.82l-33.78,48.62c-1.36,1.94-1.51,4.47-0.42,6.57
			s3.26,3.42,5.62,3.43l33.44,0.14c2.09,0.01,4.05-1.01,5.25-2.73L248.01,42.28z"/>
		<path class="st3" d="M175.85,181.87c0,0.99-0.23,1.72-0.66,2.21c-0.44,0.49-1.1,0.73-1.97,0.73c-0.85,0-1.5-0.26-1.94-0.76
			c-0.44-0.5-0.66-1.23-0.66-2.2l0.08-20.07c0.01-1.64,0.25-2.77,0.72-3.36c0.46-0.59,1.31-0.88,2.52-0.87l12.25,0.05
			c0.94,0,1.65,0.21,2.14,0.62c0.48,0.4,0.72,0.99,0.72,1.77c0,0.76-0.25,1.33-0.73,1.71c-0.49,0.39-1.2,0.59-2.14,0.58l-10.24-0.04
			l-0.02,6.1l8.66,0.03c0.95,0,1.66,0.21,2.14,0.62c0.48,0.41,0.72,0.99,0.72,1.76c0,0.77-0.25,1.35-0.74,1.74s-1.2,0.58-2.15,0.57
			l-8.66-0.03L175.85,181.87z"/>
		<path class="st3" d="M195.52,181.6c0,1.13-0.2,1.97-0.6,2.49c-0.4,0.53-1.02,0.8-1.87,0.79c-0.88,0-1.51-0.27-1.91-0.79
			c-0.39-0.51-0.59-1.35-0.58-2.51l0.08-20.11c0.01-1.63,0.24-2.75,0.71-3.34c0.47-0.59,1.31-0.88,2.52-0.87l1.85,0.01
			c1.05,0,1.81,0.21,2.28,0.63c0.47,0.42,0.92,1.55,1.36,3.38l4.17,16.88l4.15-16.5c0.47-1.87,0.94-3.05,1.42-3.56
			c0.47-0.52,1.18-0.77,2.11-0.77l2.12,0.01c1.22,0,2.05,0.3,2.52,0.9c0.46,0.6,0.69,1.71,0.69,3.34l-0.08,20.11
			c0,1.13-0.21,1.97-0.61,2.49c-0.41,0.53-1.03,0.8-1.87,0.79c-0.87,0-1.51-0.27-1.9-0.8c-0.39-0.52-0.59-1.35-0.59-2.5l0.08-18.76
			l-4.52,18.34c-0.36,1.37-0.79,2.34-1.32,2.88c-0.52,0.54-1.26,0.81-2.22,0.81c-0.93,0-1.67-0.29-2.21-0.86
			c-0.55-0.57-0.99-1.53-1.32-2.85l-4.37-18.38L195.52,181.6z"/>
		<path class="st5" d="M219.19,181.16c0-1.18,0.44-2.21,1.3-3.07c0.86-0.85,1.89-1.29,3.09-1.28c1.24,0,2.28,0.43,3.14,1.29
			c0.85,0.85,1.28,1.88,1.27,3.1c0,1.21-0.45,2.26-1.32,3.12c-0.88,0.86-1.92,1.29-3.12,1.28c-1.18,0-2.2-0.45-3.07-1.32
			C219.62,183.4,219.19,182.36,219.19,181.16"/>
		<path class="st3" d="M140.55,76.85c-4-14.08-13.22-25.77-25.98-32.89c-8.08-4.52-17.22-6.92-26.42-6.95
			C68.2,36.93,49.78,47.69,40.07,65.09c-7.12,12.74-8.84,27.53-4.85,41.62c4,14.09,13.22,25.77,25.98,32.89
			c8.08,4.52,17.22,6.92,26.42,6.95c19.95,0.08,38.38-10.67,48.09-28.08C142.82,105.72,144.54,90.93,140.55,76.85"/>
		<path class="st3" d="M167.45,96.92l-31.36,45.14c-0.63,0.91-0.7,2.1-0.19,3.09c0.52,0.99,1.54,1.61,2.65,1.61l28.29,0.11
			c0.98,0,1.91-0.48,2.47-1.28l71.87-103.11c0.64-0.91,0.71-2.11,0.2-3.09c-0.52-0.99-1.53-1.61-2.65-1.61l-0.01,0l-28.63,0.01
			c-0.98,0-1.9,0.48-2.45,1.28l-17.5,25.18c-2.63,4.27-4.77,0.14-4.77,0.14l-17.4-25.49c-0.55-0.81-1.46-1.29-2.45-1.3l-28.62-0.24
			l-0.02,0c-1.11,0-2.14,0.61-2.66,1.59c-0.52,0.98-0.45,2.18,0.17,3.09l32.92,48.05C167.31,90.1,170.28,92.65,167.45,96.92"/>
		<path class="st5" d="M202.04,126.8c0.01-2.91,1.07-5.42,3.19-7.53c2.11-2.12,4.64-3.18,7.59-3.17c3.03,0.01,5.6,1.07,7.69,3.16
			c2.09,2.09,3.14,4.63,3.13,7.62c-0.01,2.99-1.1,5.54-3.25,7.65c-2.15,2.12-4.71,3.17-7.65,3.16c-2.91-0.01-5.42-1.09-7.53-3.24
			C203.08,132.3,202.03,129.75,202.04,126.8"/>
		<path class="st5" d="M70.57,122.69c-1.81-0.01-3.27-0.91-3.27-2.01l0.11-27.07l0.01-2.31l0.11-26.85c0-1.11,1.47-1.99,3.29-1.99
			c1.81,0.01,3.27,0.9,3.27,2.01l-0.11,26.89l-0.01,2.32l-0.11,27.02C73.85,121.81,72.38,122.7,70.57,122.69"/>
		<path class="st5" d="M62,114.06c-1.61-0.01-2.92-0.77-2.92-1.7l0.08-18.97l0.01-1.96l0.08-18.71c0-0.94,1.32-1.69,2.93-1.68
			c1.61,0.01,2.92,0.76,2.91,1.7l-0.08,18.74L65,93.44l-0.08,18.93C64.92,113.31,63.61,114.06,62,114.06"/>
		<path class="st5" d="M53.43,105.42c-1.41-0.01-2.55-0.65-2.55-1.43l0.04-10.81l0.01-1.65l0.04-10.51c0-0.79,1.15-1.42,2.56-1.41
			c1.41,0.01,2.55,0.65,2.54,1.44l-0.04,10.54l-0.01,1.65L55.98,104C55.98,104.79,54.84,105.42,53.43,105.42"/>
		<path class="st5" d="M79.14,131.33c-1.75-0.01-3.16-0.94-3.16-2.08l0.14-35.6l0.01-2.21l0.14-35.5c0-1.14,1.42-2.07,3.17-2.06
			c1.75,0.01,3.16,0.94,3.16,2.08l-0.14,35.55l-0.01,2.2l-0.14,35.56C82.31,130.42,80.89,131.34,79.14,131.33"/>
		<path class="st5" d="M105.33,122.83c1.81,0.01,3.29-0.89,3.29-1.99l0.11-27.07l0.01-2.31l0.11-26.85c0-1.11-1.46-2.01-3.27-2.01
			c-1.81-0.01-3.28,0.88-3.29,1.99l-0.11,26.89l-0.01,2.32l-0.11,27.02C102.06,121.92,103.52,122.83,105.33,122.83"/>
		<path class="st5" d="M113.98,114.27c1.61,0.01,2.92-0.75,2.92-1.68l0.08-18.97l0.01-1.96l0.08-18.71c0-0.94-1.3-1.7-2.91-1.7
			c-1.61-0.01-2.93,0.74-2.93,1.68l-0.08,18.74l-0.01,1.97l-0.08,18.93C111.06,113.49,112.36,114.26,113.98,114.27"/>
		<path class="st5" d="M122.61,105.7c1.41,0.01,2.56-0.63,2.56-1.41l0.04-10.81l0.01-1.65l0.04-10.51c0-0.79-1.14-1.43-2.55-1.44
			c-1.41-0.01-2.55,0.63-2.56,1.41l-0.04,10.54l-0.01,1.65l-0.04,10.77C120.06,105.05,121.2,105.69,122.61,105.7"/>
		<path class="st5" d="M96.69,131.4c1.75,0.01,3.17-0.91,3.18-2.05l0.14-35.6l0.01-2.21l0.14-35.5c0-1.14-1.41-2.08-3.16-2.08
			c-1.75-0.01-3.17,0.92-3.18,2.06l-0.14,35.55l-0.01,2.2l-0.14,35.56C93.53,130.47,94.95,131.4,96.69,131.4"/>
		<path class="st5" d="M338.96,121.9c7.85-14.06,9.75-30.35,5.36-45.84c-4.39-15.5-14.56-28.36-28.63-36.21
			c-8.9-4.97-18.96-7.61-29.1-7.65c-21.97-0.09-42.26,11.76-52.95,30.92c-16.21,29.03-5.77,65.84,23.27,82.04
			c8.9,4.97,18.96,7.62,29.1,7.66l0,0C307.97,152.91,328.27,141.07,338.96,121.9"/>
		<path class="st3" d="M267.45,104.53l68.88,0.28c1.37,0.01,2.34-0.99,2.93-2.23c1.76-3.65,2.26-8.44,1.68-14.94
			c-0.25-2.78-0.71-5.55-1.37-8.24c-6-24.48-27.78-41.64-52.98-41.74c-1.71-0.01-3.45,0.07-5.16,0.21
			c-23.15,2.07-42.55,18.57-48.29,41.09c-1.53,6.02-2.03,12.21-1.48,18.42c0.33,3.6,1,7.19,2.03,10.67
			c6.78,23.05,28.3,39.21,52.32,39.31c1.71,0.01,3.45-0.06,5.16-0.21c9.23-0.83,18.17-4.01,25.84-9.2
			c7.65-5.17,13.92-12.25,18.12-20.48c0.48-0.94,0.44-2.05-0.11-2.95c-0.55-0.9-1.52-1.45-2.57-1.45l-26.9-0.11
			c-0.72,0-1.41,0.24-1.95,0.7c-4.11,3.42-9.11,5.49-14.48,5.96c-0.83,0.08-1.66,0.11-2.49,0.11c-7.9-0.03-15.2-3.54-20.1-9.53
			C262.07,104.71,267.45,104.53,267.45,104.53 M304.69,80.2l-36.39-0.15c-3.45,0.1-0.87-2.56-0.87-2.56
			c4.34-4.52,10.17-7.33,16.58-7.9c0.82-0.08,1.66-0.12,2.48-0.11c7.35,0.03,14.21,3.08,19.07,8.34
			C305.56,77.82,308.81,80.21,304.69,80.2"/>
		<g>
			<path class="st3" d="M229.72,170.6c0.04-9.3,6.72-14.64,14.28-14.61c3.43,0.01,6.06,1.37,8.09,3.11l-3.5,4.71
				c-1.39-1.2-2.68-1.85-4.27-1.86c-4.23-0.02-7.12,3.4-7.15,8.67c-0.02,5.22,2.85,8.61,6.88,8.63c1.99,0.01,3.88-0.93,5.43-2.22
				l2.86,4.84c-2.64,2.33-6.03,3.36-9.11,3.34C235.53,185.19,229.68,179.8,229.72,170.6z"/>
			<path class="st3" d="M251.95,170.69c0.04-9.3,6.47-14.64,13.43-14.61c6.96,0.03,13.35,5.42,13.32,14.72
				c-0.04,9.2-6.47,14.54-13.43,14.51C258.3,185.29,251.91,179.89,251.95,170.69z M271.24,170.77c0.02-5.27-2.1-8.71-5.88-8.73
				c-3.78-0.01-5.93,3.41-5.95,8.68c-0.02,5.22,2.1,8.61,5.88,8.62C269.07,179.36,271.22,175.99,271.24,170.77z"/>
			<path class="st3" d="M282.39,156.84l5.97,0.02l0.48,3.73l0.2,0c2.35-2.43,4.94-4.4,8.57-4.39c3.98,0.02,6.31,1.82,7.64,4.9
				c2.55-2.67,5.24-4.85,8.87-4.84c5.92,0.02,8.64,4.21,8.61,11.22l-0.07,17.35l-7.31-0.03l0.07-16.46
				c0.02-4.28-1.22-5.82-3.86-5.83c-1.59-0.01-3.39,1.03-5.38,3.11l-0.08,19.14l-7.31-0.03l0.07-16.46
				c0.02-4.28-1.22-5.82-3.85-5.83c-1.59-0.01-3.39,1.03-5.38,3.11l-0.08,19.14l-7.26-0.03L282.39,156.84z"/>
		</g>
	</g>
</g>
</svg>
