<?xml version="1.0" encoding="utf-8"?>
<!-- Generator: Adobe Illustrator 26.5.0, SVG Export Plug-In . SVG Version: 6.00 Build 0)  -->
<svg version="1.1" id="Capa_1" xmlns="http://www.w3.org/2000/svg" xmlns:xlink="http://www.w3.org/1999/xlink" x="0px" y="0px"
	 viewBox="0 0 521 281.44" style="enable-background:new 0 0 521 281.44;" xml:space="preserve">
<style type="text/css">
	.st0{fill:#FFFFFF;stroke:#FFFFFF;stroke-width:18;stroke-miterlimit:10;}
	.st1{fill:#1E1F1D;stroke:#FFFFFF;stroke-width:18;stroke-miterlimit:10;}
	.st2{fill:#53AD32;stroke:#FFFFFF;stroke-width:18;stroke-miterlimit:10;}
	.st3{fill:#FFFFFF;}
	.st4{fill:#1E1F1D;}
	.st5{fill:#53AD32;}
</style>
<g>
	<g>
		<path class="st0" d="M207.9,88.32c-6.23-21.04-20.6-38.48-40.47-49.12c-12.59-6.74-26.81-10.34-41.15-10.4
			c-31.07-0.13-59.77,15.95-74.89,41.93c-11.08,19.04-13.76,41.13-7.53,62.16c6.22,21.04,20.59,38.48,40.45,49.12
			c12.59,6.74,26.82,10.33,41.16,10.39c31.07,0.13,59.77-15.94,74.89-41.92C211.44,131.43,214.12,109.36,207.9,88.32"/>
		<path class="st1" d="M241.59,267.32l204.17,0.82c0.7,0,1.39-0.01,2.04-0.01l4.92,0.02c0,0,12.47,0.73,12.52-13.09
			c0.03-6.21,0,0,0,0l-0.71-51.63c9.16-9.62,19.19-14.81,29.85-39.35c0.76-1.76,1.7-3.53,1.95-5.38c1.01-1.56,1.38-3.33,1.94-5.18
			c3.73-12.26,5.05-24.95,3.91-37.74c-0.44-5.01-1.27-10.02-2.46-14.89c-5.22-21.29-17.6-40.53-34.86-54.18
			c-17.34-13.7-39.02-21.3-61.06-21.39c-3.09-0.01-6.23,0.13-9.31,0.41c-11.21,0.99-21.93,3.88-31.82,8.33
			c-3.62-6.32-10.34-10.25-17.65-10.28c-0.03,0-0.06,0-0.09,0l-49.87,0.03c-6.69,0.01-12.95,3.29-16.78,8.78l-14.5,20.87
			l-14.33-20.99c-3.78-5.52-10.01-8.85-16.71-8.91l-49.87-0.44c-0.04,0-0.06,0-0.1,0c-7.58-0.03-14.56,4.14-18.12,10.84
			c-0.2,0.36-0.38,0.75-0.55,1.12c-13.88-7.12-29.31-10.9-44.85-10.96c-36.16-0.15-69.56,19.36-87.16,50.9
			c-26.68,47.81-9.5,108.39,38.3,135.07c14.64,8.18,31.22,12.54,47.91,12.61c17.11,0.07,33.6-4.26,48.1-12.21
			c0.2,0.47,0.42,0.92,0.65,1.36c3.51,6.74,10.46,10.98,18.06,11.01l44.21,0.18l-0.13,31.54
			C229.17,254.58,228.34,267.27,241.59,267.32"/>
		<path class="st2" d="M193.74,165.24c11.38-20.39,14.14-43.99,7.77-66.45c-6.37-22.47-21.1-41.1-41.49-52.48
			c-12.9-7.2-27.49-11.05-42.18-11.11C86,35.08,56.59,52.27,41.09,80.03c-23.49,42.1-8.36,95.45,33.72,118.93
			c12.9,7.21,27.49,11.05,42.18,11.11C148.82,210.2,178.24,193.02,193.74,165.24"/>
		<path class="st2" d="M349.51,50.89c1.96-2.81,2.2-6.49,0.61-9.54c-1.6-3.06-4.76-4.98-8.18-4.96l-49,0.03
			c-3.02,0.01-5.85,1.48-7.58,3.97l-23.24,33.45L239.16,40.2c-1.71-2.51-4.53-4-7.55-4.03l-49-0.42c-3.45,0-6.6,1.85-8.22,4.89
			c-1.61,3.03-1.41,6.72,0.53,9.54l51.45,75.11l-48.97,70.48c-1.96,2.81-2.19,6.48-0.61,9.52c1.58,3.04,4.72,4.96,8.15,4.97
			l48.48,0.2c3.03,0.01,5.87-1.47,7.61-3.96L349.51,50.89z"/>
		<path class="st0" d="M244.92,253.22c-0.01,1.43-0.33,2.5-0.96,3.2c-0.64,0.71-1.59,1.06-2.86,1.06c-1.23,0-2.17-0.37-2.81-1.1
			c-0.64-0.73-0.96-1.79-0.95-3.18l0.12-29.1c0.01-2.38,0.36-4.01,1.04-4.86c0.67-0.85,1.89-1.27,3.65-1.26l17.76,0.07
			c1.36,0.01,2.4,0.3,3.1,0.89c0.7,0.58,1.04,1.44,1.04,2.56c0,1.1-0.36,1.92-1.06,2.48c-0.71,0.57-1.75,0.85-3.11,0.84l-14.84-0.06
			L245,233.6l12.55,0.05c1.37,0.01,2.4,0.3,3.11,0.89c0.7,0.59,1.05,1.44,1.05,2.55c0,1.11-0.36,1.96-1.07,2.52
			c-0.71,0.56-1.74,0.84-3.11,0.83l-12.55-0.05L244.92,253.22z"/>
		<path class="st0" d="M273.43,252.83c-0.01,1.64-0.29,2.85-0.87,3.61c-0.58,0.77-1.48,1.16-2.72,1.15
			c-1.27-0.01-2.19-0.38-2.76-1.15c-0.57-0.74-0.85-1.96-0.85-3.64l0.12-29.14c0.01-2.37,0.35-3.99,1.03-4.84
			c0.68-0.85,1.89-1.27,3.65-1.26l2.69,0.01c1.53,0.01,2.63,0.3,3.31,0.92c0.68,0.61,1.34,2.25,1.97,4.9l6.04,24.46l6.01-23.91
			c0.68-2.71,1.37-4.42,2.06-5.17c0.68-0.75,1.71-1.12,3.05-1.11l3.07,0.01c1.77,0.01,2.97,0.43,3.65,1.31
			c0.67,0.87,1.01,2.48,1,4.84l-0.12,29.14c-0.01,1.64-0.31,2.85-0.89,3.61c-0.59,0.77-1.49,1.16-2.71,1.15
			c-1.26-0.01-2.19-0.4-2.76-1.16c-0.57-0.75-0.85-1.96-0.85-3.63l0.11-27.2l-6.55,26.58c-0.52,1.99-1.15,3.39-1.91,4.17
			c-0.76,0.78-1.83,1.18-3.21,1.17c-1.35-0.01-2.42-0.42-3.21-1.25c-0.79-0.82-1.43-2.21-1.91-4.14l-6.34-26.64L273.43,252.83z"/>
		<path class="st2" d="M307.75,252.2c0.01-1.71,0.63-3.2,1.88-4.45c1.25-1.24,2.74-1.87,4.48-1.86c1.79,0.01,3.31,0.62,4.54,1.87
			c1.24,1.23,1.85,2.73,1.85,4.49c-0.01,1.76-0.65,3.27-1.92,4.52c-1.27,1.25-2.78,1.87-4.52,1.86c-1.71-0.01-3.19-0.65-4.44-1.92
			C308.36,255.44,307.74,253.93,307.75,252.2"/>
		<path class="st0" d="M193.76,100.99c-5.8-20.42-19.17-37.35-37.65-47.67c-11.72-6.55-24.96-10.03-38.3-10.08
			c-28.92-0.12-55.63,15.49-69.7,40.71c-10.32,18.47-12.82,39.91-7.03,60.32c5.8,20.43,19.16,37.35,37.65,47.67
			c11.71,6.55,24.96,10.03,38.3,10.08c28.92,0.12,55.63-15.47,69.7-40.7C197.05,142.85,199.54,121.41,193.76,100.99"/>
		<path class="st0" d="M232.74,130.08l-45.46,65.42c-0.92,1.32-1.02,3.05-0.28,4.48c0.75,1.43,2.23,2.33,3.84,2.34l41,0.17
			c1.42,0.01,2.76-0.69,3.58-1.86L339.6,51.18c0.93-1.32,1.03-3.06,0.29-4.48c-0.75-1.43-2.22-2.33-3.83-2.34l-0.02,0l-41.5,0.02
			c-1.41,0.01-2.75,0.69-3.56,1.86l-25.36,36.5c-3.81,6.19-6.92,0.21-6.92,0.21l-25.22-36.94c-0.8-1.18-2.12-1.87-3.55-1.89
			l-41.48-0.36l-0.02,0c-1.61-0.01-3.1,0.88-3.85,2.31c-0.76,1.42-0.66,3.15,0.25,4.48l47.72,69.65
			C232.55,120.2,236.84,123.91,232.74,130.08"/>
		<path class="st2" d="M282.89,173.4c0.02-4.21,1.56-7.85,4.62-10.92c3.06-3.07,6.73-4.61,11-4.59c4.39,0.02,8.11,1.55,11.15,4.59
			c3.03,3.03,4.55,6.71,4.53,11.05c-0.02,4.33-1.59,8.03-4.71,11.09c-3.12,3.07-6.82,4.59-11.09,4.58
			c-4.21-0.02-7.85-1.58-10.92-4.7C284.39,181.38,282.87,177.67,282.89,173.4"/>
		<path class="st2" d="M92.32,167.45c-2.63-0.01-4.75-1.32-4.74-2.92l0.16-39.23l0.01-3.36l0.16-38.92
			c0.01-1.61,2.13-2.89,4.76-2.88c2.62,0.01,4.75,1.31,4.74,2.92l-0.16,38.98l-0.01,3.37l-0.16,39.16
			C97.07,166.16,94.94,167.46,92.32,167.45"/>
		<path class="st2" d="M79.9,154.93c-2.34-0.01-4.23-1.12-4.23-2.47l0.11-27.5l0.01-2.84L75.9,95c0.01-1.36,1.91-2.44,4.25-2.43
			c2.34,0.01,4.23,1.11,4.23,2.47l-0.11,27.16l-0.01,2.85l-0.11,27.44C84.13,153.84,82.24,154.93,79.9,154.93"/>
		<path class="st2" d="M67.47,142.4c-2.04-0.01-3.7-0.94-3.69-2.08l0.06-15.66l0.01-2.39l0.06-15.23c0-1.14,1.67-2.06,3.71-2.05
			c2.04,0.01,3.69,0.94,3.69,2.08l-0.06,15.28l-0.01,2.39l-0.06,15.62C71.17,141.49,69.52,142.41,67.47,142.4"/>
		<path class="st2" d="M104.74,179.97c-2.53-0.01-4.58-1.36-4.58-3.01l0.21-51.6l0.01-3.2l0.21-51.46c0.01-1.65,2.07-3,4.6-2.98
			c2.53,0.01,4.59,1.37,4.58,3.02l-0.21,51.53l-0.01,3.19L109.34,177C109.34,178.65,107.27,179.98,104.74,179.97"/>
		<path class="st2" d="M142.71,167.65c2.63,0.01,4.76-1.28,4.77-2.88l0.16-39.23l0.01-3.36l0.16-38.92
			c0.01-1.61-2.12-2.91-4.75-2.92c-2.63-0.01-4.76,1.27-4.76,2.88l-0.16,38.98l-0.01,3.37l-0.16,39.16
			C137.96,166.33,140.08,167.64,142.71,167.65"/>
		<path class="st2" d="M155.23,155.23c2.33,0.01,4.23-1.09,4.24-2.43l0.11-27.5l0.01-2.84l0.11-27.11c0.01-1.36-1.88-2.46-4.22-2.47
			c-2.34-0.01-4.24,1.07-4.25,2.43l-0.11,27.16l-0.01,2.85l-0.11,27.44C151,154.11,152.89,155.22,155.23,155.23"/>
		<path class="st2" d="M167.75,142.81c2.05,0.01,3.71-0.91,3.72-2.05l0.06-15.66l0.01-2.39l0.06-15.23c0-1.14-1.65-2.07-3.7-2.08
			c-2.04-0.01-3.7,0.91-3.7,2.05l-0.06,15.28l-0.01,2.39l-0.06,15.62C164.06,141.87,165.71,142.8,167.75,142.81"/>
		<path class="st2" d="M130.18,180.07c2.53,0.01,4.6-1.32,4.61-2.97l0.21-51.6l0.01-3.2l0.21-51.46c0.01-1.65-2.05-3.01-4.58-3.02
			c-2.53-0.01-4.6,1.33-4.61,2.98l-0.21,51.53l-0.01,3.19l-0.21,51.54C125.6,178.72,127.65,180.06,130.18,180.07"/>
		<path class="st2" d="M481.35,166.3c11.38-20.38,14.14-43.99,7.77-66.45c-6.36-22.47-21.11-41.1-41.49-52.48
			c-12.91-7.2-27.49-11.03-42.18-11.09c-31.84-0.13-61.25,17.05-76.75,44.82c-23.49,42.08-8.36,95.43,33.73,118.92
			c12.9,7.21,27.48,11.05,42.18,11.11l0,0C436.43,211.25,465.84,194.08,481.35,166.3"/>
		<path class="st0" d="M377.69,141.12l99.84,0.4c1.98,0.01,3.39-1.44,4.24-3.23c2.56-5.29,3.28-12.24,2.44-21.66
			c-0.36-4.03-1.03-8.04-1.99-11.94c-8.69-35.48-40.27-60.35-76.79-60.5c-2.48-0.01-5,0.1-7.48,0.31
			c-33.55,3-61.67,26.92-69.99,59.56c-2.22,8.72-2.94,17.7-2.14,26.7c0.47,5.22,1.45,10.42,2.95,15.46
			c9.83,33.41,41.02,56.83,75.83,56.97c2.48,0.01,5-0.09,7.48-0.31c13.38-1.2,26.33-5.81,37.45-13.33
			c11.08-7.5,20.17-17.76,26.26-29.68c0.7-1.36,0.63-2.98-0.15-4.27c-0.8-1.31-2.2-2.1-3.73-2.1l-38.99-0.16
			c-1.04,0-2.04,0.34-2.83,1.01c-5.96,4.96-13.21,7.96-20.99,8.64c-1.2,0.11-2.41,0.17-3.6,0.16c-11.45-0.05-22.04-5.13-29.14-13.81
			C369.9,141.38,377.69,141.12,377.69,141.12 M431.67,105.85l-52.75-0.21c-5,0.14-1.26-3.71-1.26-3.71
			c6.29-6.55,14.74-10.63,24.03-11.45c1.19-0.11,2.4-0.17,3.6-0.16c10.66,0.04,20.59,4.46,27.65,12.09
			C432.93,102.41,437.64,105.87,431.67,105.85"/>
		<g>
			<path class="st0" d="M323,236.89c0.05-13.48,9.74-21.22,20.7-21.18c4.97,0.02,8.79,1.98,11.73,4.52l-5.07,6.83
				c-2.01-1.74-3.88-2.68-6.19-2.69c-6.13-0.02-10.33,4.93-10.36,12.57c-0.03,7.57,4.13,12.49,9.97,12.51
				c2.88,0.01,5.63-1.35,7.87-3.21l4.15,7.01c-3.83,3.37-8.74,4.86-13.21,4.85C331.42,258.04,322.95,250.22,323,236.89z"/>
			<path class="st0" d="M355.22,237.02c0.05-13.48,9.38-21.22,19.47-21.18c10.09,0.04,19.36,7.86,19.3,21.34
				c-0.05,13.33-9.38,21.08-19.47,21.04C364.43,258.17,355.17,250.35,355.22,237.02z M383.19,237.13
				c0.03-7.64-3.05-12.62-8.53-12.65c-5.48-0.02-8.6,4.94-8.63,12.58c-0.03,7.57,3.05,12.48,8.53,12.5
				C380.04,249.59,383.16,244.7,383.19,237.13z"/>
			<path class="st0" d="M399.35,216.94l8.65,0.03l0.7,5.41l0.29,0c3.4-3.52,7.16-6.38,12.42-6.36c5.77,0.02,9.14,2.63,11.07,7.11
				c3.69-3.88,7.6-7.03,12.86-7.01c8.58,0.03,12.52,6.1,12.48,16.27l-0.1,25.15l-10.59-0.04l0.1-23.85c0.02-6.2-1.77-8.44-5.59-8.46
				c-2.31-0.01-4.91,1.49-7.8,4.51l-0.11,27.75l-10.6-0.04l0.1-23.85c0.03-6.2-1.77-8.44-5.59-8.46c-2.31-0.01-4.91,1.49-7.8,4.51
				l-0.11,27.75l-10.52-0.04L399.35,216.94z"/>
		</g>
	</g>
	<g>
		<path class="st3" d="M209.1,88.32c-6.23-21.04-20.6-38.48-40.47-49.12c-12.59-6.74-26.81-10.34-41.15-10.4
			c-31.07-0.13-59.77,15.95-74.89,41.93c-11.08,19.04-13.76,41.13-7.53,62.16c6.22,21.04,20.59,38.48,40.45,49.12
			c12.59,6.74,26.82,10.33,41.16,10.39c31.07,0.13,59.77-15.94,74.89-41.92C212.65,131.43,215.33,109.36,209.1,88.32"/>
		<path class="st4" d="M242.79,267.32l204.17,0.82c0.7,0,1.39-0.01,2.04-0.01l4.92,0.02c0,0,12.47,0.73,12.52-13.09
			c0.03-6.21,0,0,0,0l-0.71-51.63c9.16-9.62,19.19-14.81,29.85-39.35c0.76-1.76,1.7-3.53,1.95-5.38c1.01-1.56,1.38-3.33,1.94-5.18
			c3.73-12.26,5.05-24.95,3.91-37.74c-0.44-5.01-1.27-10.02-2.46-14.89c-5.22-21.29-17.6-40.53-34.86-54.18
			c-17.34-13.7-39.02-21.3-61.06-21.39c-3.09-0.01-6.23,0.13-9.31,0.41c-11.21,0.99-21.93,3.88-31.82,8.33
			c-3.62-6.32-10.34-10.25-17.65-10.28c-0.03,0-0.06,0-0.09,0l-49.87,0.03c-6.69,0.01-12.95,3.29-16.78,8.78l-14.5,20.87
			l-14.33-20.99c-3.78-5.52-10.01-8.85-16.71-8.91l-49.87-0.44c-0.04,0-0.06,0-0.1,0c-7.58-0.03-14.56,4.14-18.12,10.84
			c-0.2,0.36-0.38,0.75-0.55,1.12c-13.88-7.12-29.31-10.9-44.85-10.96c-36.16-0.15-69.56,19.36-87.16,50.9
			c-26.68,47.81-9.5,108.39,38.3,135.07c14.64,8.18,31.22,12.54,47.91,12.61c17.11,0.07,33.6-4.26,48.1-12.21
			c0.2,0.47,0.42,0.92,0.65,1.36c3.51,6.74,10.46,10.98,18.06,11.01l44.21,0.18l-0.13,31.54
			C230.37,254.58,229.55,267.27,242.79,267.32"/>
		<path class="st5" d="M194.95,165.24c11.38-20.39,14.14-43.99,7.77-66.45c-6.37-22.47-21.1-41.1-41.49-52.48
			c-12.9-7.2-27.49-11.05-42.18-11.11C87.2,35.08,57.8,52.27,42.3,80.03c-23.49,42.1-8.36,95.45,33.72,118.93
			c12.9,7.21,27.49,11.05,42.18,11.11C150.03,210.2,179.45,193.02,194.95,165.24"/>
		<path class="st5" d="M350.72,50.89c1.96-2.81,2.2-6.49,0.61-9.54c-1.6-3.06-4.76-4.98-8.18-4.96l-49,0.03
			c-3.02,0.01-5.85,1.48-7.58,3.97l-23.24,33.45L240.36,40.2c-1.71-2.51-4.53-4-7.55-4.03l-49-0.42c-3.45,0-6.6,1.85-8.22,4.89
			c-1.61,3.03-1.41,6.72,0.53,9.54l51.45,75.11l-48.97,70.48c-1.96,2.81-2.19,6.48-0.61,9.52c1.58,3.04,4.72,4.96,8.15,4.97
			l48.48,0.2c3.03,0.01,5.87-1.47,7.61-3.96L350.72,50.89z"/>
		<path class="st3" d="M246.12,253.22c-0.01,1.43-0.33,2.5-0.96,3.2c-0.64,0.71-1.59,1.06-2.86,1.06c-1.23,0-2.17-0.37-2.81-1.1
			c-0.64-0.73-0.96-1.79-0.95-3.18l0.12-29.1c0.01-2.38,0.36-4.01,1.04-4.86c0.67-0.85,1.89-1.27,3.65-1.26l17.76,0.07
			c1.36,0.01,2.4,0.3,3.1,0.89c0.7,0.58,1.04,1.44,1.04,2.56c0,1.1-0.36,1.92-1.06,2.48c-0.71,0.57-1.75,0.85-3.11,0.84l-14.84-0.06
			l-0.04,8.85l12.55,0.05c1.37,0.01,2.4,0.3,3.11,0.89c0.7,0.59,1.05,1.44,1.05,2.55c0,1.11-0.36,1.96-1.07,2.52
			s-1.74,0.84-3.11,0.83l-12.55-0.05L246.12,253.22z"/>
		<path class="st3" d="M274.63,252.83c-0.01,1.64-0.29,2.85-0.87,3.61c-0.58,0.77-1.48,1.16-2.72,1.15
			c-1.27-0.01-2.19-0.38-2.76-1.15c-0.57-0.74-0.85-1.96-0.85-3.64l0.12-29.14c0.01-2.37,0.35-3.99,1.03-4.84
			c0.68-0.85,1.89-1.27,3.65-1.26l2.69,0.01c1.53,0.01,2.63,0.3,3.31,0.92c0.68,0.61,1.34,2.25,1.97,4.9l6.04,24.46l6.01-23.91
			c0.68-2.71,1.37-4.42,2.06-5.17c0.68-0.75,1.71-1.12,3.05-1.11l3.07,0.01c1.77,0.01,2.97,0.43,3.65,1.31
			c0.67,0.87,1.01,2.48,1,4.84l-0.12,29.14c-0.01,1.64-0.31,2.85-0.89,3.61c-0.59,0.77-1.49,1.16-2.71,1.15
			c-1.26-0.01-2.19-0.4-2.76-1.16c-0.57-0.75-0.85-1.96-0.85-3.63l0.11-27.2l-6.55,26.58c-0.52,1.99-1.15,3.39-1.91,4.17
			c-0.76,0.78-1.83,1.18-3.21,1.17c-1.35-0.01-2.42-0.42-3.21-1.25c-0.79-0.82-1.43-2.21-1.91-4.14l-6.34-26.64L274.63,252.83z"/>
		<path class="st5" d="M308.95,252.2c0.01-1.71,0.63-3.2,1.88-4.45c1.25-1.24,2.74-1.87,4.48-1.86c1.79,0.01,3.31,0.62,4.54,1.87
			c1.24,1.23,1.85,2.73,1.85,4.49c-0.01,1.76-0.65,3.27-1.92,4.52c-1.27,1.25-2.78,1.87-4.52,1.86c-1.71-0.01-3.19-0.65-4.44-1.92
			C309.56,255.44,308.94,253.93,308.95,252.2"/>
		<path class="st3" d="M194.96,100.99c-5.8-20.42-19.17-37.35-37.65-47.67c-11.72-6.55-24.96-10.03-38.3-10.08
			c-28.92-0.12-55.63,15.49-69.7,40.71c-10.32,18.47-12.82,39.91-7.03,60.32c5.8,20.43,19.16,37.35,37.65,47.67
			c11.71,6.55,24.96,10.03,38.3,10.08c28.92,0.12,55.63-15.47,69.7-40.7C198.25,142.85,200.75,121.41,194.96,100.99"/>
		<path class="st3" d="M233.94,130.08l-45.46,65.42c-0.92,1.32-1.02,3.05-0.28,4.48c0.75,1.43,2.23,2.33,3.84,2.34l41,0.17
			c1.42,0.01,2.76-0.69,3.58-1.86L340.81,51.18c0.93-1.32,1.03-3.06,0.29-4.48c-0.75-1.43-2.22-2.33-3.83-2.34l-0.02,0l-41.5,0.02
			c-1.41,0.01-2.75,0.69-3.56,1.86l-25.36,36.5c-3.81,6.19-6.92,0.21-6.92,0.21l-25.22-36.94c-0.8-1.18-2.12-1.87-3.55-1.89
			l-41.48-0.36l-0.02,0c-1.61-0.01-3.1,0.88-3.85,2.31c-0.76,1.42-0.66,3.15,0.25,4.48l47.72,69.65
			C233.75,120.2,238.05,123.91,233.94,130.08"/>
		<path class="st5" d="M284.09,173.4c0.02-4.21,1.56-7.85,4.62-10.92c3.06-3.07,6.73-4.61,11-4.59c4.39,0.02,8.11,1.55,11.15,4.59
			c3.03,3.03,4.55,6.71,4.53,11.05c-0.02,4.33-1.59,8.03-4.71,11.09c-3.12,3.07-6.82,4.59-11.09,4.58
			c-4.21-0.02-7.85-1.58-10.92-4.7C285.6,181.38,284.07,177.67,284.09,173.4"/>
		<path class="st5" d="M93.52,167.45c-2.63-0.01-4.75-1.32-4.74-2.92l0.16-39.23l0.01-3.36l0.16-38.92
			c0.01-1.61,2.13-2.89,4.76-2.88c2.62,0.01,4.75,1.31,4.74,2.92l-0.16,38.98l-0.01,3.37l-0.16,39.16
			C98.28,166.16,96.14,167.46,93.52,167.45"/>
		<path class="st5" d="M81.1,154.93c-2.34-0.01-4.23-1.12-4.23-2.47l0.11-27.5l0.01-2.84L77.1,95c0.01-1.36,1.91-2.44,4.25-2.43
			c2.34,0.01,4.23,1.11,4.23,2.47l-0.11,27.16l-0.01,2.85l-0.11,27.44C85.34,153.84,83.44,154.93,81.1,154.93"/>
		<path class="st5" d="M68.68,142.4c-2.04-0.01-3.7-0.94-3.69-2.08l0.06-15.66l0.01-2.39l0.06-15.23c0-1.14,1.67-2.06,3.71-2.05
			c2.04,0.01,3.69,0.94,3.69,2.08l-0.06,15.28l-0.01,2.39l-0.06,15.62C72.38,141.49,70.72,142.41,68.68,142.4"/>
		<path class="st5" d="M105.94,179.97c-2.53-0.01-4.58-1.36-4.58-3.01l0.21-51.6l0.01-3.2l0.21-51.46c0.01-1.65,2.07-3,4.6-2.98
			c2.53,0.01,4.59,1.37,4.58,3.02l-0.21,51.53l-0.01,3.19L110.55,177C110.54,178.65,108.48,179.98,105.94,179.97"/>
		<path class="st5" d="M143.91,167.65c2.63,0.01,4.76-1.28,4.77-2.88l0.16-39.23l0.01-3.36l0.16-38.92
			c0.01-1.61-2.12-2.91-4.75-2.92c-2.63-0.01-4.76,1.27-4.76,2.88l-0.16,38.98l-0.01,3.37l-0.16,39.16
			C139.16,166.33,141.28,167.64,143.91,167.65"/>
		<path class="st5" d="M156.44,155.23c2.33,0.01,4.23-1.09,4.24-2.43l0.11-27.5l0.01-2.84l0.11-27.11c0.01-1.36-1.88-2.46-4.22-2.47
			c-2.34-0.01-4.24,1.07-4.25,2.43l-0.11,27.16l-0.01,2.85l-0.11,27.44C152.21,154.11,154.1,155.22,156.44,155.23"/>
		<path class="st5" d="M168.95,142.81c2.05,0.01,3.71-0.91,3.72-2.05l0.06-15.66l0.01-2.39l0.06-15.23c0-1.14-1.65-2.07-3.7-2.08
			c-2.04-0.01-3.7,0.91-3.7,2.05l-0.06,15.28l-0.01,2.39l-0.06,15.62C165.26,141.87,166.91,142.8,168.95,142.81"/>
		<path class="st5" d="M131.39,180.07c2.53,0.01,4.6-1.32,4.61-2.97l0.21-51.6l0.01-3.2l0.21-51.46c0.01-1.65-2.05-3.01-4.58-3.02
			c-2.53-0.01-4.6,1.33-4.61,2.98l-0.21,51.53l-0.01,3.19l-0.21,51.54C126.8,178.72,128.85,180.06,131.39,180.07"/>
		<path class="st5" d="M482.55,166.3c11.38-20.38,14.14-43.99,7.77-66.45c-6.36-22.47-21.11-41.1-41.49-52.48
			c-12.91-7.2-27.49-11.03-42.18-11.09c-31.84-0.13-61.25,17.05-76.75,44.82c-23.49,42.08-8.36,95.43,33.73,118.92
			c12.9,7.21,27.48,11.05,42.18,11.11l0,0C437.63,211.25,467.05,194.08,482.55,166.3"/>
		<path class="st3" d="M378.89,141.12l99.84,0.4c1.98,0.01,3.39-1.44,4.24-3.23c2.56-5.29,3.28-12.24,2.44-21.66
			c-0.36-4.03-1.03-8.04-1.99-11.94c-8.69-35.48-40.27-60.35-76.79-60.5c-2.48-0.01-5,0.1-7.48,0.31
			c-33.55,3-61.67,26.92-69.99,59.56c-2.22,8.72-2.94,17.7-2.14,26.7c0.47,5.22,1.45,10.42,2.95,15.46
			c9.83,33.41,41.02,56.83,75.83,56.97c2.48,0.01,5-0.09,7.48-0.31c13.38-1.2,26.33-5.81,37.45-13.33
			c11.08-7.5,20.17-17.76,26.26-29.68c0.7-1.36,0.63-2.98-0.15-4.27c-0.8-1.31-2.2-2.1-3.73-2.1l-38.99-0.16
			c-1.04,0-2.04,0.34-2.83,1.01c-5.96,4.96-13.21,7.96-20.99,8.64c-1.2,0.11-2.41,0.17-3.6,0.16c-11.45-0.05-22.04-5.13-29.14-13.81
			C371.1,141.38,378.89,141.12,378.89,141.12 M432.88,105.85l-52.75-0.21c-5,0.14-1.26-3.71-1.26-3.71
			c6.29-6.55,14.74-10.63,24.03-11.45c1.19-0.11,2.4-0.17,3.6-0.16c10.66,0.04,20.59,4.46,27.65,12.09
			C434.13,102.41,438.85,105.87,432.88,105.85"/>
		<g>
			<path class="st3" d="M324.2,236.89c0.05-13.48,9.74-21.22,20.7-21.18c4.97,0.02,8.79,1.98,11.73,4.52l-5.07,6.83
				c-2.01-1.74-3.88-2.68-6.19-2.69c-6.13-0.02-10.33,4.93-10.36,12.57c-0.03,7.57,4.13,12.49,9.97,12.51
				c2.88,0.01,5.63-1.35,7.87-3.21l4.15,7.01c-3.83,3.37-8.74,4.86-13.21,4.85C332.62,258.04,324.15,250.22,324.2,236.89z"/>
			<path class="st3" d="M356.43,237.02c0.05-13.48,9.38-21.22,19.47-21.18c10.09,0.04,19.36,7.86,19.3,21.34
				c-0.05,13.33-9.38,21.08-19.47,21.04C365.64,258.17,356.37,250.35,356.43,237.02z M384.39,237.13
				c0.03-7.64-3.05-12.62-8.53-12.65c-5.48-0.02-8.6,4.94-8.63,12.58c-0.03,7.57,3.05,12.48,8.53,12.5
				C381.24,249.59,384.36,244.7,384.39,237.13z"/>
			<path class="st3" d="M400.55,216.94l8.65,0.03l0.7,5.41l0.29,0c3.4-3.52,7.16-6.38,12.42-6.36c5.77,0.02,9.14,2.63,11.07,7.11
				c3.69-3.88,7.6-7.03,12.86-7.01c8.58,0.03,12.52,6.1,12.48,16.27l-0.1,25.15l-10.59-0.04l0.1-23.85c0.02-6.2-1.77-8.44-5.59-8.46
				c-2.31-0.01-4.91,1.49-7.8,4.51l-0.11,27.75l-10.6-0.04l0.1-23.85c0.03-6.2-1.77-8.44-5.59-8.46c-2.31-0.01-4.91,1.49-7.8,4.51
				l-0.11,27.75l-10.52-0.04L400.55,216.94z"/>
		</g>
	</g>
</g>
</svg>
