<?xml version="1.0" encoding="utf-8"?>
<!-- Generator: Adobe Illustrator 26.5.0, SVG Export Plug-In . SVG Version: 6.00 Build 0)  -->
<svg version="1.1" id="Capa_1" xmlns="http://www.w3.org/2000/svg" xmlns:xlink="http://www.w3.org/1999/xlink" x="0px" y="0px"
	 viewBox="0 0 521 281.4" style="enable-background:new 0 0 521 281.4;" xml:space="preserve">
<style type="text/css">
	.st0{fill:#F7C100;stroke:#FFFFFF;stroke-width:12;stroke-miterlimit:10;}
	.st1{fill:#F5E600;stroke:#FFFFFF;stroke-width:12;stroke-miterlimit:10;}
	.st2{fill:#F9C500;stroke:#FFFFFF;stroke-width:12;stroke-miterlimit:10;}
	.st3{fill:#DB2675;stroke:#FFFFFF;stroke-width:12;stroke-miterlimit:10;}
	.st4{fill:#F7C100;}
	.st5{fill:#F5E600;}
	.st6{fill:#F9C500;}
	.st7{fill:#DB2675;}
</style>
<g>
	<g id="XMLID_00000133487091673663688340000006764546641637374104_">
		<g id="XMLID_00000115489689186629450060000005723051722090483614_">
			<polygon id="XMLID_00000112605541825548642990000013741878423331174577_" class="st0" points="97.2,189.5 214.4,81.9 
				214.4,161.8 131.1,237.9 97.3,250.9 			"/>
			<polygon id="XMLID_00000139277464070891314880000008273084643954154626_" class="st0" points="99.1,82.4 24.6,160.9 24.6,101.9 
				99.1,27 			"/>
			<path id="XMLID_00000036228426215701150290000011621777535556539046_" class="st1" d="M214.4,161.8L34.1,195.7
				c-4.9,0.9-9.5-2.9-9.5-7.9v-86l180.3-33.9c4.9-0.9,9.5,2.9,9.5,7.9V161.8z"/>
			<path id="XMLID_00000155140064816547289810000015850355568998290602_" class="st2" d="M210.2,234.8l-67,40.9
				c-2.8,1.7-6.3-0.3-6.3-3.5v-42.5l73.2-38V234.8z"/>
			<path id="XMLID_00000130623213776026242790000010242279322919330750_" class="st1" d="M210.2,234.8L102.6,256
				c-2.8,0.7-5.4-1-5.4-5.6v-60.9l107.6-21.2c2.8-0.7,5.4,2,5.4,5.6V234.8z"/>
			<g id="XMLID_00000016795762892248189340000011177409188831355012_">
				<path id="XMLID_00000104702780570603452300000016760522661704741784_" class="st3" d="M90.1,177.4l4.1-82.2l47.5-8.6l4.2,80.7
					l-22.6,4.1l-0.6-23.8l-9.5,1.7l-0.6,24L90.1,177.4z M121.9,131.7l-1-25.4l-5.9,1.1l-1,25.7L121.9,131.7z"/>
				<path id="XMLID_00000144298279973209996680000012821087563692386441_" class="st3" d="M148.4,166.9V85.4l22.6-4.1l11,29.5V79.3
					l22.6-4.1v81.5l-21.8,4L171,131.2v31.5L148.4,166.9z"/>
			</g>
			<g id="XMLID_00000007422459466992180060000002130463190627892613_">
				<polygon id="XMLID_00000054973280960110637880000012949994466361774986_" class="st3" points="34.3,106 34.3,187.5 56.9,183.4 
					56.9,150.6 83.9,145.7 84.7,129.5 56.9,134.6 56.9,117.9 89.6,112 90.4,95.8 				"/>
			</g>
			<g id="XMLID_00000067212087257333791560000002069095836323399852_">
				<path id="XMLID_00000046322844648314468340000011285999768256453283_" class="st3" d="M105.4,249.5v-58.1l37.3-7.3v11.4
					l-22.3,4.3v11.9l18.6-3.6v11.4l-18.6,3.6v23.4L105.4,249.5z"/>
				<path id="XMLID_00000110468216579214232860000014009268109860199592_" class="st3" d="M145.2,241.7v-58.1l22.3-4.3l6.3,28.4
					l6.3-30.8l22.3-4.3v58.1l-15,2.9V199l-7.8,36l-11.6,2.3l-7.8-33v34.5L145.2,241.7z"/>
			</g>
			<path id="XMLID_00000020400899330200289210000015099922803726934168_" class="st2" d="M11.3,37.8L62.5,6.5
				c2.1-1.3,4.8,0.2,4.8,2.7v32.5l-56,29V37.8z"/>
			<path id="XMLID_00000172420251587883918420000010159188234671738252_" class="st1" d="M11.3,37.8l82.9-16.4
				c2.6-0.6,4.9,1,4.9,5.1v55.9L16.2,98.8c-2.6,0.6-4.9-1.9-4.9-5.1V37.8z"/>
		</g>
		<g id="XMLID_00000003102031681478026470000000433746871237604021_">
			<path id="XMLID_00000037671457601179067940000000345470938330992794_" class="st3" d="M22.1,40.2l13.3-2.6v41.5l19.8-3.9v10.1
				l-33.2,6.4V40.2z"/>
			<path id="XMLID_00000040537888341438034200000012522917582912826043_" class="st3" d="M56.7,85.1L59.1,33l28.1-5.5l2.5,51.1
				l-13.3,2.6l-0.4-15l-5.6,1.1L70,82.5L56.7,85.1z M75.5,56.1l-0.6-16.1l-3.5,0.7L70.8,57L75.5,56.1z"/>
		</g>
	</g>
	<g id="XMLID_911_">
		<g id="XMLID_918_">
			<polygon id="XMLID_944_" class="st4" points="98.3,190 215.5,82.4 215.5,162.3 132.2,238.4 98.4,251.4 			"/>
			<polygon id="XMLID_942_" class="st4" points="100.2,82.9 25.7,161.4 25.7,102.4 100.2,27.5 			"/>
			<path id="XMLID_940_" class="st5" d="M215.5,162.3L35.2,196.2c-4.9,0.9-9.5-2.9-9.5-7.9v-86L206,68.4c4.9-0.9,9.5,2.9,9.5,7.9
				V162.3z"/>
			<path id="XMLID_938_" class="st6" d="M211.3,235.3l-67,40.9c-2.8,1.7-6.3-0.3-6.3-3.5v-42.5l73.2-38V235.3z"/>
			<path id="XMLID_936_" class="st5" d="M211.3,235.3l-107.6,21.2c-2.8,0.7-5.4-1-5.4-5.6V190l107.6-21.2c2.8-0.7,5.4,2,5.4,5.6
				V235.3z"/>
			<g id="XMLID_930_">
				<path id="XMLID_933_" class="st7" d="M91.2,177.9l4.1-82.2l47.5-8.6l4.2,80.7l-22.6,4.1l-0.6-23.8l-9.5,1.7l-0.6,24L91.2,177.9z
					 M122.9,132.2l-1-25.4l-5.9,1.1l-1,25.7L122.9,132.2z"/>
				<path id="XMLID_931_" class="st7" d="M149.5,167.4V85.9l22.6-4.1l11,29.5V79.8l22.6-4.1v81.5l-21.8,4l-11.8-29.4v31.5
					L149.5,167.4z"/>
			</g>
			<g id="XMLID_928_">
				<polygon id="XMLID_929_" class="st7" points="35.4,106.6 35.4,188.1 57.9,184 57.9,151.1 85,146.2 85.8,130.1 57.9,135.1 
					57.9,118.5 90.7,112.5 91.5,96.4 				"/>
			</g>
			<g id="XMLID_923_">
				<path id="XMLID_926_" class="st7" d="M106.5,250v-58.1l37.3-7.3V196l-22.3,4.3v11.9l18.6-3.6V220l-18.6,3.6v23.4L106.5,250z"/>
				<path id="XMLID_924_" class="st7" d="M146.3,242.3v-58.1l22.3-4.3l6.3,28.4l6.3-30.8l22.3-4.3v58.1l-15,2.9v-34.5l-7.8,36
					l-11.6,2.3l-7.8-33v34.5L146.3,242.3z"/>
			</g>
			<path id="XMLID_921_" class="st6" d="M12.4,38.3L63.6,7c2.1-1.3,4.8,0.2,4.8,2.7v32.5l-56,29V38.3z"/>
			<path id="XMLID_919_" class="st5" d="M12.4,38.3l82.9-16.4c2.6-0.6,4.9,1,4.9,5.1v55.9L17.3,99.4c-2.6,0.6-4.9-1.9-4.9-5.1V38.3z
				"/>
		</g>
		<g id="XMLID_912_">
			<path id="XMLID_916_" class="st7" d="M23.1,40.7l13.3-2.6v41.5l19.8-3.9v10.1l-33.2,6.4V40.7z"/>
			<path id="XMLID_913_" class="st7" d="M57.7,85.6l2.4-52.1l28.1-5.5l2.5,51.1l-13.3,2.6l-0.4-15l-5.6,1.1L71.1,83L57.7,85.6z
				 M76.5,56.7l-0.6-16.1l-3.5,0.7l-0.6,16.3L76.5,56.7z"/>
		</g>
	</g>
</g>
</svg>
